<svg width="424" height="271" viewBox="0 0 424 271" fill="none" xmlns="http://www.w3.org/2000/svg">
<g filter="url(#filter0_d_18_5028)">
<g clip-path="url(#clip0_18_5028)">
<rect x="20" y="16" width="380" height="223" rx="44" fill="url(#paint0_linear_18_5028)"/>
<g opacity="0.32">
<path opacity="0.1" d="M262.831 -14.1945L391.137 57.0632V177.547L262.831 105.644V-14.1945Z" fill="white"/>
<path opacity="0.2" d="M518.993 -14.1222L390.691 57.0608V177.418L518.993 105.591V-14.1222Z" fill="white"/>
<path opacity="0.3" d="M262.831 -13.7998L391.137 -85.7029L519.442 -13.7998V-13.262L391.137 58.641L262.831 -13.262V-13.7998Z" fill="white"/>
<path opacity="0.1" d="M-99 54.1558L29.3056 125.413V245.897L-99 173.994V54.1558Z" fill="white"/>
<path opacity="0.2" d="M157.162 54.228L28.8596 125.411V245.768L157.162 173.941V54.228Z" fill="white"/>
<path opacity="0.3" d="M-99 54.5504L29.3056 -17.3527L157.611 54.5504V55.0882L29.3056 126.991L-99 55.0882V54.5504Z" fill="white"/>
<path opacity="0.1" d="M209.111 15.7771L262.609 45.4884V95.7247L209.111 65.7443V15.7771Z" fill="white"/>
<path opacity="0.2" d="M315.919 15.8071L262.423 45.4872V95.6709L315.919 65.722V15.8071Z" fill="white"/>
<path opacity="0.3" d="M209.111 15.9415L262.609 -14.0388L316.106 15.9415V16.1657L262.609 46.1461L209.111 16.1657V15.9415Z" fill="white"/>
<path opacity="0.1" d="M253.951 207.571L307.449 237.283V287.519L253.951 257.539V207.571Z" fill="white"/>
<path opacity="0.2" d="M360.759 207.601L307.263 237.281V287.465L360.759 257.516V207.601Z" fill="white"/>
<path opacity="0.3" d="M253.951 207.736L307.449 177.755L360.947 207.736V207.96L307.449 237.94L253.951 207.96V207.736Z" fill="white"/>
</g>
<path opacity="0.4" d="M350.459 145.526C360.414 145.526 368.484 137.455 368.484 127.5C368.484 117.544 360.414 109.474 350.459 109.474C340.503 109.474 332.433 117.544 332.433 127.5C332.433 137.455 340.503 145.526 350.459 145.526Z" fill="white"/>
<path opacity="0.859468" d="M328.026 145.526C337.982 145.526 346.052 137.455 346.052 127.5C346.052 117.544 337.982 109.474 328.026 109.474C318.071 109.474 310 117.544 310 127.5C310 137.455 318.071 145.526 328.026 145.526Z" fill="white"/>
<path d="M56.144 63.208C55.3867 63.208 54.6747 63.0587 54.008 62.76C53.3413 62.456 52.7547 62.0373 52.248 61.504C51.7467 60.9707 51.352 60.3547 51.064 59.656C50.7813 58.952 50.64 58.2 50.64 57.4C50.64 56.5947 50.7813 55.8427 51.064 55.144C51.352 54.44 51.7467 53.824 52.248 53.296C52.7547 52.7627 53.3413 52.3467 54.008 52.048C54.6747 51.744 55.3867 51.592 56.144 51.592C57.0507 51.592 57.8853 51.8027 58.648 52.224C59.4107 52.64 60.0427 53.1973 60.544 53.896L58.8 54.832C58.4853 54.4427 58.0933 54.1307 57.624 53.896C57.16 53.6613 56.6667 53.544 56.144 53.544C55.6533 53.544 55.192 53.6453 54.76 53.848C54.328 54.0453 53.9493 54.3227 53.624 54.68C53.2987 55.032 53.0453 55.4427 52.864 55.912C52.6827 56.376 52.592 56.872 52.592 57.4C52.592 57.9333 52.6827 58.432 52.864 58.896C53.0507 59.36 53.3067 59.7707 53.632 60.128C53.9573 60.48 54.3333 60.7573 54.76 60.96C55.192 61.1573 55.6533 61.256 56.144 61.256C56.6773 61.256 57.1733 61.1387 57.632 60.904C58.096 60.664 58.4853 60.3493 58.8 59.96L60.544 60.904C60.0427 61.5973 59.4107 62.1547 58.648 62.576C57.8853 62.9973 57.0507 63.208 56.144 63.208ZM67.8639 55H69.8159V63H67.8639L67.7759 62.008C67.5572 62.3653 67.2665 62.656 66.9039 62.88C66.5465 63.0987 66.1225 63.208 65.6319 63.208C65.0399 63.208 64.4852 63.096 63.9679 62.872C63.4505 62.648 62.9945 62.3387 62.5999 61.944C62.2105 61.5493 61.9039 61.0933 61.6799 60.576C61.4612 60.0587 61.3519 59.504 61.3519 58.912C61.3519 58.3413 61.4559 57.8053 61.6639 57.304C61.8772 56.8027 62.1732 56.3627 62.5519 55.984C62.9305 55.6053 63.3679 55.3093 63.8639 55.096C64.3599 54.8827 64.8932 54.776 65.4639 54.776C65.9919 54.776 66.4639 54.8933 66.8799 55.128C67.3012 55.3627 67.6585 55.6613 67.9519 56.024L67.8639 55ZM65.5839 61.328C65.9999 61.328 66.3679 61.224 66.6879 61.016C67.0079 60.808 67.2585 60.528 67.4399 60.176C67.6212 59.8187 67.7119 59.4267 67.7119 59C67.7119 58.568 67.6212 58.176 67.4399 57.824C67.2585 57.4667 67.0052 57.184 66.6799 56.976C66.3599 56.768 65.9945 56.664 65.5839 56.664C65.1732 56.664 64.7972 56.7707 64.4559 56.984C64.1199 57.192 63.8505 57.472 63.6479 57.824C63.4505 58.176 63.3519 58.568 63.3519 59C63.3519 59.432 63.4532 59.824 63.6559 60.176C63.8585 60.528 64.1279 60.808 64.4639 61.016C64.8052 61.224 65.1785 61.328 65.5839 61.328ZM71.618 63L71.61 55H73.562L73.57 55.712C73.842 55.424 74.1673 55.1973 74.546 55.032C74.9247 54.8613 75.3327 54.776 75.77 54.776C76.0633 54.776 76.3567 54.8187 76.65 54.904L75.882 56.872C75.6793 56.792 75.4767 56.752 75.274 56.752C74.9593 56.752 74.6713 56.8293 74.41 56.984C74.154 57.1333 73.9487 57.3387 73.794 57.6C73.6447 57.856 73.57 58.1413 73.57 58.456V63H71.618ZM82.2543 56.952H80.7023V63H78.7503V56.952H77.5663V55H78.7503V52.488H80.7023V55H82.2543V56.952ZM89.7451 55H91.6971V63H89.7451L89.6571 62.008C89.4385 62.3653 89.1478 62.656 88.7851 62.88C88.4278 63.0987 88.0038 63.208 87.5131 63.208C86.9211 63.208 86.3665 63.096 85.8491 62.872C85.3318 62.648 84.8758 62.3387 84.4811 61.944C84.0918 61.5493 83.7851 61.0933 83.5611 60.576C83.3425 60.0587 83.2331 59.504 83.2331 58.912C83.2331 58.3413 83.3371 57.8053 83.5451 57.304C83.7585 56.8027 84.0545 56.3627 84.4331 55.984C84.8118 55.6053 85.2491 55.3093 85.7451 55.096C86.2411 54.8827 86.7745 54.776 87.3451 54.776C87.8731 54.776 88.3451 54.8933 88.7611 55.128C89.1825 55.3627 89.5398 55.6613 89.8331 56.024L89.7451 55ZM87.4651 61.328C87.8811 61.328 88.2491 61.224 88.5691 61.016C88.8891 60.808 89.1398 60.528 89.3211 60.176C89.5025 59.8187 89.5931 59.4267 89.5931 59C89.5931 58.568 89.5025 58.176 89.3211 57.824C89.1398 57.4667 88.8865 57.184 88.5611 56.976C88.2411 56.768 87.8758 56.664 87.4651 56.664C87.0545 56.664 86.6785 56.7707 86.3371 56.984C86.0011 57.192 85.7318 57.472 85.5291 57.824C85.3318 58.176 85.2331 58.568 85.2331 59C85.2331 59.432 85.3345 59.824 85.5371 60.176C85.7398 60.528 86.0091 60.808 86.3451 61.016C86.6865 61.224 87.0598 61.328 87.4651 61.328ZM88.9051 54.16C88.7078 54.16 88.4731 54.0907 88.2011 53.952C87.9345 53.8133 87.6651 53.6587 87.3931 53.488C87.1265 53.3173 86.8918 53.1813 86.6891 53.08C86.4918 52.9733 86.3585 52.9573 86.2891 53.032C86.2198 53.1013 86.1771 53.192 86.1611 53.304C86.1451 53.4107 86.1638 53.552 86.2171 53.728L85.0731 54.04C84.9291 53.624 84.8918 53.2453 84.9611 52.904C85.0358 52.5627 85.1958 52.2907 85.4411 52.088C85.6918 51.88 86.0145 51.776 86.4091 51.776C86.6065 51.776 86.8305 51.8347 87.0811 51.952C87.3371 52.064 87.5931 52.1973 87.8491 52.352C88.1051 52.5013 88.3318 52.6347 88.5291 52.752C88.7265 52.864 88.8678 52.92 88.9531 52.92C89.0598 52.92 89.1291 52.8827 89.1611 52.808C89.1931 52.7333 89.2011 52.6427 89.1851 52.536C89.1691 52.4293 89.1425 52.328 89.1051 52.232L90.2651 51.856C90.4091 52.2933 90.4385 52.6853 90.3531 53.032C90.2731 53.3787 90.1051 53.6533 89.8491 53.856C89.5985 54.0587 89.2838 54.16 88.9051 54.16ZM96.855 63.208C96.119 63.208 95.447 63.0187 94.839 62.64C94.2363 62.2613 93.7537 61.7547 93.391 61.12C93.0337 60.48 92.855 59.7733 92.855 59C92.855 58.4133 92.959 57.8667 93.167 57.36C93.375 56.848 93.6603 56.4 94.023 56.016C94.391 55.6267 94.8177 55.3227 95.303 55.104C95.7883 54.8853 96.3057 54.776 96.855 54.776C97.591 54.776 98.2603 54.9653 98.863 55.344C99.471 55.7227 99.9537 56.232 100.311 56.872C100.674 57.512 100.855 58.2213 100.855 59C100.855 59.5813 100.751 60.1253 100.543 60.632C100.335 61.1387 100.047 61.5867 99.679 61.976C99.3163 62.36 98.8923 62.6613 98.407 62.88C97.927 63.0987 97.4097 63.208 96.855 63.208ZM96.855 61.256C97.2443 61.256 97.5937 61.152 97.903 60.944C98.2123 60.736 98.455 60.4613 98.631 60.12C98.8123 59.7787 98.903 59.4053 98.903 59C98.903 58.584 98.8097 58.2053 98.623 57.864C98.4417 57.5173 98.1937 57.2427 97.879 57.04C97.5697 56.832 97.2283 56.728 96.855 56.728C96.471 56.728 96.1243 56.832 95.815 57.04C95.5057 57.248 95.2603 57.5253 95.079 57.872C94.8977 58.2187 94.807 58.5947 94.807 59C94.807 59.4213 94.9003 59.8027 95.087 60.144C95.2737 60.4853 95.5217 60.7573 95.831 60.96C96.1457 61.1573 96.487 61.256 96.855 61.256ZM112.58 51H114.532V63H112.58V62C112.324 62.3573 112.001 62.648 111.612 62.872C111.223 63.096 110.772 63.208 110.26 63.208C109.679 63.208 109.135 63.0987 108.628 62.88C108.121 62.6613 107.673 62.36 107.284 61.976C106.9 61.5867 106.599 61.1387 106.38 60.632C106.161 60.1253 106.052 59.5813 106.052 59C106.052 58.4187 106.161 57.8747 106.38 57.368C106.599 56.8613 106.9 56.416 107.284 56.032C107.673 55.6427 108.121 55.3387 108.628 55.12C109.135 54.9013 109.679 54.792 110.26 54.792C110.772 54.792 111.223 54.904 111.612 55.128C112.001 55.3467 112.324 55.6373 112.58 56V51ZM110.284 61.328C110.7 61.328 111.068 61.224 111.388 61.016C111.708 60.808 111.959 60.528 112.14 60.176C112.321 59.8187 112.412 59.4267 112.412 59C112.412 58.568 112.321 58.176 112.14 57.824C111.959 57.4667 111.705 57.184 111.38 56.976C111.06 56.768 110.695 56.664 110.284 56.664C109.873 56.664 109.497 56.7707 109.156 56.984C108.82 57.192 108.551 57.472 108.348 57.824C108.151 58.176 108.052 58.568 108.052 59C108.052 59.432 108.153 59.824 108.356 60.176C108.559 60.528 108.828 60.808 109.164 61.016C109.505 61.224 109.879 61.328 110.284 61.328ZM120.049 63.208C119.313 63.208 118.641 63.0187 118.033 62.64C117.43 62.2613 116.947 61.752 116.585 61.112C116.227 60.472 116.049 59.7653 116.049 58.992C116.049 58.4107 116.153 57.8667 116.361 57.36C116.569 56.848 116.854 56.4 117.217 56.016C117.585 55.6267 118.011 55.3227 118.497 55.104C118.982 54.8853 119.499 54.776 120.049 54.776C120.673 54.776 121.243 54.9093 121.761 55.176C122.283 55.4373 122.726 55.7973 123.089 56.256C123.451 56.7147 123.715 57.2373 123.881 57.824C124.046 58.4107 124.083 59.024 123.993 59.664H118.145C118.219 59.9627 118.342 60.232 118.513 60.472C118.683 60.7067 118.899 60.896 119.161 61.04C119.422 61.1787 119.718 61.2507 120.049 61.256C120.39 61.2613 120.699 61.1813 120.977 61.016C121.259 60.8453 121.494 60.616 121.681 60.328L123.673 60.792C123.347 61.5013 122.862 62.0827 122.217 62.536C121.571 62.984 120.849 63.208 120.049 63.208ZM118.081 58.2H122.017C121.958 57.88 121.833 57.592 121.641 57.336C121.454 57.0747 121.222 56.8667 120.945 56.712C120.667 56.5573 120.369 56.48 120.049 56.48C119.729 56.48 119.433 56.5573 119.161 56.712C118.889 56.8613 118.657 57.0667 118.465 57.328C118.278 57.584 118.15 57.8747 118.081 58.2ZM134.91 63.208C134.152 63.208 133.44 63.0587 132.774 62.76C132.107 62.456 131.52 62.0373 131.014 61.504C130.512 60.9707 130.118 60.3547 129.83 59.656C129.547 58.952 129.406 58.2 129.406 57.4C129.406 56.5947 129.547 55.8427 129.83 55.144C130.118 54.44 130.512 53.824 131.014 53.296C131.52 52.7627 132.107 52.3467 132.774 52.048C133.44 51.744 134.152 51.592 134.91 51.592C135.816 51.592 136.651 51.8027 137.414 52.224C138.176 52.64 138.808 53.1973 139.31 53.896L137.566 54.832C137.251 54.4427 136.859 54.1307 136.39 53.896C135.926 53.6613 135.432 53.544 134.91 53.544C134.419 53.544 133.958 53.6453 133.526 53.848C133.094 54.0453 132.715 54.3227 132.39 54.68C132.064 55.032 131.811 55.4427 131.63 55.912C131.448 56.376 131.358 56.872 131.358 57.4C131.358 57.9333 131.448 58.432 131.63 58.896C131.816 59.36 132.072 59.7707 132.398 60.128C132.723 60.48 133.099 60.7573 133.526 60.96C133.958 61.1573 134.419 61.256 134.91 61.256C135.443 61.256 135.939 61.1387 136.398 60.904C136.862 60.664 137.251 60.3493 137.566 59.96L139.31 60.904C138.808 61.5973 138.176 62.1547 137.414 62.576C136.651 62.9973 135.816 63.208 134.91 63.208ZM140.965 63L140.957 55H142.909L142.917 55.712C143.189 55.424 143.514 55.1973 143.893 55.032C144.272 54.8613 144.68 54.776 145.117 54.776C145.41 54.776 145.704 54.8187 145.997 54.904L145.229 56.872C145.026 56.792 144.824 56.752 144.621 56.752C144.306 56.752 144.018 56.8293 143.757 56.984C143.501 57.1333 143.296 57.3387 143.141 57.6C142.992 57.856 142.917 58.1413 142.917 58.456V63H140.965ZM150.239 63.208C149.503 63.208 148.831 63.0187 148.223 62.64C147.621 62.2613 147.138 61.752 146.775 61.112C146.418 60.472 146.239 59.7653 146.239 58.992C146.239 58.4107 146.343 57.8667 146.551 57.36C146.759 56.848 147.045 56.4 147.407 56.016C147.775 55.6267 148.202 55.3227 148.687 55.104C149.173 54.8853 149.69 54.776 150.239 54.776C150.863 54.776 151.434 54.9093 151.951 55.176C152.474 55.4373 152.917 55.7973 153.279 56.256C153.642 56.7147 153.906 57.2373 154.071 57.824C154.237 58.4107 154.274 59.024 154.183 59.664H148.335C148.41 59.9627 148.533 60.232 148.703 60.472C148.874 60.7067 149.09 60.896 149.351 61.04C149.613 61.1787 149.909 61.2507 150.239 61.256C150.581 61.2613 150.89 61.1813 151.167 61.016C151.45 60.8453 151.685 60.616 151.871 60.328L153.863 60.792C153.538 61.5013 153.053 62.0827 152.407 62.536C151.762 62.984 151.039 63.208 150.239 63.208ZM148.271 58.2H152.207C152.149 57.88 152.023 57.592 151.831 57.336C151.645 57.0747 151.413 56.8667 151.135 56.712C150.858 56.5573 150.559 56.48 150.239 56.48C149.919 56.48 149.623 56.5573 149.351 56.712C149.079 56.8613 148.847 57.0667 148.655 57.328C148.469 57.584 148.341 57.8747 148.271 58.2ZM149.727 54.12L150.367 51.816H152.319L151.023 54.12H149.727ZM161.764 51H163.716V63H161.764V62C161.508 62.3573 161.186 62.648 160.796 62.872C160.407 63.096 159.956 63.208 159.444 63.208C158.863 63.208 158.319 63.0987 157.812 62.88C157.306 62.6613 156.858 62.36 156.468 61.976C156.084 61.5867 155.783 61.1387 155.564 60.632C155.346 60.1253 155.236 59.5813 155.236 59C155.236 58.4187 155.346 57.8747 155.564 57.368C155.783 56.8613 156.084 56.416 156.468 56.032C156.858 55.6427 157.306 55.3387 157.812 55.12C158.319 54.9013 158.863 54.792 159.444 54.792C159.956 54.792 160.407 54.904 160.796 55.128C161.186 55.3467 161.508 55.6373 161.764 56V51ZM159.468 61.328C159.884 61.328 160.252 61.224 160.572 61.016C160.892 60.808 161.143 60.528 161.324 60.176C161.506 59.8187 161.596 59.4267 161.596 59C161.596 58.568 161.506 58.176 161.324 57.824C161.143 57.4667 160.89 57.184 160.564 56.976C160.244 56.768 159.879 56.664 159.468 56.664C159.058 56.664 158.682 56.7707 158.34 56.984C158.004 57.192 157.735 57.472 157.532 57.824C157.335 58.176 157.236 58.568 157.236 59C157.236 59.432 157.338 59.824 157.54 60.176C157.743 60.528 158.012 60.808 158.348 61.016C158.69 61.224 159.063 61.328 159.468 61.328ZM165.838 55H167.79V63H165.838V55ZM166.83 53.968C166.542 53.968 166.299 53.8747 166.102 53.688C165.905 53.496 165.806 53.256 165.806 52.968C165.806 52.6853 165.905 52.448 166.102 52.256C166.299 52.064 166.539 51.968 166.822 51.968C167.105 51.968 167.342 52.064 167.534 52.256C167.731 52.448 167.83 52.6853 167.83 52.968C167.83 53.256 167.734 53.496 167.542 53.688C167.35 53.8747 167.113 53.968 166.83 53.968ZM174.201 56.952H172.649V63H170.697V56.952H169.513V55H170.697V52.488H172.649V55H174.201V56.952ZM179.18 63.208C178.444 63.208 177.772 63.0187 177.164 62.64C176.561 62.2613 176.079 61.7547 175.716 61.12C175.359 60.48 175.18 59.7733 175.18 59C175.18 58.4133 175.284 57.8667 175.492 57.36C175.7 56.848 175.985 56.4 176.348 56.016C176.716 55.6267 177.143 55.3227 177.628 55.104C178.113 54.8853 178.631 54.776 179.18 54.776C179.916 54.776 180.585 54.9653 181.188 55.344C181.796 55.7227 182.279 56.232 182.636 56.872C182.999 57.512 183.18 58.2213 183.18 59C183.18 59.5813 183.076 60.1253 182.868 60.632C182.66 61.1387 182.372 61.5867 182.004 61.976C181.641 62.36 181.217 62.6613 180.732 62.88C180.252 63.0987 179.735 63.208 179.18 63.208ZM179.18 61.256C179.569 61.256 179.919 61.152 180.228 60.944C180.537 60.736 180.78 60.4613 180.956 60.12C181.137 59.7787 181.228 59.4053 181.228 59C181.228 58.584 181.135 58.2053 180.948 57.864C180.767 57.5173 180.519 57.2427 180.204 57.04C179.895 56.832 179.553 56.728 179.18 56.728C178.796 56.728 178.449 56.832 178.14 57.04C177.831 57.248 177.585 57.5253 177.404 57.872C177.223 58.2187 177.132 58.5947 177.132 59C177.132 59.4213 177.225 59.8027 177.412 60.144C177.599 60.4853 177.847 60.7573 178.156 60.96C178.471 61.1573 178.812 61.256 179.18 61.256Z" fill="white"/>
<path d="M55.928 127.608C54.808 127.608 53.856 127.224 53.072 126.456C52.304 125.672 51.92 124.72 51.92 123.6C51.92 122.48 52.304 121.536 53.072 120.768C53.856 119.984 54.808 119.592 55.928 119.592C57.048 119.592 58 119.984 58.784 120.768C59.568 121.536 59.96 122.48 59.96 123.6C59.96 124.72 59.568 125.672 58.784 126.456C58 127.224 57.048 127.608 55.928 127.608ZM67.7874 127.608C66.6674 127.608 65.7154 127.224 64.9314 126.456C64.1634 125.672 63.7794 124.72 63.7794 123.6C63.7794 122.48 64.1634 121.536 64.9314 120.768C65.7154 119.984 66.6674 119.592 67.7874 119.592C68.9074 119.592 69.8594 119.984 70.6434 120.768C71.4274 121.536 71.8194 122.48 71.8194 123.6C71.8194 124.72 71.4274 125.672 70.6434 126.456C69.8594 127.224 68.9074 127.608 67.7874 127.608ZM79.6468 127.608C78.5268 127.608 77.5748 127.224 76.7908 126.456C76.0228 125.672 75.6388 124.72 75.6388 123.6C75.6388 122.48 76.0228 121.536 76.7908 120.768C77.5748 119.984 78.5268 119.592 79.6468 119.592C80.7668 119.592 81.7188 119.984 82.5028 120.768C83.2868 121.536 83.6788 122.48 83.6788 123.6C83.6788 124.72 83.2868 125.672 82.5028 126.456C81.7188 127.224 80.7668 127.608 79.6468 127.608ZM91.5061 127.608C90.3861 127.608 89.4341 127.224 88.6501 126.456C87.8821 125.672 87.4981 124.72 87.4981 123.6C87.4981 122.48 87.8821 121.536 88.6501 120.768C89.4341 119.984 90.3861 119.592 91.5061 119.592C92.6261 119.592 93.5781 119.984 94.3621 120.768C95.1461 121.536 95.5381 122.48 95.5381 123.6C95.5381 124.72 95.1461 125.672 94.3621 126.456C93.5781 127.224 92.6261 127.608 91.5061 127.608ZM114.897 127.608C113.777 127.608 112.825 127.224 112.041 126.456C111.273 125.672 110.889 124.72 110.889 123.6C110.889 122.48 111.273 121.536 112.041 120.768C112.825 119.984 113.777 119.592 114.897 119.592C116.017 119.592 116.969 119.984 117.753 120.768C118.537 121.536 118.929 122.48 118.929 123.6C118.929 124.72 118.537 125.672 117.753 126.456C116.969 127.224 116.017 127.608 114.897 127.608ZM126.756 127.608C125.636 127.608 124.684 127.224 123.9 126.456C123.132 125.672 122.748 124.72 122.748 123.6C122.748 122.48 123.132 121.536 123.9 120.768C124.684 119.984 125.636 119.592 126.756 119.592C127.876 119.592 128.828 119.984 129.612 120.768C130.396 121.536 130.788 122.48 130.788 123.6C130.788 124.72 130.396 125.672 129.612 126.456C128.828 127.224 127.876 127.608 126.756 127.608ZM138.616 127.608C137.496 127.608 136.544 127.224 135.76 126.456C134.992 125.672 134.608 124.72 134.608 123.6C134.608 122.48 134.992 121.536 135.76 120.768C136.544 119.984 137.496 119.592 138.616 119.592C139.736 119.592 140.688 119.984 141.472 120.768C142.256 121.536 142.648 122.48 142.648 123.6C142.648 124.72 142.256 125.672 141.472 126.456C140.688 127.224 139.736 127.608 138.616 127.608ZM150.475 127.608C149.355 127.608 148.403 127.224 147.619 126.456C146.851 125.672 146.467 124.72 146.467 123.6C146.467 122.48 146.851 121.536 147.619 120.768C148.403 119.984 149.355 119.592 150.475 119.592C151.595 119.592 152.547 119.984 153.331 120.768C154.115 121.536 154.507 122.48 154.507 123.6C154.507 124.72 154.115 125.672 153.331 126.456C152.547 127.224 151.595 127.608 150.475 127.608ZM173.866 127.608C172.746 127.608 171.794 127.224 171.01 126.456C170.242 125.672 169.858 124.72 169.858 123.6C169.858 122.48 170.242 121.536 171.01 120.768C171.794 119.984 172.746 119.592 173.866 119.592C174.986 119.592 175.938 119.984 176.722 120.768C177.506 121.536 177.898 122.48 177.898 123.6C177.898 124.72 177.506 125.672 176.722 126.456C175.938 127.224 174.986 127.608 173.866 127.608ZM185.725 127.608C184.605 127.608 183.653 127.224 182.869 126.456C182.101 125.672 181.717 124.72 181.717 123.6C181.717 122.48 182.101 121.536 182.869 120.768C183.653 119.984 184.605 119.592 185.725 119.592C186.845 119.592 187.797 119.984 188.581 120.768C189.365 121.536 189.757 122.48 189.757 123.6C189.757 124.72 189.365 125.672 188.581 126.456C187.797 127.224 186.845 127.608 185.725 127.608ZM197.584 127.608C196.464 127.608 195.512 127.224 194.728 126.456C193.96 125.672 193.576 124.72 193.576 123.6C193.576 122.48 193.96 121.536 194.728 120.768C195.512 119.984 196.464 119.592 197.584 119.592C198.704 119.592 199.656 119.984 200.44 120.768C201.224 121.536 201.616 122.48 201.616 123.6C201.616 124.72 201.224 125.672 200.44 126.456C199.656 127.224 198.704 127.608 197.584 127.608ZM209.444 127.608C208.324 127.608 207.372 127.224 206.588 126.456C205.82 125.672 205.436 124.72 205.436 123.6C205.436 122.48 205.82 121.536 206.588 120.768C207.372 119.984 208.324 119.592 209.444 119.592C210.564 119.592 211.516 119.984 212.3 120.768C213.084 121.536 213.476 122.48 213.476 123.6C213.476 124.72 213.084 125.672 212.3 126.456C211.516 127.224 210.564 127.608 209.444 127.608ZM232.834 127.608C231.714 127.608 230.762 127.224 229.978 126.456C229.21 125.672 228.826 124.72 228.826 123.6C228.826 122.48 229.21 121.536 229.978 120.768C230.762 119.984 231.714 119.592 232.834 119.592C233.954 119.592 234.906 119.984 235.69 120.768C236.474 121.536 236.866 122.48 236.866 123.6C236.866 124.72 236.474 125.672 235.69 126.456C234.906 127.224 233.954 127.608 232.834 127.608ZM244.694 127.608C243.574 127.608 242.622 127.224 241.838 126.456C241.07 125.672 240.686 124.72 240.686 123.6C240.686 122.48 241.07 121.536 241.838 120.768C242.622 119.984 243.574 119.592 244.694 119.592C245.814 119.592 246.766 119.984 247.55 120.768C248.334 121.536 248.726 122.48 248.726 123.6C248.726 124.72 248.334 125.672 247.55 126.456C246.766 127.224 245.814 127.608 244.694 127.608ZM256.553 127.608C255.433 127.608 254.481 127.224 253.697 126.456C252.929 125.672 252.545 124.72 252.545 123.6C252.545 122.48 252.929 121.536 253.697 120.768C254.481 119.984 255.433 119.592 256.553 119.592C257.673 119.592 258.625 119.984 259.409 120.768C260.193 121.536 260.585 122.48 260.585 123.6C260.585 124.72 260.193 125.672 259.409 126.456C258.625 127.224 257.673 127.608 256.553 127.608ZM268.412 127.608C267.292 127.608 266.34 127.224 265.556 126.456C264.788 125.672 264.404 124.72 264.404 123.6C264.404 122.48 264.788 121.536 265.556 120.768C266.34 119.984 267.292 119.592 268.412 119.592C269.532 119.592 270.484 119.984 271.268 120.768C272.052 121.536 272.444 122.48 272.444 123.6C272.444 124.72 272.052 125.672 271.268 126.456C270.484 127.224 269.532 127.608 268.412 127.608Z" fill="white"/>
<path d="M50.6 184V177H51.51L55.005 182.48V177H55.845V184H54.94L51.44 178.52V184H50.6ZM59.3965 184.13C58.9365 184.13 58.5165 184.012 58.1365 183.775C57.7598 183.538 57.4582 183.222 57.2315 182.825C57.0082 182.425 56.8965 181.983 56.8965 181.5C56.8965 181.133 56.9615 180.792 57.0915 180.475C57.2215 180.155 57.3998 179.875 57.6265 179.635C57.8565 179.392 58.1232 179.202 58.4265 179.065C58.7298 178.928 59.0532 178.86 59.3965 178.86C59.8565 178.86 60.2748 178.978 60.6515 179.215C61.0315 179.452 61.3332 179.77 61.5565 180.17C61.7832 180.57 61.8965 181.013 61.8965 181.5C61.8965 181.863 61.8315 182.203 61.7015 182.52C61.5715 182.837 61.3915 183.117 61.1615 183.36C60.9348 183.6 60.6698 183.788 60.3665 183.925C60.0665 184.062 59.7432 184.13 59.3965 184.13ZM59.3965 183.29C59.7098 183.29 59.9915 183.208 60.2415 183.045C60.4948 182.878 60.6932 182.66 60.8365 182.39C60.9832 182.117 61.0565 181.82 61.0565 181.5C61.0565 181.173 60.9815 180.873 60.8315 180.6C60.6848 180.327 60.4865 180.108 60.2365 179.945C59.9865 179.782 59.7065 179.7 59.3965 179.7C59.0832 179.7 58.8015 179.783 58.5515 179.95C58.3015 180.113 58.1032 180.332 57.9565 180.605C57.8098 180.878 57.7365 181.177 57.7365 181.5C57.7365 181.833 57.8115 182.137 57.9615 182.41C58.1115 182.68 58.3132 182.895 58.5665 183.055C58.8198 183.212 59.0965 183.29 59.3965 183.29ZM62.9238 184V179H63.7638V179.625C63.9405 179.392 64.1622 179.207 64.4288 179.07C64.6988 178.93 64.9922 178.86 65.3088 178.86C65.6788 178.86 66.0172 178.95 66.3238 179.13C66.6305 179.31 66.8722 179.548 67.0488 179.845C67.2255 179.548 67.4655 179.31 67.7688 179.13C68.0755 178.95 68.4122 178.86 68.7788 178.86C69.1555 178.86 69.4972 178.952 69.8038 179.135C70.1105 179.315 70.3538 179.558 70.5338 179.865C70.7172 180.172 70.8088 180.513 70.8088 180.89V184H69.9688V181.09C69.9688 180.843 69.9088 180.615 69.7888 180.405C69.6688 180.195 69.5072 180.027 69.3038 179.9C69.1005 179.773 68.8755 179.71 68.6288 179.71C68.3822 179.71 68.1572 179.77 67.9538 179.89C67.7505 180.007 67.5888 180.17 67.4688 180.38C67.3488 180.587 67.2888 180.823 67.2888 181.09V184H66.4488V181.09C66.4488 180.823 66.3888 180.587 66.2688 180.38C66.1488 180.17 65.9855 180.007 65.7788 179.89C65.5755 179.77 65.3505 179.71 65.1038 179.71C64.8605 179.71 64.6355 179.773 64.4288 179.9C64.2255 180.027 64.0638 180.195 63.9438 180.405C63.8238 180.615 63.7638 180.843 63.7638 181.09V184H62.9238ZM74.1129 184.13C73.6529 184.13 73.2329 184.012 72.8529 183.775C72.4762 183.538 72.1746 183.222 71.9479 182.825C71.7246 182.425 71.6129 181.983 71.6129 181.5C71.6129 181.133 71.6779 180.792 71.8079 180.475C71.9379 180.155 72.1162 179.875 72.3429 179.635C72.5729 179.392 72.8396 179.202 73.1429 179.065C73.4462 178.928 73.7696 178.86 74.1129 178.86C74.4896 178.86 74.8346 178.937 75.1479 179.09C75.4646 179.24 75.7346 179.45 75.9579 179.72C76.1846 179.99 76.3529 180.303 76.4629 180.66C76.5762 181.017 76.6179 181.398 76.5879 181.805H72.5079C72.5479 182.088 72.6412 182.342 72.7879 182.565C72.9346 182.785 73.1212 182.96 73.3479 183.09C73.5779 183.22 73.8329 183.287 74.1129 183.29C74.4129 183.29 74.6846 183.213 74.9279 183.06C75.1712 182.903 75.3679 182.69 75.5179 182.42L76.3729 182.62C76.1729 183.063 75.8712 183.427 75.4679 183.71C75.0646 183.99 74.6129 184.13 74.1129 184.13ZM72.4829 181.145H75.7429C75.7162 180.865 75.6262 180.61 75.4729 180.38C75.3196 180.147 75.1246 179.96 74.8879 179.82C74.6512 179.68 74.3929 179.61 74.1129 179.61C73.8329 179.61 73.5762 179.678 73.3429 179.815C73.1096 179.952 72.9162 180.137 72.7629 180.37C72.6129 180.6 72.5196 180.858 72.4829 181.145ZM84.3262 176.5H85.1662V184H84.3262V183.15C84.1562 183.443 83.9278 183.68 83.6412 183.86C83.3545 184.04 83.0178 184.13 82.6312 184.13C82.2678 184.13 81.9278 184.062 81.6112 183.925C81.2945 183.788 81.0145 183.6 80.7712 183.36C80.5312 183.117 80.3428 182.837 80.2062 182.52C80.0695 182.203 80.0012 181.863 80.0012 181.5C80.0012 181.137 80.0695 180.797 80.2062 180.48C80.3428 180.16 80.5312 179.88 80.7712 179.64C81.0145 179.397 81.2945 179.207 81.6112 179.07C81.9278 178.933 82.2678 178.865 82.6312 178.865C83.0178 178.865 83.3545 178.955 83.6412 179.135C83.9278 179.315 84.1562 179.552 84.3262 179.845V176.5ZM82.6412 183.315C82.9712 183.315 83.2562 183.235 83.4962 183.075C83.7395 182.912 83.9262 182.692 84.0562 182.415C84.1895 182.138 84.2562 181.833 84.2562 181.5C84.2562 181.16 84.1895 180.853 84.0562 180.58C83.9228 180.303 83.7345 180.085 83.4912 179.925C83.2512 179.762 82.9678 179.68 82.6412 179.68C82.3112 179.68 82.0112 179.762 81.7412 179.925C81.4745 180.088 81.2612 180.308 81.1012 180.585C80.9412 180.858 80.8612 181.163 80.8612 181.5C80.8612 181.837 80.9428 182.143 81.1062 182.42C81.2695 182.693 81.4862 182.912 81.7562 183.075C82.0262 183.235 82.3212 183.315 82.6412 183.315ZM88.7168 184.13C88.2568 184.13 87.8368 184.012 87.4568 183.775C87.0801 183.538 86.7785 183.222 86.5518 182.825C86.3285 182.425 86.2168 181.983 86.2168 181.5C86.2168 181.133 86.2818 180.792 86.4118 180.475C86.5418 180.155 86.7201 179.875 86.9468 179.635C87.1768 179.392 87.4435 179.202 87.7468 179.065C88.0501 178.928 88.3735 178.86 88.7168 178.86C89.1768 178.86 89.5951 178.978 89.9718 179.215C90.3518 179.452 90.6535 179.77 90.8768 180.17C91.1035 180.57 91.2168 181.013 91.2168 181.5C91.2168 181.863 91.1518 182.203 91.0218 182.52C90.8918 182.837 90.7118 183.117 90.4818 183.36C90.2551 183.6 89.9901 183.788 89.6868 183.925C89.3868 184.062 89.0635 184.13 88.7168 184.13ZM88.7168 183.29C89.0301 183.29 89.3118 183.208 89.5618 183.045C89.8151 182.878 90.0135 182.66 90.1568 182.39C90.3035 182.117 90.3768 181.82 90.3768 181.5C90.3768 181.173 90.3018 180.873 90.1518 180.6C90.0051 180.327 89.8068 180.108 89.5568 179.945C89.3068 179.782 89.0268 179.7 88.7168 179.7C88.4035 179.7 88.1218 179.783 87.8718 179.95C87.6218 180.113 87.4235 180.332 87.2768 180.605C87.1301 180.878 87.0568 181.177 87.0568 181.5C87.0568 181.833 87.1318 182.137 87.2818 182.41C87.4318 182.68 87.6335 182.895 87.8868 183.055C88.1401 183.212 88.4168 183.29 88.7168 183.29ZM100.21 177V177.84H97.8798V184H97.0398V177.84H94.7148V177H100.21ZM100.847 179H101.687V184H100.847V179ZM101.277 178.185C101.144 178.185 101.032 178.142 100.942 178.055C100.852 177.968 100.807 177.86 100.807 177.73C100.807 177.6 100.852 177.492 100.942 177.405C101.032 177.318 101.142 177.275 101.272 177.275C101.402 177.275 101.512 177.318 101.602 177.405C101.692 177.492 101.737 177.6 101.737 177.73C101.737 177.86 101.692 177.968 101.602 178.055C101.516 178.142 101.407 178.185 101.277 178.185ZM105.678 179.84H104.543L104.538 184H103.698L103.703 179.84H102.843V179H103.703L103.698 177.43H104.538L104.543 179H105.678V179.84ZM106.575 182.1V179H107.415V181.915C107.415 182.168 107.476 182.398 107.6 182.605C107.723 182.812 107.888 182.977 108.095 183.1C108.305 183.22 108.535 183.28 108.785 183.28C109.038 183.28 109.266 183.22 109.47 183.1C109.676 182.977 109.841 182.812 109.965 182.605C110.088 182.398 110.15 182.168 110.15 181.915V179H110.99L110.995 184H110.155L110.15 183.365C109.973 183.598 109.75 183.785 109.48 183.925C109.21 184.062 108.918 184.13 108.605 184.13C108.231 184.13 107.89 184.04 107.58 183.86C107.273 183.677 107.028 183.432 106.845 183.125C106.665 182.818 106.575 182.477 106.575 182.1ZM112.258 184V176.5H113.098V184H112.258ZM118.47 179H119.31V184H118.47L118.435 183.155C118.278 183.445 118.062 183.68 117.785 183.86C117.512 184.04 117.185 184.13 116.805 184.13C116.438 184.13 116.095 184.062 115.775 183.925C115.455 183.785 115.172 183.593 114.925 183.35C114.682 183.103 114.492 182.82 114.355 182.5C114.218 182.18 114.15 181.835 114.15 181.465C114.15 181.108 114.217 180.772 114.35 180.455C114.483 180.138 114.668 179.862 114.905 179.625C115.145 179.385 115.422 179.198 115.735 179.065C116.048 178.928 116.385 178.86 116.745 178.86C117.138 178.86 117.483 178.953 117.78 179.14C118.077 179.323 118.317 179.562 118.5 179.855L118.47 179ZM116.79 183.315C117.12 183.315 117.405 183.235 117.645 183.075C117.888 182.912 118.075 182.692 118.205 182.415C118.338 182.138 118.405 181.833 118.405 181.5C118.405 181.16 118.338 180.853 118.205 180.58C118.072 180.303 117.883 180.085 117.64 179.925C117.4 179.762 117.117 179.68 116.79 179.68C116.46 179.68 116.16 179.762 115.89 179.925C115.62 180.088 115.405 180.308 115.245 180.585C115.088 180.858 115.01 181.163 115.01 181.5C115.01 181.837 115.092 182.143 115.255 182.42C115.418 182.693 115.635 182.912 115.905 183.075C116.175 183.235 116.47 183.315 116.79 183.315ZM120.509 184V179H121.349V179.625C121.526 179.392 121.749 179.207 122.019 179.07C122.289 178.93 122.583 178.86 122.899 178.86C123.093 178.86 123.279 178.885 123.459 178.935L123.119 179.775C122.983 179.732 122.849 179.71 122.719 179.71C122.469 179.71 122.239 179.772 122.029 179.895C121.823 180.015 121.658 180.178 121.534 180.385C121.411 180.592 121.349 180.822 121.349 181.075V184H120.509Z" fill="white"/>
<path d="M51.575 201.829C51.295 201.829 51.0547 201.731 50.854 201.535C50.658 201.334 50.56 201.087 50.56 200.793C50.56 200.513 50.658 200.273 50.854 200.072C51.0547 199.871 51.295 199.771 51.575 199.771C51.8643 199.771 52.107 199.871 52.303 200.072C52.5037 200.273 52.604 200.513 52.604 200.793C52.604 201.087 52.5037 201.334 52.303 201.535C52.107 201.731 51.8643 201.829 51.575 201.829ZM54.9332 201.829C54.6532 201.829 54.4129 201.731 54.2122 201.535C54.0162 201.334 53.9182 201.087 53.9182 200.793C53.9182 200.513 54.0162 200.273 54.2122 200.072C54.4129 199.871 54.6532 199.771 54.9332 199.771C55.2225 199.771 55.4652 199.871 55.6612 200.072C55.8619 200.273 55.9622 200.513 55.9622 200.793C55.9622 201.087 55.8619 201.334 55.6612 201.535C55.4652 201.731 55.2225 201.829 54.9332 201.829ZM58.2914 201.829C58.0114 201.829 57.7711 201.731 57.5704 201.535C57.3744 201.334 57.2764 201.087 57.2764 200.793C57.2764 200.513 57.3744 200.273 57.5704 200.072C57.7711 199.871 58.0114 199.771 58.2914 199.771C58.5807 199.771 58.8234 199.871 59.0194 200.072C59.2201 200.273 59.3204 200.513 59.3204 200.793C59.3204 201.087 59.2201 201.334 59.0194 201.535C58.8234 201.731 58.5807 201.829 58.2914 201.829ZM61.6496 201.829C61.3696 201.829 61.1293 201.731 60.9286 201.535C60.7326 201.334 60.6346 201.087 60.6346 200.793C60.6346 200.513 60.7326 200.273 60.9286 200.072C61.1293 199.871 61.3696 199.771 61.6496 199.771C61.9389 199.771 62.1816 199.871 62.3776 200.072C62.5783 200.273 62.6786 200.513 62.6786 200.793C62.6786 201.087 62.5783 201.334 62.3776 201.535C62.1816 201.731 61.9389 201.829 61.6496 201.829ZM68.5711 201.829C68.2911 201.829 68.0508 201.731 67.8501 201.535C67.6541 201.334 67.5561 201.087 67.5561 200.793C67.5561 200.513 67.6541 200.273 67.8501 200.072C68.0508 199.871 68.2911 199.771 68.5711 199.771C68.8604 199.771 69.1031 199.871 69.2991 200.072C69.4998 200.273 69.6001 200.513 69.6001 200.793C69.6001 201.087 69.4998 201.334 69.2991 201.535C69.1031 201.731 68.8604 201.829 68.5711 201.829ZM71.9293 201.829C71.6493 201.829 71.409 201.731 71.2083 201.535C71.0123 201.334 70.9143 201.087 70.9143 200.793C70.9143 200.513 71.0123 200.273 71.2083 200.072C71.409 199.871 71.6493 199.771 71.9293 199.771C72.2186 199.771 72.4613 199.871 72.6573 200.072C72.858 200.273 72.9583 200.513 72.9583 200.793C72.9583 201.087 72.858 201.334 72.6573 201.535C72.4613 201.731 72.2186 201.829 71.9293 201.829ZM75.2875 201.829C75.0075 201.829 74.7672 201.731 74.5665 201.535C74.3705 201.334 74.2725 201.087 74.2725 200.793C74.2725 200.513 74.3705 200.273 74.5665 200.072C74.7672 199.871 75.0075 199.771 75.2875 199.771C75.5768 199.771 75.8195 199.871 76.0155 200.072C76.2162 200.273 76.3165 200.513 76.3165 200.793C76.3165 201.087 76.2162 201.334 76.0155 201.535C75.8195 201.731 75.5768 201.829 75.2875 201.829ZM78.6457 201.829C78.3657 201.829 78.1254 201.731 77.9247 201.535C77.7287 201.334 77.6307 201.087 77.6307 200.793C77.6307 200.513 77.7287 200.273 77.9247 200.072C78.1254 199.871 78.3657 199.771 78.6457 199.771C78.935 199.771 79.1777 199.871 79.3737 200.072C79.5744 200.273 79.6747 200.513 79.6747 200.793C79.6747 201.087 79.5744 201.334 79.3737 201.535C79.1777 201.731 78.935 201.829 78.6457 201.829Z" fill="white"/>
<path d="M177.176 184V177H179.491C179.974 177 180.427 177.092 180.851 177.275C181.274 177.455 181.646 177.707 181.966 178.03C182.286 178.35 182.536 178.722 182.716 179.145C182.899 179.565 182.991 180.017 182.991 180.5C182.991 180.983 182.899 181.437 182.716 181.86C182.536 182.28 182.286 182.652 181.966 182.975C181.646 183.295 181.274 183.547 180.851 183.73C180.427 183.91 179.974 184 179.491 184H177.176ZM178.016 183.16H179.491C179.857 183.16 180.201 183.092 180.521 182.955C180.844 182.815 181.127 182.623 181.371 182.38C181.614 182.137 181.804 181.855 181.941 181.535C182.081 181.212 182.151 180.867 182.151 180.5C182.151 180.133 182.081 179.79 181.941 179.47C181.804 179.147 181.612 178.863 181.366 178.62C181.122 178.377 180.841 178.187 180.521 178.05C180.201 177.91 179.857 177.84 179.491 177.84H178.016V183.16ZM188.027 179H188.867V184H188.027L187.992 183.155C187.835 183.445 187.618 183.68 187.342 183.86C187.068 184.04 186.742 184.13 186.362 184.13C185.995 184.13 185.652 184.062 185.332 183.925C185.012 183.785 184.728 183.593 184.482 183.35C184.238 183.103 184.048 182.82 183.912 182.5C183.775 182.18 183.707 181.835 183.707 181.465C183.707 181.108 183.773 180.772 183.907 180.455C184.04 180.138 184.225 179.862 184.462 179.625C184.702 179.385 184.978 179.198 185.292 179.065C185.605 178.928 185.942 178.86 186.302 178.86C186.695 178.86 187.04 178.953 187.337 179.14C187.633 179.323 187.873 179.562 188.057 179.855L188.027 179ZM186.347 183.315C186.677 183.315 186.962 183.235 187.202 183.075C187.445 182.912 187.632 182.692 187.762 182.415C187.895 182.138 187.962 181.833 187.962 181.5C187.962 181.16 187.895 180.853 187.762 180.58C187.628 180.303 187.44 180.085 187.197 179.925C186.957 179.762 186.673 179.68 186.347 179.68C186.017 179.68 185.717 179.762 185.447 179.925C185.177 180.088 184.962 180.308 184.802 180.585C184.645 180.858 184.567 181.163 184.567 181.5C184.567 181.837 184.648 182.143 184.812 182.42C184.975 182.693 185.192 182.912 185.462 183.075C185.732 183.235 186.027 183.315 186.347 183.315ZM192.656 179.84H191.521L191.516 184H190.676L190.681 179.84H189.821V179H190.681L190.676 177.43H191.516L191.521 179H192.656V179.84ZM197.645 179H198.485V184H197.645L197.61 183.155C197.454 183.445 197.237 183.68 196.96 183.86C196.687 184.04 196.36 184.13 195.98 184.13C195.614 184.13 195.27 184.062 194.95 183.925C194.63 183.785 194.347 183.593 194.1 183.35C193.857 183.103 193.667 182.82 193.53 182.5C193.394 182.18 193.325 181.835 193.325 181.465C193.325 181.108 193.392 180.772 193.525 180.455C193.659 180.138 193.844 179.862 194.08 179.625C194.32 179.385 194.597 179.198 194.91 179.065C195.224 178.928 195.56 178.86 195.92 178.86C196.314 178.86 196.659 178.953 196.955 179.14C197.252 179.323 197.492 179.562 197.675 179.855L197.645 179ZM195.965 183.315C196.295 183.315 196.58 183.235 196.82 183.075C197.064 182.912 197.25 182.692 197.38 182.415C197.514 182.138 197.58 181.833 197.58 181.5C197.58 181.16 197.514 180.853 197.38 180.58C197.247 180.303 197.059 180.085 196.815 179.925C196.575 179.762 196.292 179.68 195.965 179.68C195.635 179.68 195.335 179.762 195.065 179.925C194.795 180.088 194.58 180.308 194.42 180.585C194.264 180.858 194.185 181.163 194.185 181.5C194.185 181.837 194.267 182.143 194.43 182.42C194.594 182.693 194.81 182.912 195.08 183.075C195.35 183.235 195.645 183.315 195.965 183.315ZM206.312 176.5H207.152V184H206.312V183.15C206.142 183.443 205.914 183.68 205.627 183.86C205.34 184.04 205.004 184.13 204.617 184.13C204.254 184.13 203.914 184.062 203.597 183.925C203.28 183.788 203 183.6 202.757 183.36C202.517 183.117 202.329 182.837 202.192 182.52C202.055 182.203 201.987 181.863 201.987 181.5C201.987 181.137 202.055 180.797 202.192 180.48C202.329 180.16 202.517 179.88 202.757 179.64C203 179.397 203.28 179.207 203.597 179.07C203.914 178.933 204.254 178.865 204.617 178.865C205.004 178.865 205.34 178.955 205.627 179.135C205.914 179.315 206.142 179.552 206.312 179.845V176.5ZM204.627 183.315C204.957 183.315 205.242 183.235 205.482 183.075C205.725 182.912 205.912 182.692 206.042 182.415C206.175 182.138 206.242 181.833 206.242 181.5C206.242 181.16 206.175 180.853 206.042 180.58C205.909 180.303 205.72 180.085 205.477 179.925C205.237 179.762 204.954 179.68 204.627 179.68C204.297 179.68 203.997 179.762 203.727 179.925C203.46 180.088 203.247 180.308 203.087 180.585C202.927 180.858 202.847 181.163 202.847 181.5C202.847 181.837 202.929 182.143 203.092 182.42C203.255 182.693 203.472 182.912 203.742 183.075C204.012 183.235 204.307 183.315 204.627 183.315ZM210.703 184.13C210.243 184.13 209.823 184.012 209.443 183.775C209.066 183.538 208.764 183.222 208.538 182.825C208.314 182.425 208.203 181.983 208.203 181.5C208.203 181.133 208.268 180.792 208.398 180.475C208.528 180.155 208.706 179.875 208.933 179.635C209.163 179.392 209.429 179.202 209.733 179.065C210.036 178.928 210.359 178.86 210.703 178.86C211.079 178.86 211.424 178.937 211.738 179.09C212.054 179.24 212.324 179.45 212.548 179.72C212.774 179.99 212.943 180.303 213.053 180.66C213.166 181.017 213.208 181.398 213.178 181.805H209.098C209.138 182.088 209.231 182.342 209.378 182.565C209.524 182.785 209.711 182.96 209.938 183.09C210.168 183.22 210.423 183.287 210.703 183.29C211.003 183.29 211.274 183.213 211.518 183.06C211.761 182.903 211.958 182.69 212.108 182.42L212.963 182.62C212.763 183.063 212.461 183.427 212.058 183.71C211.654 183.99 211.203 184.13 210.703 184.13ZM209.073 181.145H212.333C212.306 180.865 212.216 180.61 212.063 180.38C211.909 180.147 211.714 179.96 211.478 179.82C211.241 179.68 210.983 179.61 210.703 179.61C210.423 179.61 210.166 179.678 209.933 179.815C209.699 179.952 209.506 180.137 209.353 180.37C209.203 180.6 209.109 180.858 209.073 181.145ZM219.111 184L216.571 177H217.461L219.631 182.975L221.806 177H222.691L220.151 184H219.111ZM227.214 179H228.054V184H227.214L227.179 183.155C227.023 183.445 226.806 183.68 226.529 183.86C226.256 184.04 225.929 184.13 225.549 184.13C225.183 184.13 224.839 184.062 224.519 183.925C224.199 183.785 223.916 183.593 223.669 183.35C223.426 183.103 223.236 182.82 223.099 182.5C222.963 182.18 222.894 181.835 222.894 181.465C222.894 181.108 222.961 180.772 223.094 180.455C223.228 180.138 223.413 179.862 223.649 179.625C223.889 179.385 224.166 179.198 224.479 179.065C224.793 178.928 225.129 178.86 225.489 178.86C225.883 178.86 226.228 178.953 226.524 179.14C226.821 179.323 227.061 179.562 227.244 179.855L227.214 179ZM225.534 183.315C225.864 183.315 226.149 183.235 226.389 183.075C226.633 182.912 226.819 182.692 226.949 182.415C227.083 182.138 227.149 181.833 227.149 181.5C227.149 181.16 227.083 180.853 226.949 180.58C226.816 180.303 226.628 180.085 226.384 179.925C226.144 179.762 225.861 179.68 225.534 179.68C225.204 179.68 224.904 179.762 224.634 179.925C224.364 180.088 224.149 180.308 223.989 180.585C223.833 180.858 223.754 181.163 223.754 181.5C223.754 181.837 223.836 182.143 223.999 182.42C224.163 182.693 224.379 182.912 224.649 183.075C224.919 183.235 225.214 183.315 225.534 183.315ZM229.312 184V176.5H230.152V184H229.312ZM231.553 179H232.393V184H231.553V179ZM231.983 178.185C231.85 178.185 231.738 178.142 231.648 178.055C231.558 177.968 231.513 177.86 231.513 177.73C231.513 177.6 231.558 177.492 231.648 177.405C231.738 177.318 231.848 177.275 231.978 177.275C232.108 177.275 232.218 177.318 232.308 177.405C232.398 177.492 232.443 177.6 232.443 177.73C232.443 177.86 232.398 177.968 232.308 178.055C232.222 178.142 232.113 178.185 231.983 178.185ZM237.751 176.5H238.591V184H237.751V183.15C237.581 183.443 237.353 183.68 237.066 183.86C236.779 184.04 236.443 184.13 236.056 184.13C235.693 184.13 235.353 184.062 235.036 183.925C234.719 183.788 234.439 183.6 234.196 183.36C233.956 183.117 233.768 182.837 233.631 182.52C233.494 182.203 233.426 181.863 233.426 181.5C233.426 181.137 233.494 180.797 233.631 180.48C233.768 180.16 233.956 179.88 234.196 179.64C234.439 179.397 234.719 179.207 235.036 179.07C235.353 178.933 235.693 178.865 236.056 178.865C236.443 178.865 236.779 178.955 237.066 179.135C237.353 179.315 237.581 179.552 237.751 179.845V176.5ZM236.066 183.315C236.396 183.315 236.681 183.235 236.921 183.075C237.164 182.912 237.351 182.692 237.481 182.415C237.614 182.138 237.681 181.833 237.681 181.5C237.681 181.16 237.614 180.853 237.481 180.58C237.348 180.303 237.159 180.085 236.916 179.925C236.676 179.762 236.393 179.68 236.066 179.68C235.736 179.68 235.436 179.762 235.166 179.925C234.899 180.088 234.686 180.308 234.526 180.585C234.366 180.858 234.286 181.163 234.286 181.5C234.286 181.837 234.368 182.143 234.531 182.42C234.694 182.693 234.911 182.912 235.181 183.075C235.451 183.235 235.746 183.315 236.066 183.315ZM243.962 179H244.802V184H243.962L243.927 183.155C243.77 183.445 243.553 183.68 243.277 183.86C243.003 184.04 242.677 184.13 242.297 184.13C241.93 184.13 241.587 184.062 241.267 183.925C240.947 183.785 240.663 183.593 240.417 183.35C240.173 183.103 239.983 182.82 239.847 182.5C239.71 182.18 239.642 181.835 239.642 181.465C239.642 181.108 239.708 180.772 239.842 180.455C239.975 180.138 240.16 179.862 240.397 179.625C240.637 179.385 240.913 179.198 241.227 179.065C241.54 178.928 241.877 178.86 242.237 178.86C242.63 178.86 242.975 178.953 243.272 179.14C243.568 179.323 243.808 179.562 243.992 179.855L243.962 179ZM242.282 183.315C242.612 183.315 242.897 183.235 243.137 183.075C243.38 182.912 243.567 182.692 243.697 182.415C243.83 182.138 243.897 181.833 243.897 181.5C243.897 181.16 243.83 180.853 243.697 180.58C243.563 180.303 243.375 180.085 243.132 179.925C242.892 179.762 242.608 179.68 242.282 179.68C241.952 179.68 241.652 179.762 241.382 179.925C241.112 180.088 240.897 180.308 240.737 180.585C240.58 180.858 240.502 181.163 240.502 181.5C240.502 181.837 240.583 182.143 240.747 182.42C240.91 182.693 241.127 182.912 241.397 183.075C241.667 183.235 241.962 183.315 242.282 183.315ZM249.928 176.5H250.768V184H249.928V183.15C249.758 183.443 249.53 183.68 249.243 183.86C248.957 184.04 248.62 184.13 248.233 184.13C247.87 184.13 247.53 184.062 247.213 183.925C246.897 183.788 246.617 183.6 246.373 183.36C246.133 183.117 245.945 182.837 245.808 182.52C245.672 182.203 245.603 181.863 245.603 181.5C245.603 181.137 245.672 180.797 245.808 180.48C245.945 180.16 246.133 179.88 246.373 179.64C246.617 179.397 246.897 179.207 247.213 179.07C247.53 178.933 247.87 178.865 248.233 178.865C248.62 178.865 248.957 178.955 249.243 179.135C249.53 179.315 249.758 179.552 249.928 179.845V176.5ZM248.243 183.315C248.573 183.315 248.858 183.235 249.098 183.075C249.342 182.912 249.528 182.692 249.658 182.415C249.792 182.138 249.858 181.833 249.858 181.5C249.858 181.16 249.792 180.853 249.658 180.58C249.525 180.303 249.337 180.085 249.093 179.925C248.853 179.762 248.57 179.68 248.243 179.68C247.913 179.68 247.613 179.762 247.343 179.925C247.077 180.088 246.863 180.308 246.703 180.585C246.543 180.858 246.463 181.163 246.463 181.5C246.463 181.837 246.545 182.143 246.708 182.42C246.872 182.693 247.088 182.912 247.358 183.075C247.628 183.235 247.923 183.315 248.243 183.315ZM254.319 184.13C253.859 184.13 253.439 184.012 253.059 183.775C252.682 183.538 252.381 183.222 252.154 182.825C251.931 182.425 251.819 181.983 251.819 181.5C251.819 181.133 251.884 180.792 252.014 180.475C252.144 180.155 252.322 179.875 252.549 179.635C252.779 179.392 253.046 179.202 253.349 179.065C253.652 178.928 253.976 178.86 254.319 178.86C254.696 178.86 255.041 178.937 255.354 179.09C255.671 179.24 255.941 179.45 256.164 179.72C256.391 179.99 256.559 180.303 256.669 180.66C256.782 181.017 256.824 181.398 256.794 181.805H252.714C252.754 182.088 252.847 182.342 252.994 182.565C253.141 182.785 253.327 182.96 253.554 183.09C253.784 183.22 254.039 183.287 254.319 183.29C254.619 183.29 254.891 183.213 255.134 183.06C255.377 182.903 255.574 182.69 255.724 182.42L256.579 182.62C256.379 183.063 256.077 183.427 255.674 183.71C255.271 183.99 254.819 184.13 254.319 184.13ZM252.689 181.145H255.949C255.922 180.865 255.832 180.61 255.679 180.38C255.526 180.147 255.331 179.96 255.094 179.82C254.857 179.68 254.599 179.61 254.319 179.61C254.039 179.61 253.782 179.678 253.549 179.815C253.316 179.952 253.122 180.137 252.969 180.37C252.819 180.6 252.726 180.858 252.689 181.145Z" fill="white"/>
<path d="M178.151 201.829C177.871 201.829 177.63 201.731 177.43 201.535C177.234 201.334 177.136 201.087 177.136 200.793C177.136 200.513 177.234 200.273 177.43 200.072C177.63 199.871 177.871 199.771 178.151 199.771C178.44 199.771 178.683 199.871 178.879 200.072C179.079 200.273 179.18 200.513 179.18 200.793C179.18 201.087 179.079 201.334 178.879 201.535C178.683 201.731 178.44 201.829 178.151 201.829ZM181.509 201.829C181.229 201.829 180.989 201.731 180.788 201.535C180.592 201.334 180.494 201.087 180.494 200.793C180.494 200.513 180.592 200.273 180.788 200.072C180.989 199.871 181.229 199.771 181.509 199.771C181.798 199.771 182.041 199.871 182.237 200.072C182.438 200.273 182.538 200.513 182.538 200.793C182.538 201.087 182.438 201.334 182.237 201.535C182.041 201.731 181.798 201.829 181.509 201.829ZM184.867 201.829C184.587 201.829 184.347 201.731 184.146 201.535C183.95 201.334 183.852 201.087 183.852 200.793C183.852 200.513 183.95 200.273 184.146 200.072C184.347 199.871 184.587 199.771 184.867 199.771C185.156 199.771 185.399 199.871 185.595 200.072C185.796 200.273 185.896 200.513 185.896 200.793C185.896 201.087 185.796 201.334 185.595 201.535C185.399 201.731 185.156 201.829 184.867 201.829ZM188.225 201.829C187.945 201.829 187.705 201.731 187.504 201.535C187.308 201.334 187.21 201.087 187.21 200.793C187.21 200.513 187.308 200.273 187.504 200.072C187.705 199.871 187.945 199.771 188.225 199.771C188.515 199.771 188.757 199.871 188.953 200.072C189.154 200.273 189.254 200.513 189.254 200.793C189.254 201.087 189.154 201.334 188.953 201.535C188.757 201.731 188.515 201.829 188.225 201.829ZM194.859 195.2L192.024 205.784H190.568L193.403 195.2H194.859ZM197.198 201.829C196.918 201.829 196.677 201.731 196.477 201.535C196.281 201.334 196.183 201.087 196.183 200.793C196.183 200.513 196.281 200.273 196.477 200.072C196.677 199.871 196.918 199.771 197.198 199.771C197.487 199.771 197.73 199.871 197.926 200.072C198.126 200.273 198.227 200.513 198.227 200.793C198.227 201.087 198.126 201.334 197.926 201.535C197.73 201.731 197.487 201.829 197.198 201.829ZM200.556 201.829C200.276 201.829 200.035 201.731 199.835 201.535C199.639 201.334 199.541 201.087 199.541 200.793C199.541 200.513 199.639 200.273 199.835 200.072C200.035 199.871 200.276 199.771 200.556 199.771C200.845 199.771 201.088 199.871 201.284 200.072C201.484 200.273 201.585 200.513 201.585 200.793C201.585 201.087 201.484 201.334 201.284 201.535C201.088 201.731 200.845 201.829 200.556 201.829ZM203.914 201.829C203.634 201.829 203.394 201.731 203.193 201.535C202.997 201.334 202.899 201.087 202.899 200.793C202.899 200.513 202.997 200.273 203.193 200.072C203.394 199.871 203.634 199.771 203.914 199.771C204.203 199.771 204.446 199.871 204.642 200.072C204.843 200.273 204.943 200.513 204.943 200.793C204.943 201.087 204.843 201.334 204.642 201.535C204.446 201.731 204.203 201.829 203.914 201.829ZM207.272 201.829C206.992 201.829 206.752 201.731 206.551 201.535C206.355 201.334 206.257 201.087 206.257 200.793C206.257 200.513 206.355 200.273 206.551 200.072C206.752 199.871 206.992 199.771 207.272 199.771C207.562 199.771 207.804 199.871 208 200.072C208.201 200.273 208.301 200.513 208.301 200.793C208.301 201.087 208.201 201.334 208 201.535C207.804 201.731 207.562 201.829 207.272 201.829Z" fill="white"/>
</g>
</g>
<defs>
<filter id="filter0_d_18_5028" x="0" y="0" width="428" height="271" filterUnits="userSpaceOnUse" color-interpolation-filters="sRGB">
<feFlood flood-opacity="0" result="BackgroundImageFix"/>
<feColorMatrix in="SourceAlpha" type="matrix" values="0 0 0 0 0 0 0 0 0 0 0 0 0 0 0 0 0 0 127 0" result="hardAlpha"/>
<feOffset dx="4" dy="8"/>
<feGaussianBlur stdDeviation="12"/>
<feComposite in2="hardAlpha" operator="out"/>
<feColorMatrix type="matrix" values="0 0 0 0 0.345098 0 0 0 0 0.298039 0 0 0 0 0.956863 0 0 0 0.25 0"/>
<feBlend mode="normal" in2="BackgroundImageFix" result="effect1_dropShadow_18_5028"/>
<feBlend mode="normal" in="SourceGraphic" in2="effect1_dropShadow_18_5028" result="shape"/>
</filter>
<linearGradient id="paint0_linear_18_5028" x1="400" y1="239" x2="5.9998" y2="44.3365" gradientUnits="userSpaceOnUse">
<stop stop-color="#584CF4"/>
<stop offset="1" stop-color="#7369F8"/>
</linearGradient>
<clipPath id="clip0_18_5028">
<rect x="20" y="16" width="380" height="223" rx="44" fill="white"/>
</clipPath>
</defs>
</svg>
