<svg width="340" height="287" viewBox="0 0 340 287" fill="none" xmlns="http://www.w3.org/2000/svg">
<g clip-path="url(#clip0_1451_26824)">
<path d="M304.837 268.314L299.119 273.57L303.663 265.957C300.083 259.474 294.228 253.872 294.228 253.872C294.228 253.872 282.08 265.493 282.08 274.627C282.08 283.762 287.519 286.951 294.228 286.951C300.937 286.951 306.376 283.762 306.376 274.627C306.3 272.44 305.777 270.291 304.837 268.314Z" fill="#F0F0F0"/>
<path d="M297.649 273.854V274.304C297.623 279.538 296.739 283.621 295.004 286.497C294.979 286.539 294.953 286.579 294.928 286.622L294.734 286.503L294.549 286.388C296.473 283.283 297.154 278.894 297.178 274.329C297.181 274.182 297.183 274.032 297.181 273.883C297.174 271.95 297.056 269.996 296.866 268.097C296.853 267.949 296.837 267.8 296.821 267.651C296.558 265.145 296.178 262.751 295.79 260.672C295.763 260.525 295.734 260.378 295.705 260.233C295.033 256.715 294.348 254.168 294.191 253.604C294.174 253.535 294.162 253.497 294.16 253.488L294.372 253.428L294.374 253.425L294.589 253.365C294.591 253.374 294.629 253.501 294.691 253.737C294.93 254.62 295.551 257.016 296.16 260.177C296.187 260.32 296.216 260.467 296.243 260.614C296.56 262.301 296.87 264.187 297.116 266.166C297.178 266.663 297.234 267.154 297.283 267.637C297.301 267.787 297.317 267.936 297.33 268.083C297.536 270.136 297.642 272.06 297.649 273.854Z" fill="white"/>
<path d="M296.16 260.177C296.01 260.198 295.858 260.218 295.704 260.233C295.286 260.276 294.866 260.298 294.445 260.298C292.653 260.3 290.883 259.901 289.266 259.13C289.172 259.248 289.078 259.366 288.982 259.487C290.684 260.316 292.552 260.746 294.445 260.744C294.894 260.744 295.343 260.72 295.789 260.672C295.941 260.657 296.093 260.637 296.242 260.614C297.477 260.438 298.678 260.075 299.803 259.538C299.707 259.415 299.613 259.295 299.522 259.177C298.457 259.674 297.324 260.011 296.16 260.177Z" fill="white"/>
<path d="M297.283 267.638C297.129 267.647 296.975 267.651 296.821 267.651C296.774 267.654 296.725 267.654 296.678 267.654C294.736 267.654 292.823 267.185 291.102 266.287C289.381 265.389 287.902 264.089 286.793 262.498C286.704 262.63 286.614 262.761 286.527 262.895C287.684 264.505 289.207 265.817 290.973 266.722C292.738 267.627 294.694 268.099 296.678 268.099C296.741 268.099 296.803 268.099 296.866 268.097C297.022 268.095 297.176 268.091 297.33 268.084C299.714 267.962 302.012 267.157 303.949 265.766C303.878 265.634 303.806 265.503 303.733 265.371C301.85 266.737 299.608 267.525 297.283 267.638Z" fill="white"/>
<path d="M297.649 273.855C297.493 273.868 297.337 273.877 297.18 273.884C297.013 273.89 296.846 273.895 296.678 273.895C294.069 273.892 291.53 273.045 289.443 271.481C287.356 269.917 285.833 267.721 285.101 265.22C285 265.4 284.9 265.579 284.804 265.759C285.628 268.254 287.22 270.426 289.351 271.967C291.483 273.507 294.047 274.338 296.678 274.341C296.846 274.341 297.013 274.338 297.178 274.33C297.337 274.325 297.493 274.316 297.649 274.305C300.806 274.058 303.75 272.624 305.887 270.291C305.84 270.126 305.786 269.963 305.733 269.798C303.669 272.148 300.77 273.604 297.649 273.855Z" fill="white"/>
<path d="M257.023 70.8624L257.263 66.3053L258.487 71.3715C262.662 72.6273 267.43 72.5791 267.43 72.5791C267.43 72.5791 267.753 62.7068 263.992 58.8663C260.23 55.0258 256.63 55.9174 253.809 58.6715C250.989 61.4255 250.015 64.999 253.777 68.8395C254.709 69.7281 255.814 70.4165 257.023 70.8624Z" fill="#F0F0F0"/>
<path d="M257.765 65.5825L257.579 65.3932C255.435 63.1818 254.126 61.102 253.671 59.1811C253.664 59.1532 253.658 59.1253 253.651 59.0974L253.782 59.0674L253.907 59.04C254.377 61.1354 255.898 63.2602 257.767 65.1895C257.827 65.2523 257.887 65.316 257.95 65.3779C258.748 66.1876 259.603 66.9609 260.465 67.6815C260.531 67.7378 260.599 67.7942 260.667 67.8506C261.81 68.7958 262.955 69.6465 263.975 70.3614C264.046 70.4123 264.119 70.4622 264.191 70.5112C265.922 71.7142 267.259 72.504 267.557 72.677C267.593 72.6987 267.613 72.71 267.618 72.7129L267.553 72.8252V72.8271L267.488 72.9404C267.484 72.9375 267.415 72.8997 267.292 72.826C266.828 72.553 265.58 71.8003 264.022 70.7216C263.952 70.6726 263.88 70.6227 263.808 70.5718C262.98 69.9925 262.073 69.3271 261.155 68.5957C260.924 68.4124 260.698 68.2291 260.478 68.0459C260.409 67.9904 260.341 67.9341 260.275 67.8777C259.343 67.0989 258.507 66.3339 257.765 65.5825Z" fill="white"/>
<path d="M264.022 70.7212C264.077 70.6513 264.132 70.5806 264.191 70.5108C264.349 70.321 264.517 70.1394 264.694 69.9668C265.446 69.2301 266.355 68.6713 267.352 68.3317C267.343 68.2436 267.334 68.1554 267.324 68.0654C266.268 68.4152 265.305 69.0014 264.51 69.7793C264.321 69.9637 264.143 70.1578 263.974 70.361C263.917 70.4299 263.861 70.5006 263.808 70.5714C263.361 71.1526 263.006 71.798 262.754 72.4857C262.845 72.4978 262.934 72.51 263.021 72.5221C263.264 71.8758 263.602 71.269 264.022 70.7212Z" fill="white"/>
<path d="M260.478 68.0461C260.539 67.9792 260.602 67.914 260.667 67.8508C260.686 67.8306 260.706 67.8105 260.726 67.7912C261.542 66.994 262.54 66.4058 263.633 66.0767C264.726 65.7476 265.883 65.6873 267.005 65.901C266.988 65.8091 266.972 65.7171 266.953 65.6251C265.804 65.4228 264.623 65.4967 263.508 65.8408C262.393 66.1849 261.377 66.7892 260.542 67.6038C260.516 67.6295 260.49 67.6551 260.464 67.6817C260.4 67.7468 260.337 67.8119 260.275 67.878C259.323 68.9077 258.688 70.1893 258.446 71.5697C258.53 71.5957 258.615 71.6217 258.7 71.6467C258.929 70.2993 259.547 69.048 260.478 68.0461Z" fill="white"/>
<path d="M257.765 65.5821C257.825 65.5123 257.887 65.4444 257.95 65.3774C258.017 65.3059 258.086 65.2353 258.156 65.1666C259.255 64.0967 260.671 63.4107 262.192 63.2115C263.714 63.0123 265.259 63.3105 266.596 64.0614C266.564 63.9443 266.533 63.8281 266.499 63.7128C265.125 63.0023 263.561 62.7423 262.031 62.9697C260.5 63.197 259.08 63.9001 257.973 64.9791C257.902 65.0479 257.833 65.1175 257.767 65.1891C257.702 65.256 257.64 65.3239 257.579 65.3928C256.354 66.7921 255.706 68.6042 255.769 70.4621C255.856 70.5122 255.946 70.5586 256.036 70.606C255.936 68.7707 256.556 66.9686 257.765 65.5821Z" fill="white"/>
<path d="M83.6159 104.728L83.8558 100.171L85.08 105.237C89.2546 106.493 94.0233 106.444 94.0233 106.444C94.0233 106.444 94.3456 96.572 90.5843 92.7315C86.8229 88.891 83.223 89.7826 80.4022 92.5367C77.5815 95.2907 76.6082 98.8643 80.3695 102.705C81.3019 103.593 82.4068 104.282 83.6159 104.728Z" fill="#F0F0F0"/>
<path d="M84.3564 99.4468L84.171 99.2575C82.0271 97.046 80.7174 94.9663 80.2627 93.0453C80.2555 93.0174 80.2503 92.9896 80.2432 92.9617L80.3735 92.9316L80.4991 92.9043C80.9686 94.9997 82.4895 97.1244 84.3589 99.0538C84.4185 99.1166 84.4791 99.1803 84.5415 99.2421C85.3401 100.052 86.1948 100.825 87.0566 101.546C87.1228 101.602 87.1908 101.658 87.2589 101.715C88.4013 102.66 89.5466 103.511 90.5663 104.226C90.6381 104.277 90.7109 104.326 90.7828 104.375C92.5136 105.578 93.8509 106.368 94.1488 106.541C94.1848 106.563 94.205 106.574 94.2097 106.577L94.1453 106.689V106.691L94.0799 106.805C94.0753 106.802 94.0071 106.764 93.8835 106.69C93.4196 106.417 92.172 105.665 90.6143 104.586C90.5443 104.537 90.4715 104.487 90.3996 104.436C89.5716 103.857 88.6646 103.191 87.7463 102.46C87.5154 102.277 87.29 102.093 87.0702 101.91C87.0012 101.855 86.9331 101.798 86.8669 101.742C85.9352 100.963 85.0983 100.198 84.3564 99.4468Z" fill="white"/>
<path d="M90.6141 104.586C90.6687 104.517 90.7243 104.446 90.7826 104.376C90.9408 104.186 91.1086 104.005 91.2854 103.832C92.0379 103.095 92.9464 102.537 93.9439 102.197C93.9347 102.109 93.9254 102.021 93.9162 101.931C92.8596 102.28 91.8969 102.867 91.1018 103.645C90.9131 103.829 90.7343 104.023 90.5661 104.226C90.5087 104.295 90.4532 104.366 90.3995 104.437C89.9532 105.018 89.5979 105.663 89.3457 106.351C89.4365 106.363 89.5255 106.375 89.6127 106.387C89.8558 105.741 90.1933 105.134 90.6141 104.586Z" fill="white"/>
<path d="M87.0698 101.91C87.1309 101.843 87.1938 101.778 87.2586 101.715C87.2774 101.695 87.298 101.675 87.3177 101.655C88.1342 100.858 89.1316 100.27 90.2249 99.9409C91.3183 99.6118 92.4751 99.5516 93.5968 99.7653C93.5802 99.6733 93.5636 99.5814 93.5451 99.4894C92.3959 99.287 91.215 99.361 90.1001 99.7051C88.9852 100.049 87.9685 100.654 87.1342 101.468C87.1079 101.494 87.0816 101.519 87.0562 101.546C86.9914 101.611 86.9285 101.676 86.8665 101.742C85.9145 102.772 85.2798 104.054 85.0381 105.434C85.1223 105.46 85.2065 105.486 85.2916 105.511C85.5208 104.164 86.1388 102.912 87.0698 101.91Z" fill="white"/>
<path d="M84.3564 99.4473C84.4166 99.3775 84.4786 99.3096 84.5416 99.2427C84.6092 99.1711 84.6778 99.1005 84.7482 99.0318C85.8465 97.9619 87.2624 97.276 88.7839 97.0768C90.3053 96.8775 91.8505 97.1757 93.188 97.9267C93.1559 97.8095 93.1247 97.6933 93.0907 97.578C91.7166 96.8676 90.1532 96.6076 88.6226 96.8349C87.092 97.0622 85.6721 97.7654 84.5646 98.8444C84.4942 98.9131 84.4247 98.9828 84.3589 99.0543C84.2941 99.1213 84.2321 99.1892 84.171 99.258C82.9454 100.657 82.2983 102.469 82.3606 104.327C82.4482 104.377 82.5377 104.424 82.6282 104.471C82.528 102.636 83.1479 100.834 84.3564 99.4473Z" fill="white"/>
<path d="M112.569 46.9092L112.809 42.3522L114.033 47.4184C118.208 48.6742 122.976 48.626 122.976 48.626C122.976 48.626 123.299 38.7536 119.537 34.9131C115.776 31.0726 112.176 31.9643 109.355 34.7184C106.535 37.4724 105.561 41.0459 109.323 44.8864C110.255 45.775 111.36 46.4634 112.569 46.9092Z" fill="#F0F0F0"/>
<path d="M113.31 41.6294L113.125 41.4401C110.981 39.2287 109.671 37.1489 109.217 35.2279C109.21 35.2001 109.204 35.1722 109.197 35.1443L109.328 35.1142L109.453 35.0869C109.923 37.1823 111.444 39.3071 113.313 41.2364C113.373 41.2992 113.433 41.3629 113.496 41.4248C114.294 42.2345 115.149 43.0078 116.011 43.7284C116.077 43.7847 116.145 43.8411 116.213 43.8975C117.355 44.8427 118.501 45.6934 119.52 46.4083C119.592 46.4592 119.665 46.5091 119.737 46.5581C121.468 47.7611 122.805 48.5509 123.103 48.7238C123.139 48.7456 123.159 48.7569 123.164 48.7597L123.099 48.8721V48.874L123.034 48.9872C123.029 48.9844 122.961 48.9466 122.838 48.8729C122.374 48.5998 121.126 47.8472 119.568 46.7685C119.498 46.7195 119.426 46.6695 119.354 46.6187C118.526 46.0394 117.619 45.374 116.7 44.6426C116.469 44.4592 116.244 44.276 116.024 44.0928C115.955 44.0373 115.887 43.9809 115.821 43.9246C114.889 43.1458 114.052 42.3807 113.31 41.6294Z" fill="white"/>
<path d="M119.568 46.768C119.623 46.6982 119.678 46.6274 119.737 46.5577C119.895 46.3679 120.063 46.1863 120.239 46.0136C120.992 45.2769 121.9 44.7182 122.898 44.3786C122.889 44.2905 122.88 44.2023 122.87 44.1123C121.814 44.462 120.851 45.0483 120.056 45.8262C119.867 46.0105 119.688 46.2047 119.52 46.4079C119.463 46.4767 119.407 46.5475 119.354 46.6182C118.907 47.1994 118.552 47.8449 118.3 48.5326C118.391 48.5447 118.48 48.5568 118.567 48.5689C118.81 47.9227 119.147 47.3158 119.568 46.768Z" fill="white"/>
<path d="M116.024 44.093C116.085 44.026 116.148 43.9609 116.213 43.8977C116.231 43.8775 116.252 43.8574 116.272 43.8381C117.088 43.0409 118.086 42.4527 119.179 42.1236C120.272 41.7944 121.429 41.7342 122.551 41.9479C122.534 41.8559 122.518 41.764 122.499 41.672C121.35 41.4696 120.169 41.5436 119.054 41.8877C117.939 42.2318 116.923 42.8361 116.088 43.6507C116.062 43.6763 116.036 43.702 116.01 43.7286C115.946 43.7937 115.883 43.8588 115.821 43.9248C114.869 44.9545 114.234 46.2362 113.992 47.6166C114.076 47.6426 114.161 47.6686 114.246 47.6936C114.475 46.3462 115.093 45.0949 116.024 44.093Z" fill="white"/>
<path d="M113.31 41.6289C113.371 41.5592 113.433 41.4913 113.496 41.4243C113.563 41.3528 113.632 41.2822 113.702 41.2134C114.801 40.1435 116.217 39.4576 117.738 39.2584C119.259 39.0592 120.805 39.3574 122.142 40.1083C122.11 39.9912 122.079 39.875 122.045 39.7596C120.671 39.0492 119.107 38.7892 117.577 39.0165C116.046 39.2439 114.626 39.947 113.519 41.026C113.448 41.0947 113.379 41.1644 113.313 41.236C113.248 41.3029 113.186 41.3708 113.125 41.4396C111.9 42.839 111.252 44.6511 111.315 46.509C111.402 46.5591 111.492 46.6055 111.582 46.6529C111.482 44.8176 112.102 43.0155 113.31 41.6289Z" fill="white"/>
<path d="M46.605 254.252L36.6994 263.358L44.5716 250.169C38.3695 238.94 28.2259 229.234 28.2259 229.234C28.2259 229.234 7.18164 249.365 7.18164 265.189C7.18164 281.013 16.6034 286.539 28.2259 286.539C39.8483 286.539 49.2701 281.013 49.2701 265.189C49.2701 261.667 48.226 257.932 46.605 254.252Z" fill="#F0F0F0"/>
<path d="M34.1521 263.85V264.63C34.1057 273.697 32.5742 280.771 29.5693 285.752C29.5268 285.825 29.4804 285.895 29.4378 285.968L29.1013 285.763L28.7804 285.563C32.114 280.184 33.2936 272.581 33.3361 264.673C33.34 264.418 33.3439 264.159 33.34 263.9C33.3284 260.552 33.1234 257.166 32.7947 253.876C32.7715 253.621 32.7444 253.363 32.7173 253.104C32.261 248.764 31.6035 244.617 30.9306 241.014C30.8842 240.759 30.8339 240.504 30.7837 240.253C29.6196 234.16 28.4323 229.747 28.1616 228.77C28.1307 228.65 28.1113 228.584 28.1074 228.569L28.4748 228.465L28.4787 228.461L28.85 228.356C28.8538 228.372 28.9196 228.592 29.0279 229.001C29.4417 230.53 30.5168 234.681 31.5726 240.157C31.619 240.404 31.6693 240.659 31.7157 240.914C32.2649 243.837 32.8024 247.103 33.2279 250.532C33.3361 251.393 33.4328 252.243 33.5179 253.081C33.5488 253.339 33.5759 253.598 33.5991 253.853C33.9549 257.409 34.1392 260.742 34.1521 263.85Z" fill="white"/>
<path d="M31.5722 240.157C31.3131 240.191 31.0502 240.226 30.7833 240.253C30.0586 240.328 29.3306 240.365 28.6021 240.365C25.4974 240.369 22.4313 239.678 19.6298 238.342C19.4674 238.546 19.305 238.751 19.1387 238.96C22.0858 240.396 25.3226 241.141 28.6021 241.137C29.3798 241.137 30.1569 241.096 30.9303 241.014C31.1933 240.987 31.4562 240.952 31.7153 240.913C33.8542 240.607 35.934 239.978 37.8838 239.048C37.7175 238.836 37.5551 238.628 37.3965 238.423C35.5512 239.284 33.5886 239.868 31.5722 240.157Z" fill="white"/>
<path d="M33.5177 253.081C33.2509 253.096 32.984 253.104 32.7172 253.104C32.636 253.108 32.5509 253.108 32.4697 253.108C29.1056 253.108 25.7913 252.296 22.8095 250.741C19.8277 249.186 17.2667 246.934 15.345 244.177C15.1903 244.405 15.0356 244.632 14.8848 244.864C16.8878 247.654 19.5277 249.926 22.5858 251.494C25.6438 253.062 29.032 253.88 32.4697 253.88C32.578 253.88 32.6863 253.88 32.7945 253.876C33.0652 253.873 33.3321 253.865 33.5989 253.853C37.7282 253.642 41.7091 252.248 45.0657 249.837C44.9419 249.61 44.8182 249.382 44.6905 249.154C41.4283 251.521 37.5454 252.885 33.5177 253.081Z" fill="white"/>
<path d="M34.1513 263.851C33.8806 263.874 33.6099 263.889 33.3391 263.901C33.0491 263.912 32.759 263.92 32.469 263.92C27.9485 263.915 23.5513 262.448 19.9358 259.739C16.3202 257.029 13.6809 253.224 12.4128 248.892C12.2388 249.204 12.0647 249.513 11.8984 249.826C13.3272 254.148 16.0838 257.911 19.7765 260.58C23.4693 263.248 27.9104 264.687 32.469 264.692C32.759 264.692 33.0491 264.688 33.3353 264.673C33.6098 264.665 33.8806 264.65 34.1513 264.631C39.6193 264.203 44.7205 261.718 48.4219 257.676C48.3406 257.39 48.2478 257.109 48.155 256.823C44.5799 260.894 39.5569 263.415 34.1513 263.851Z" fill="white"/>
<path d="M301.018 176.831C315.373 164.29 321.705 148.07 315.162 140.603C308.618 133.137 291.676 137.25 277.321 149.792C262.966 162.333 256.634 178.553 263.178 186.02C269.721 193.486 286.663 189.373 301.018 176.831Z" fill="#E4E4E4"/>
<path d="M88.9086 186.02C95.4523 178.553 89.12 162.333 74.7651 149.792C60.4101 137.25 43.4683 133.137 36.9246 140.603C30.3809 148.07 36.7132 164.29 51.0682 176.831C65.4232 189.373 82.3649 193.487 88.9086 186.02Z" fill="#E4E4E4"/>
<path d="M121.238 286.174C140.313 286.174 155.776 278.131 155.776 268.209C155.776 258.287 140.313 250.244 121.238 250.244C102.163 250.244 86.7002 258.287 86.7002 268.209C86.7002 278.131 102.163 286.174 121.238 286.174Z" fill="#E4E4E4"/>
<path d="M230.848 286.174C249.923 286.174 265.386 278.131 265.386 268.209C265.386 258.287 249.923 250.244 230.848 250.244C211.774 250.244 196.311 258.287 196.311 268.209C196.311 278.131 211.774 286.174 230.848 286.174Z" fill="#E4E4E4"/>
<path d="M176.043 261.395C129.288 261.395 91.25 223.416 91.25 176.734C91.25 130.051 129.288 92.0723 176.043 92.0723C222.798 92.0723 260.836 130.051 260.836 176.734C260.836 223.416 222.798 261.395 176.043 261.395ZM176.043 92.8982C129.744 92.8982 92.0773 130.507 92.0773 176.734C92.0773 222.961 129.744 260.569 176.043 260.569C222.342 260.569 260.009 222.961 260.009 176.734C260.009 130.507 222.342 92.8982 176.043 92.8982Z" fill="#BDBDBD"/>
<path d="M155.373 233.123C138.267 227.246 123.881 215.367 114.89 199.694C105.898 184.02 102.914 165.62 106.491 147.915C101.745 157.409 99.0852 167.806 98.6887 178.41C98.2922 189.013 100.168 199.579 104.192 209.4C108.216 219.221 114.294 228.071 122.019 235.357C129.745 242.644 138.94 248.199 148.99 251.65C159.039 255.102 169.711 256.371 180.291 255.372C190.872 254.373 201.116 251.13 210.34 245.858C219.563 240.587 227.553 233.41 233.774 224.807C239.994 216.204 244.303 206.373 246.412 195.973C238.323 212.129 224.632 224.802 207.887 231.635C191.141 238.468 172.48 238.997 155.373 233.123Z" fill="#F0F0F0"/>
<path d="M151.07 169.987C146.777 169.987 143.285 165.45 143.285 159.873C143.285 154.296 146.777 149.759 151.07 149.759C155.362 149.759 158.854 154.296 158.854 159.873C158.854 165.45 155.362 169.987 151.07 169.987Z" fill="#3F3D56"/>
<path d="M198.223 169.987C193.931 169.987 190.438 165.45 190.438 159.873C190.438 154.296 193.931 149.759 198.223 149.759C202.515 149.759 206.007 154.296 206.007 159.873C206.007 165.45 202.515 169.987 198.223 169.987Z" fill="#3F3D56"/>
<path d="M170.666 14.844C174.778 14.844 178.111 12.4403 178.111 9.47522C178.111 6.51013 174.778 4.10645 170.666 4.10645C166.554 4.10645 163.221 6.51013 163.221 9.47522C163.221 12.4403 166.554 14.844 170.666 14.844Z" fill="#2F2E41"/>
<path d="M170.666 6.56183C173.179 6.56183 175.216 5.09292 175.216 3.28092C175.216 1.46892 173.179 0 170.666 0C168.153 0 166.116 1.46892 166.116 3.28092C166.116 5.09292 168.153 6.56183 170.666 6.56183Z" fill="#2F2E41"/>
<path d="M165.312 11.6207C162.751 9.06367 161.94 5.61608 163.218 3.39746C162.914 3.57019 162.635 3.78226 162.387 4.02814C160.287 6.12477 160.942 10.1779 163.85 13.0808C166.757 15.984 170.816 16.6376 172.916 14.541C173.163 14.2935 173.375 14.0146 173.548 13.7115C171.326 14.987 167.873 14.1778 165.312 11.6207Z" fill="#2F2E41"/>
<path d="M94.0271 144.508L91.4121 140.17L106.926 128.034L110.785 134.436L94.0271 144.508Z" fill="#FFB6B6"/>
<path d="M90.4831 148.145L82.0508 134.158L82.228 134.052C83.6741 133.183 85.4067 132.923 87.0448 133.329C88.6828 133.736 90.0921 134.775 90.9627 136.219L90.9629 136.219L96.1131 144.762L90.4831 148.145Z" fill="#2F2E41"/>
<path d="M257.461 138.725L260.076 134.387L244.563 122.252L240.703 128.654L257.461 138.725Z" fill="#FFB6B6"/>
<path d="M255.375 138.98L260.525 130.437L260.525 130.436C261.396 128.993 262.805 127.953 264.443 127.547C266.081 127.141 267.814 127.4 269.26 128.27L269.437 128.376L261.005 142.363L255.375 138.98Z" fill="#2F2E41"/>
<path d="M156.073 80.835L155.086 84.7732L128.436 106.074L99.7549 132.836L102.831 139.978L171.194 94.2945L248.265 134.183L251.708 126.309L216.538 102.771L187.452 82.7442L156.073 80.835Z" fill="#2F2E41"/>
<path d="M165.047 38.7002L153.528 42.4736L155.085 84.3669C155.085 84.3669 175.118 96.3759 187.452 82.7442V40.842L180.574 38.7002H165.047Z" fill="url(#paint0_linear_1451_26824)"/>
<path d="M184.896 43.7221L187.452 40.8418C187.452 40.8418 194.561 43.4343 193.968 51.2143C193.375 58.9943 189.198 83.739 189.198 83.739L188.412 99.8796H180.991L183.949 58.138L184.896 43.7221Z" fill="url(#paint1_linear_1451_26824)"/>
<path d="M156.769 44.9603L154.213 42.0801C154.213 42.0801 147.104 44.6726 147.697 52.4525C148.29 60.2325 152.468 84.9773 152.468 84.9773L153.253 101.118H160.674L157.717 59.3763L156.769 44.9603Z" fill="url(#paint2_linear_1451_26824)"/>
<path d="M157.017 107.765C159.53 107.765 161.567 105.731 161.567 103.222C161.567 100.714 159.53 98.6797 157.017 98.6797C154.504 98.6797 152.467 100.714 152.467 103.222C152.467 105.731 154.504 107.765 157.017 107.765Z" fill="#FFB6B6"/>
<path d="M184.73 107.765C187.242 107.765 189.279 105.731 189.279 103.222C189.279 100.714 187.242 98.6797 184.73 98.6797C182.217 98.6797 180.18 100.714 180.18 103.222C180.18 105.731 182.217 107.765 184.73 107.765Z" fill="#FFB6B6"/>
<path d="M170.474 35.2602C177.433 35.2602 183.075 29.6274 183.075 22.6789C183.075 15.7305 177.433 10.0977 170.474 10.0977C163.515 10.0977 157.873 15.7305 157.873 22.6789C157.873 29.6274 163.515 35.2602 170.474 35.2602Z" fill="#2F2E41"/>
<path d="M170.853 35.6752C176.464 35.6752 181.012 31.1339 181.012 25.5319C181.012 19.93 176.464 15.3887 170.853 15.3887C165.243 15.3887 160.694 19.93 160.694 25.5319C160.694 31.1339 165.243 35.6752 170.853 35.6752Z" fill="#FFB6B6"/>
<path d="M160.179 19.1514C162.5 20.749 165.256 21.5992 168.075 21.5879C167.069 22.2842 165.924 22.7545 164.719 22.9665C168.468 23.7693 172.342 23.7911 176.1 23.0303C176.935 22.8966 177.741 22.6202 178.482 22.2134C178.851 22.0074 179.173 21.7261 179.427 21.3878C179.68 21.0495 179.859 20.6617 179.953 20.2497C180.202 18.8256 179.091 17.5317 177.936 16.6597C176.167 15.3449 174.128 14.4391 171.966 14.0077C169.804 13.5763 167.573 13.6302 165.434 14.1654C164.038 14.5258 162.639 15.1347 161.731 16.2545C160.824 17.3743 160.556 19.1006 161.42 20.2536L160.179 19.1514Z" fill="#2F2E41"/>
<path d="M339.586 287H0.413625C0.303925 287 0.198718 286.956 0.121148 286.879C0.0435779 286.801 0 286.696 0 286.587C0 286.477 0.0435779 286.372 0.121148 286.295C0.198718 286.217 0.303925 286.174 0.413625 286.174H339.586C339.696 286.174 339.801 286.217 339.879 286.295C339.956 286.372 340 286.477 340 286.587C340 286.696 339.956 286.801 339.879 286.879C339.801 286.956 339.696 287 339.586 287Z" fill="#BDBDBD"/>
<path d="M163.221 209.772C163.221 212.839 164.441 215.781 166.613 217.949C168.785 220.118 171.731 221.336 174.802 221.336C177.874 221.336 180.82 220.118 182.992 217.949C185.164 215.781 186.384 212.839 186.384 209.772H163.221Z" fill="#3F3D56"/>
<path d="M217.456 195.318C222.939 195.318 227.383 190.881 227.383 185.407C227.383 179.933 222.939 175.495 217.456 175.495C211.974 175.495 207.529 179.933 207.529 185.407C207.529 190.881 211.974 195.318 217.456 195.318Z" fill="#F0F0F0"/>
<path d="M131.836 195.318C137.319 195.318 141.763 190.881 141.763 185.407C141.763 179.933 137.319 175.495 131.836 175.495C126.354 175.495 121.909 179.933 121.909 185.407C121.909 190.881 126.354 195.318 131.836 195.318Z" fill="#F0F0F0"/>
</g>
<defs>
<linearGradient id="paint0_linear_1451_26824" x1="187.452" y1="89.2541" x2="145.289" y2="81.0507" gradientUnits="userSpaceOnUse">
<stop stop-color="#584CF4"/>
<stop offset="1" stop-color="#7369F8"/>
</linearGradient>
<linearGradient id="paint1_linear_1451_26824" x1="194.003" y1="99.8796" x2="177.287" y2="98.8113" gradientUnits="userSpaceOnUse">
<stop stop-color="#584CF4"/>
<stop offset="1" stop-color="#7369F8"/>
</linearGradient>
<linearGradient id="paint2_linear_1451_26824" x1="160.674" y1="101.118" x2="143.958" y2="100.05" gradientUnits="userSpaceOnUse">
<stop stop-color="#584CF4"/>
<stop offset="1" stop-color="#7369F8"/>
</linearGradient>
<clipPath id="clip0_1451_26824">
<rect width="340" height="287" fill="white"/>
</clipPath>
</defs>
</svg>
