<svg width="186" height="180" viewBox="0 0 186 180" fill="none" xmlns="http://www.w3.org/2000/svg">
<circle cx="95.4668" cy="90.5" r="70.5" fill="url(#paint0_linear_2069_9571)"/>
<circle cx="178.434" cy="27.5" r="7.5" fill="url(#paint1_linear_2069_9571)"/>
<circle cx="20" cy="10" r="10" fill="url(#paint2_linear_2069_9571)"/>
<circle cx="10" cy="133" r="5" fill="url(#paint3_linear_2069_9571)"/>
<circle cx="165.5" cy="160.5" r="2.5" fill="url(#paint4_linear_2069_9571)"/>
<path fill-rule="evenodd" clip-rule="evenodd" d="M84.8216 65.9153H106.135C114.469 65.9153 120.049 71.7661 120.049 80.4686V100.556C120.049 109.234 114.469 115.082 106.135 115.082H84.8216C76.4878 115.082 70.8828 109.234 70.8828 100.556V80.4686C70.8828 71.7661 76.4878 65.9153 84.8216 65.9153ZM102.865 97.8733C103.701 97.04 103.701 95.6879 102.865 94.852L98.4891 90.4762L102.865 86.0979C103.701 85.2645 103.701 83.8879 102.865 83.052C102.029 82.2137 100.677 82.2137 99.8166 83.052L95.4653 87.4254L91.0895 83.052C90.2291 82.2137 88.877 82.2137 88.0412 83.052C87.2053 83.8879 87.2053 85.2645 88.0412 86.0979L92.417 90.4762L88.0412 94.8275C87.2053 95.6879 87.2053 97.04 88.0412 97.8733C88.4591 98.2912 89.0245 98.515 89.5653 98.515C90.1308 98.515 90.6716 98.2912 91.0895 97.8733L95.4653 93.5245L99.8412 97.8733C100.259 98.3183 100.8 98.515 101.341 98.515C101.906 98.515 102.447 98.2912 102.865 97.8733Z" fill="white"/>
<circle cx="106.5" cy="4.5" r="2.5" fill="url(#paint5_linear_2069_9571)"/>
<circle cx="62.5" cy="176.5" r="3.5" fill="url(#paint6_linear_2069_9571)"/>
<circle cx="122" cy="171" r="1" fill="url(#paint7_linear_2069_9571)"/>
<circle cx="170.5" cy="110.5" r="2.5" fill="url(#paint8_linear_2069_9571)"/>
<circle cx="1" cy="75" r="1" fill="url(#paint9_linear_2069_9571)"/>
<defs>
<linearGradient id="paint0_linear_2069_9571" x1="165.967" y1="161" x2="-1.81054" y2="112.355" gradientUnits="userSpaceOnUse">
<stop stop-color="#FF4D67"/>
<stop offset="1" stop-color="#FF8A9B"/>
</linearGradient>
<linearGradient id="paint1_linear_2069_9571" x1="185.934" y1="35" x2="168.085" y2="29.8249" gradientUnits="userSpaceOnUse">
<stop stop-color="#FF4D67"/>
<stop offset="1" stop-color="#FF8A9B"/>
</linearGradient>
<linearGradient id="paint2_linear_2069_9571" x1="30" y1="20" x2="6.2018" y2="13.0999" gradientUnits="userSpaceOnUse">
<stop stop-color="#FF4D67"/>
<stop offset="1" stop-color="#FF8A9B"/>
</linearGradient>
<linearGradient id="paint3_linear_2069_9571" x1="15" y1="138" x2="3.1009" y2="134.55" gradientUnits="userSpaceOnUse">
<stop stop-color="#FF4D67"/>
<stop offset="1" stop-color="#FF8A9B"/>
</linearGradient>
<linearGradient id="paint4_linear_2069_9571" x1="168" y1="163" x2="162.05" y2="161.275" gradientUnits="userSpaceOnUse">
<stop stop-color="#FF4D67"/>
<stop offset="1" stop-color="#FF8A9B"/>
</linearGradient>
<linearGradient id="paint5_linear_2069_9571" x1="109" y1="7" x2="103.05" y2="5.27498" gradientUnits="userSpaceOnUse">
<stop stop-color="#FF4D67"/>
<stop offset="1" stop-color="#FF8A9B"/>
</linearGradient>
<linearGradient id="paint6_linear_2069_9571" x1="66" y1="180" x2="57.6706" y2="177.585" gradientUnits="userSpaceOnUse">
<stop stop-color="#FF4D67"/>
<stop offset="1" stop-color="#FF8A9B"/>
</linearGradient>
<linearGradient id="paint7_linear_2069_9571" x1="123" y1="172" x2="120.62" y2="171.31" gradientUnits="userSpaceOnUse">
<stop stop-color="#FF4D67"/>
<stop offset="1" stop-color="#FF8A9B"/>
</linearGradient>
<linearGradient id="paint8_linear_2069_9571" x1="173" y1="113" x2="167.05" y2="111.275" gradientUnits="userSpaceOnUse">
<stop stop-color="#FF4D67"/>
<stop offset="1" stop-color="#FF8A9B"/>
</linearGradient>
<linearGradient id="paint9_linear_2069_9571" x1="2" y1="76" x2="-0.37982" y2="75.31" gradientUnits="userSpaceOnUse">
<stop stop-color="#FF4D67"/>
<stop offset="1" stop-color="#FF8A9B"/>
</linearGradient>
</defs>
</svg>
