<svg width="298" height="259" viewBox="0 0 298 259" fill="none" xmlns="http://www.w3.org/2000/svg">
<g clip-path="url(#clip0_7_9583)">
<path d="M297.5 198.083H0.5V198.214H297.5V198.083Z" fill="#EBEBEB"/>
<path d="M267.741 206.418H248.067V206.548H267.741V206.418Z" fill="#EBEBEB"/>
<path d="M197.245 207.827H192.083V207.957H197.245V207.827Z" fill="#EBEBEB"/>
<path d="M247.473 201.611H236.074V201.741H247.473V201.611Z" fill="#EBEBEB"/>
<path d="M57.316 202.481H31.6611V202.612H57.316V202.481Z" fill="#EBEBEB"/>
<path d="M66.3687 202.481H62.6086V202.612H66.3687V202.481Z" fill="#EBEBEB"/>
<path d="M134.239 204.667H78.5933V204.798H134.239V204.667Z" fill="#EBEBEB"/>
<path d="M141.278 174.98H26.5826C25.6841 174.979 24.8229 174.667 24.1881 174.112C23.5533 173.558 23.1968 172.806 23.1968 172.023V31.4219C23.2046 30.6428 23.5646 29.8979 24.1985 29.349C24.8325 28.8 25.6892 28.4913 26.5826 28.49H141.278C142.178 28.49 143.04 28.8016 143.676 29.3563C144.312 29.911 144.67 30.6633 144.67 31.4478V172.023C144.67 172.807 144.312 173.559 143.676 174.114C143.04 174.669 142.178 174.98 141.278 174.98ZM26.5826 28.5936C25.7234 28.595 24.9 28.8936 24.2931 29.4238C23.6862 29.9541 23.3453 30.6727 23.3453 31.4219V172.023C23.3453 172.772 23.6862 173.49 24.2931 174.021C24.9 174.551 25.7234 174.85 26.5826 174.851H141.278C142.138 174.85 142.962 174.551 143.57 174.021C144.178 173.491 144.52 172.772 144.521 172.023V31.4219C144.52 30.6722 144.178 29.9536 143.57 29.4235C142.962 28.8934 142.138 28.595 141.278 28.5936H26.5826Z" fill="#EBEBEB"/>
<path d="M269.766 174.98H155.065C154.166 174.979 153.304 174.667 152.668 174.113C152.033 173.558 151.675 172.807 151.673 172.023V31.4219C151.682 30.6424 152.044 29.8975 152.679 29.3486C153.314 28.7998 154.171 28.4913 155.065 28.49H269.766C270.659 28.4927 271.514 28.802 272.146 29.3508C272.779 29.8996 273.138 30.6437 273.146 31.4219V172.023C273.146 172.805 272.79 173.556 272.157 174.11C271.523 174.665 270.664 174.978 269.766 174.98ZM155.065 28.5936C154.205 28.595 153.381 28.8934 152.773 29.4235C152.165 29.9536 151.823 30.6722 151.822 31.4219V172.023C151.823 172.772 152.165 173.491 152.773 174.021C153.381 174.551 154.205 174.85 155.065 174.851H269.766C270.626 174.85 271.45 174.551 272.058 174.021C272.666 173.491 273.008 172.772 273.009 172.023V31.4219C273.008 30.6722 272.666 29.9536 272.058 29.4235C271.45 28.8934 270.626 28.595 269.766 28.5936H155.065Z" fill="#EBEBEB"/>
<path d="M45.4421 150.526H87.7349C88.7116 150.526 89.6786 150.693 90.5809 151.019C91.4832 151.345 92.303 151.823 92.9936 152.425C93.6842 153.027 94.232 153.742 94.6057 154.529C94.9795 155.316 95.1718 156.159 95.1718 157.011V190.163C95.1718 191.883 94.3883 193.533 92.9936 194.749C91.5989 195.965 89.7073 196.648 87.7349 196.648H45.4421V150.546V150.526Z" fill="#F0F0F0"/>
<path d="M45.7926 150.526H45.0917C40.9844 150.526 37.6548 153.429 37.6548 157.011V190.142C37.6548 193.724 40.9844 196.628 45.0917 196.628H45.7926C49.8999 196.628 53.2295 193.724 53.2295 190.142V157.011C53.2295 153.429 49.8999 150.526 45.7926 150.526Z" fill="#F5F5F5"/>
<path d="M51.1028 196.628H106.303V167.532H51.1028L51.1028 196.628Z" fill="#F0F0F0"/>
<path d="M46.5707 198.083H146.06C146.464 198.082 146.85 197.941 147.135 197.691C147.42 197.442 147.58 197.104 147.58 196.752V196.628H87.7586L45.05 196.752C45.05 197.104 45.2101 197.442 45.4951 197.691C45.7801 197.941 46.1668 198.082 46.5707 198.083Z" fill="#E0E0E0"/>
<path d="M90.1466 131.401H141.504C142.832 131.379 144.151 131.605 145.371 132.063C146.592 132.52 147.686 133.2 148.582 134.056C149.477 134.912 150.153 135.925 150.564 137.026C150.976 138.128 151.113 139.294 150.966 140.445L147.58 174.115H75.4807L78.8606 140.445C79.1478 137.995 80.455 135.721 82.5347 134.055C84.6144 132.388 87.3225 131.444 90.1466 131.401Z" fill="#E0E0E0"/>
<path d="M82.0324 131.401H134.393C135.657 131.383 136.911 131.599 138.071 132.036C139.231 132.473 140.272 133.12 141.124 133.934C141.975 134.748 142.619 135.711 143.011 136.759C143.403 137.806 143.535 138.915 143.399 140.01L139.971 174.11H67.8655L71.2929 140.01C71.5656 137.678 72.8092 135.514 74.7883 133.928C76.7673 132.341 79.3446 131.442 82.0324 131.401Z" fill="#F5F5F5"/>
<path d="M55.5283 164.874H99.2526C100.494 164.874 101.685 165.304 102.562 166.07C103.44 166.835 103.933 167.873 103.933 168.956V172.639C103.934 173.175 103.814 173.707 103.579 174.203C103.344 174.698 102.999 175.149 102.564 175.529C102.13 175.908 101.613 176.209 101.045 176.415C100.477 176.62 99.8678 176.726 99.2526 176.726H55.5283C53.726 176.726 51.9976 176.102 50.7232 174.99C49.4488 173.879 48.7329 172.372 48.7329 170.8C48.7329 169.228 49.4488 167.721 50.7232 166.61C51.9976 165.499 53.726 164.874 55.5283 164.874Z" fill="#E0E0E0"/>
<path d="M106.547 150.526H148.84C150.812 150.526 152.704 151.209 154.098 152.425C155.493 153.641 156.277 155.291 156.277 157.011V190.163C156.277 191.883 155.493 193.533 154.098 194.749C152.704 195.965 150.812 196.648 148.84 196.648H106.547V150.546V150.526Z" fill="#F0F0F0"/>
<path d="M106.897 150.526H106.196C102.089 150.526 98.7595 153.429 98.7595 157.011V190.142C98.7595 193.724 102.089 196.628 106.196 196.628H106.897C111.005 196.628 114.334 193.724 114.334 190.142V157.011C114.334 153.429 111.005 150.526 106.897 150.526Z" fill="#F5F5F5"/>
<path d="M223.256 125.185H182.597V198.083H223.256V125.185Z" fill="#F0F0F0"/>
<path d="M188.679 192.406V130.862H187.741V192.406H188.679Z" fill="#E6E6E6"/>
<path d="M217.263 130.862H187.741V131.898H217.263V130.862Z" fill="#E6E6E6"/>
<path d="M264.854 125.185H224.194V198.083H264.854V125.185Z" fill="#F0F0F0"/>
<path d="M264.86 198.083H270.241V125.185H264.86V198.083Z" fill="#E0E0E0"/>
<path d="M230.277 192.406V130.862H229.339V192.406H230.277Z" fill="#E6E6E6"/>
<path d="M224.2 198.083V126.014H223.262V198.083H224.2Z" fill="#E6E6E6"/>
<path d="M258.86 130.862H229.338V131.898H258.86V130.862Z" fill="#E6E6E6"/>
<path d="M221.474 141.31H219.454V157.42H221.474V141.31Z" fill="#E0E0E0"/>
<path d="M227.996 141.31H225.977V157.42H227.996V141.31Z" fill="#E0E0E0"/>
<path d="M253.609 49.1686H46.2915V113.654H253.609V49.1686Z" fill="#E0E0E0"/>
<path d="M251.709 49.1686H44.3906V113.654H251.709V49.1686Z" fill="#F0F0F0"/>
<path d="M245.489 108.231V54.592L50.6097 54.592V108.231H245.489Z" fill="#FAFAFA"/>
<path d="M82.2463 108.231L95.1599 54.592H123.666L110.752 108.231H82.2463Z" fill="white"/>
<path d="M122.781 108.231L135.694 54.592H149.95L137.031 108.231H122.781Z" fill="white"/>
<path d="M209.814 108.231L222.727 54.592H236.983L224.064 108.231H209.814Z" fill="white"/>
<path d="M149 221.476C212.607 221.476 264.171 218.851 264.171 215.612C264.171 212.374 212.607 209.749 149 209.749C85.393 209.749 33.8293 212.374 33.8293 215.612C33.8293 218.851 85.393 221.476 149 221.476Z" fill="#F5F5F5"/>
<path d="M99.104 59.9015C100.601 56.9127 87.3428 54.2035 83.3333 63.4136C79.698 71.7689 73.663 73.9031 76.5023 79.6891C79.5733 85.9517 96.9478 86.7028 104.492 79.7616C110.61 74.131 103.969 71.7585 104.824 66.4646C105.68 61.1706 103.886 59.4457 99.104 59.9015Z" fill="#263238"/>
<path d="M74.952 77.8347C74.2629 74.5713 75.6529 73.2245 77.4111 71.5203C79.7872 69.4178 81.4148 66.7606 82.0978 63.8694C82.4519 62.2905 83.3572 60.8457 84.6896 59.7329C86.0221 58.6201 87.7164 57.8938 89.5406 57.6534C93.461 57.0214 97.6131 58.1403 98.712 59.5596C98.887 59.7596 98.9866 60.0019 98.9973 60.2533C99.0079 60.5047 98.929 60.7528 98.7714 60.9634L98.2724 60.6837C98.3685 60.5585 98.4153 60.4094 98.4056 60.2589C98.396 60.1085 98.3304 59.9648 98.2189 59.8497C97.2448 58.5858 93.2887 57.5757 89.6535 58.1662C87.0577 58.5858 83.7135 59.9326 82.6799 63.9834C81.9761 66.9611 80.2988 69.6975 77.8507 71.8621C76.14 73.5197 74.8807 74.7215 75.54 77.7363L74.952 77.8347Z" fill="#263238"/>
<path d="M66.7845 75.3535L66.4162 74.3175C66.162 73.6135 65.7013 72.9796 65.0797 72.4786L63.8917 71.5358C63.516 71.2328 63.0306 71.054 62.5197 71.0304C62.0087 71.0067 61.5043 71.1397 61.094 71.4063L59.8228 72.2351C59.5905 72.3865 59.3949 72.5767 59.2475 72.7945C59.1 73.0123 59.0036 73.2535 58.9638 73.504C58.924 73.7546 58.9417 74.0095 59.0157 74.2541C59.0898 74.4986 59.2187 74.7279 59.3951 74.9287L60.2148 75.8611C60.2148 75.8611 62.1394 78.6998 64.9253 79.684L65.5668 79.2074C66.1805 78.7398 66.6232 78.1252 66.8397 77.44C67.0562 76.7548 67.037 76.0292 66.7845 75.3535Z" fill="#FFC3BD"/>
<path d="M89.8732 93.3384L89.4931 93.5922L89.1842 93.7891L88.5902 94.1517C88.1922 94.3796 87.7883 94.592 87.4022 94.7992C86.5939 95.2043 85.7611 95.5709 84.9074 95.8974C83.1517 96.5726 81.3058 97.0529 79.4129 97.327C77.4142 97.6199 75.3744 97.6304 73.3719 97.3581C72.3471 97.2176 71.3405 96.9903 70.3662 96.6795C70.1227 96.6122 69.8792 96.5241 69.6416 96.4361L69.2852 96.3066L69.107 96.2392L68.9109 96.1667L68.6615 96.0631C68.143 95.8315 67.665 95.5367 67.2418 95.1877C66.9376 94.9408 66.6574 94.6722 66.4043 94.3848C65.7322 93.5901 65.1886 92.7186 64.7886 91.7948C64.4322 91.0282 64.1589 90.2926 63.9154 89.5726C63.4723 88.1793 63.1134 86.7666 62.8403 85.3405C62.2977 82.5844 61.9939 79.7966 61.9314 77.0007C61.8579 76.4773 62.016 75.9492 62.3735 75.5239C62.731 75.0986 63.2609 74.8082 63.8554 74.7118C64.4498 74.6154 65.0641 74.7202 65.573 75.005C66.0819 75.2897 66.4471 75.733 66.5943 76.2444V76.3014C67.6279 78.7826 68.6199 81.326 69.6653 83.7399C70.2059 84.9417 70.7286 86.1382 71.3226 87.226C71.6077 87.7699 71.9166 88.2879 72.2076 88.7386C72.4058 89.0688 72.6602 89.3709 72.962 89.6347C72.962 89.6347 72.962 89.6347 72.9204 89.5622C72.7836 89.4384 72.6228 89.3367 72.4452 89.2618L72.3324 89.21C72.2967 89.21 72.2255 89.1737 72.267 89.1841H72.3621L72.5462 89.2255C72.6688 89.2587 72.7938 89.2847 72.9204 89.3032C73.4219 89.3904 73.9303 89.4441 74.4411 89.4638C75.5105 89.4923 76.5795 89.3948 77.619 89.1737C78.7597 88.9228 79.8698 88.5759 80.9335 88.1377C81.4859 87.9201 82.0324 87.6663 82.567 87.4125C82.8343 87.283 83.0957 87.1432 83.3451 87.0085L83.9391 86.677L84.4025 86.4231C85.4462 85.8445 86.7064 85.641 87.9185 85.8555C89.1306 86.0699 90.2003 86.6856 90.9029 87.5732C91.6056 88.4608 91.8865 89.5512 91.6867 90.6156C91.487 91.68 90.8221 92.6355 89.8316 93.2815L89.8732 93.3384Z" fill="#FFC3BD"/>
<path d="M100.292 213.354C104.052 212.271 107.218 210.054 106.583 206.164C106.303 204.496 112.439 203.843 112.439 203.843C111.744 209.142 112.505 210.059 113.235 211.256C113.966 212.453 113.924 213.918 112.641 214.048C111.121 214.209 110.782 214.048 108.893 214.281C106.684 214.535 105.252 215.54 100.839 215.54C98.4566 215.54 99.1041 213.696 100.292 213.354Z" fill="#584CF4"/>
<path d="M111.727 156.752C112.16 130.21 109.351 115.742 109.351 115.742L86.832 116.721C86.832 116.721 90.1644 141.005 96.0806 158.891C97.6607 168.49 101.219 184.724 103.684 195.628C107.342 195.355 110.958 194.758 114.477 193.846C115.338 184.268 115.493 170.422 111.727 156.752Z" fill="#584CF4"/>
<path d="M112.214 206.444C112.214 206.444 113.093 201.429 113.687 193.846C110.698 194.753 107.598 195.351 104.45 195.628C105.733 202.248 106.648 206.464 106.648 206.464C108.448 207.029 110.419 207.022 112.214 206.444Z" fill="#FFC3BD"/>
<path d="M102.454 192.453C102.65 193.364 103.197 195.649 103.737 196.452C103.769 196.498 103.812 196.537 103.863 196.567C103.915 196.597 103.973 196.616 104.034 196.622C108.234 197.083 112.428 196.348 114.132 195.685C114.18 195.668 114.223 195.643 114.259 195.611C114.295 195.579 114.322 195.54 114.34 195.498C114.815 194.4 114.988 192.09 115.041 191.116C115.044 191.063 115.033 191.011 115.009 190.962C114.986 190.914 114.949 190.871 114.904 190.836C114.858 190.802 114.804 190.777 114.745 190.763C114.687 190.75 114.625 190.748 114.566 190.759C110.674 191.388 106.743 191.817 102.793 192.043C102.739 192.049 102.687 192.064 102.64 192.088C102.593 192.112 102.552 192.144 102.52 192.183C102.488 192.221 102.466 192.265 102.455 192.312C102.443 192.358 102.443 192.406 102.454 192.453Z" fill="#263238"/>
<path d="M87.1289 85.5114C83.7906 86.0294 78.7001 88.4899 78.7001 88.4899C78.7001 88.4899 76.0211 94.0843 79.2287 98.1144C82.3888 98.7671 83.9807 98.2335 83.9807 98.2335L87.1289 85.5114Z" fill="#263238"/>
<path opacity="0.2" d="M79.2288 98.1144C82.3888 98.7671 83.9808 98.2335 83.9808 98.2335L83.8679 90.6863C81.7236 93.2038 79.9356 95.7005 79.2288 98.1144Z" fill="black"/>
<path opacity="0.2" d="M111.608 141.093C109.089 135.721 106.381 131.297 105.341 127.257C103.559 138.244 104.961 148.35 111.738 155.592C111.816 150.246 111.75 145.408 111.608 141.093Z" fill="black"/>
<path d="M146.03 183.217L137.043 188.79C129.707 180.456 118.706 167.723 116.045 162.181C109.285 148.117 95.6946 117.115 95.6946 117.115L113.336 113.54C113.336 113.54 124.468 122.554 131.649 156.565C137.661 164.014 142.722 174.975 146.03 183.217Z" fill="#584CF4"/>
<path d="M145.513 209.635C147.753 205.817 147.782 201.611 145.365 198.296C144.325 196.876 149.606 194.074 149.606 194.074C151.471 199.155 152.992 199.451 154.287 200.238C155.582 201.025 155.712 202.719 154.619 203.294C153.427 203.906 152.411 204.747 151.649 205.755C150.295 207.309 149.535 209.443 147.592 210.774C146.351 211.619 144.527 211.308 145.513 209.635Z" fill="#584CF4"/>
<path d="M150.586 196.405C150.586 196.405 149.036 191.65 145.994 184.527C143.698 186.424 141.156 188.083 138.421 189.469C142.716 195.043 145.858 199.047 145.858 199.047C147.684 198.564 149.32 197.65 150.586 196.405Z" fill="#FFC3BD"/>
<path d="M135.1 187.293C135.694 188.05 137.286 189.94 138.16 190.474C138.211 190.505 138.269 190.526 138.331 190.535C138.393 190.544 138.456 190.541 138.516 190.526C142.555 189.438 146.03 187.257 147.301 186.029C147.337 185.996 147.364 185.957 147.38 185.914C147.397 185.871 147.402 185.826 147.396 185.781C147.313 184.615 146.375 182.445 145.965 181.538C145.942 181.49 145.908 181.447 145.864 181.412C145.82 181.377 145.767 181.351 145.71 181.337C145.653 181.322 145.593 181.318 145.534 181.326C145.476 181.334 145.42 181.354 145.371 181.383C142.129 183.355 138.757 185.159 135.273 186.786C135.22 186.806 135.173 186.836 135.135 186.874C135.096 186.912 135.068 186.956 135.052 187.005C135.035 187.053 135.031 187.104 135.04 187.154C135.048 187.203 135.069 187.251 135.1 187.293Z" fill="#263238"/>
<path d="M82.0325 93.24C82.8404 97.8243 79.71 101.378 84.5274 103.491C83.7255 106.977 84.9135 113.939 86.8202 116.7C89.4991 117.969 102.603 116.094 113.313 113.535C113.158 109.547 109.398 101.699 110.444 88.635C110.5 87.9203 110.383 87.2034 110.101 86.5305C109.82 85.8577 109.379 85.244 108.808 84.7292C108.236 84.2144 107.547 83.8101 106.786 83.5424C106.024 83.2747 105.206 83.1496 104.385 83.1753C103.458 83.1753 102.472 83.253 101.474 83.3307C97.9657 83.5271 94.4779 83.9425 91.0376 84.5739C89.9268 84.8018 88.7804 85.0608 87.6934 85.3301C85.8037 85.8166 84.1841 86.8903 83.141 88.3479C82.0978 89.8055 81.7035 91.546 82.0325 93.24Z" fill="#263238"/>
<path d="M89.6001 89.7539C89.6001 89.7539 92.9562 88.6868 94.7144 91.3079C97.6429 89.873 101.759 83.8072 101.468 83.3462C96.5677 84.5221 89.6001 89.7539 89.6001 89.7539Z" fill="white"/>
<path d="M89.6 89.7539C89.6 89.7539 87.0517 89.4897 86.333 91.4581C86.333 87.5731 89.3387 85.1281 90.6514 84.6723C90.194 85.6876 89.6 89.7539 89.6 89.7539Z" fill="white"/>
<path d="M100.185 73.0639C99.8108 76.0942 99.7514 80.9634 101.474 83.3514C101.474 83.3514 94.94 87.2519 89.594 89.7539C87.913 86.361 90.6454 84.6723 90.6454 84.6723C93.1937 83.8228 93.1699 80.9789 92.8254 78.8033L100.185 73.0639Z" fill="#FFC3BD"/>
<path opacity="0.2" d="M92.8374 78.8033L96.9954 75.5399C97.135 76.149 97.09 76.7793 96.8647 77.3685C96.1445 79.0662 94.7604 80.4879 92.9562 81.383C93.0217 80.5219 92.9818 79.6571 92.8374 78.8033Z" fill="black"/>
<path d="M101.528 67.4332C100.934 72.3542 100.844 74.4418 97.9339 76.8764C93.5501 80.5386 86.8795 78.8603 85.7806 73.8979C84.7886 69.4275 85.8757 62.1341 91.388 60.3574C96.9003 58.5806 102.074 62.5174 101.528 67.4332Z" fill="#FFC3BD"/>
<path d="M100.292 71.0333C99.4209 70.3062 98.9119 69.3101 98.8741 68.2592C98.8363 67.2082 99.2729 66.1863 100.09 65.413C101.575 64.1025 103.654 66.8168 103.654 66.8168L100.292 71.0333Z" fill="#263238"/>
<path d="M93.4076 68.7956C93.4076 69.1996 93.1285 69.5156 92.8136 69.5052C92.4988 69.4949 92.285 69.1582 92.3028 68.7593C92.3206 68.3605 92.582 68.0393 92.8968 68.0497C93.2116 68.06 93.4255 68.376 93.4076 68.7956Z" fill="#263238"/>
<path d="M87.7409 68.6764C87.7409 69.0753 87.4677 69.3913 87.1469 69.3809C86.8262 69.3706 86.6183 69.039 86.6361 68.635C86.6539 68.231 86.9093 67.9202 87.2301 67.9305C87.5508 67.9409 87.7587 68.2724 87.7409 68.6764Z" fill="#263238"/>
<path d="M87.3605 67.9564L86.2676 67.6404C86.2676 67.6404 86.8022 68.4123 87.3605 67.9564Z" fill="#263238"/>
<path d="M89.1367 68.8318C88.6777 69.735 88.0781 70.5787 87.3547 71.339C87.583 71.4924 87.8468 71.6006 88.1279 71.656C88.409 71.7115 88.7005 71.7129 88.9823 71.6601L89.1367 68.8318Z" fill="#ED847E"/>
<path d="M91.59 73.2349C91.3323 73.2666 91.0717 73.277 90.8118 73.2659C90.7766 73.2646 90.7434 73.2515 90.719 73.2293C90.6947 73.2071 90.6811 73.1775 90.6812 73.1468C90.6819 73.1311 90.6862 73.1158 90.6938 73.1016C90.7014 73.0874 90.7121 73.0746 90.7253 73.064C90.7386 73.0534 90.7541 73.0452 90.771 73.0399C90.7878 73.0345 90.8058 73.0321 90.8237 73.0328C91.3957 73.0626 91.9677 72.975 92.4938 72.7771C93.0199 72.5792 93.4855 72.2765 93.8531 71.8932C93.8627 71.8805 93.8751 71.8695 93.8896 71.861C93.9041 71.8525 93.9205 71.8466 93.9376 71.8437C93.9548 71.8408 93.9725 71.841 93.9896 71.8441C94.0067 71.8473 94.0229 71.8534 94.0372 71.8621C94.0521 71.871 94.0648 71.8823 94.0746 71.8954C94.0844 71.9085 94.0912 71.9232 94.0945 71.9386C94.0978 71.954 94.0976 71.9698 94.0939 71.9851C94.0902 72.0004 94.083 72.015 94.0729 72.0279C93.457 72.6968 92.5662 73.1298 91.59 73.2349Z" fill="#263238"/>
<path d="M102.466 71.5565C102.246 71.9634 101.928 72.3246 101.535 72.6158C101.141 72.907 100.681 73.1216 100.185 73.2452C98.9199 73.5197 98.3319 72.3076 98.7239 71.0955C99.0744 70.0025 100.161 68.547 101.409 68.8111C102.656 69.0753 103.078 70.4946 102.466 71.5565Z" fill="#FFC3BD"/>
<path d="M98.6052 60.4351C94.6065 62.6106 90.1167 64.0081 85.4421 64.5325C85.4421 60.9945 93.378 57.0215 98.6052 60.4351Z" fill="#263238"/>
<path d="M95.5401 60.865C94.6194 63.973 103.856 69.671 102.074 75.1514C105.092 71.0541 102.918 61.8337 102.918 61.8337C102.918 61.8337 95.1361 57.5394 95.5401 60.865Z" fill="#263238"/>
<path d="M94.5896 66.1538C94.5536 66.1494 94.519 66.1383 94.4883 66.1214C94.4576 66.1044 94.4313 66.0819 94.4114 66.0554C94.228 65.8056 93.9797 65.5972 93.6866 65.4469C93.3935 65.2966 93.0638 65.2087 92.7244 65.1903C92.6891 65.1917 92.6538 65.1868 92.6208 65.176C92.5877 65.1652 92.5574 65.1486 92.5319 65.1273C92.5064 65.106 92.486 65.0804 92.4722 65.0521C92.4583 65.0237 92.4512 64.9932 92.4512 64.9624C92.4496 64.9309 92.4553 64.8995 92.468 64.87C92.4807 64.8405 92.5002 64.8136 92.5252 64.7908C92.5501 64.7681 92.5801 64.75 92.6134 64.7376C92.6466 64.7252 92.6824 64.7189 92.7185 64.7189C93.1474 64.7352 93.5655 64.841 93.9376 65.0276C94.3098 65.2143 94.625 65.4761 94.8569 65.7912C94.8771 65.8166 94.8912 65.8453 94.8986 65.8755C94.9059 65.9058 94.9062 65.937 94.8996 65.9674C94.893 65.9977 94.8795 66.0266 94.8599 66.0524C94.8403 66.0782 94.8151 66.1003 94.7856 66.1175C94.7573 66.1345 94.7254 66.1465 94.6917 66.1527C94.6581 66.1589 94.6234 66.1593 94.5896 66.1538Z" fill="#263238"/>
<path d="M85.2342 65.9828C85.1649 65.9786 85.0995 65.9529 85.0501 65.9103C85.0249 65.8886 85.005 65.8628 84.9913 65.8344C84.9777 65.8059 84.9707 65.7754 84.9707 65.7446C84.9707 65.7137 84.9777 65.6832 84.9913 65.6547C85.005 65.6263 85.0249 65.6005 85.0501 65.5788C85.3464 65.3073 85.713 65.1017 86.1191 64.9792C86.5252 64.8566 86.9591 64.8206 87.3845 64.8743C87.4542 64.888 87.515 64.9249 87.5539 64.9772C87.5927 65.0295 87.6065 65.093 87.5924 65.154C87.5853 65.1845 87.5714 65.2134 87.5514 65.2391C87.5313 65.2647 87.5056 65.2867 87.4758 65.3035C87.4459 65.3204 87.4124 65.332 87.3774 65.3374C87.3423 65.3429 87.3064 65.3422 87.2716 65.3353C86.9345 65.2978 86.5919 65.3304 86.2719 65.4303C85.9519 65.5302 85.6635 65.6947 85.4302 65.9103C85.3784 65.9561 85.308 65.9822 85.2342 65.9828Z" fill="#263238"/>
<path d="M93.0273 68.0756L91.9343 67.7648C91.9343 67.7648 92.463 68.5366 93.0273 68.0756Z" fill="#263238"/>
<path opacity="0.2" d="M110.301 91.168C110.194 93.9337 110.299 96.7025 110.616 99.456C107.646 96.721 103.915 91.5565 103.672 88.9665L110.301 91.168Z" fill="black"/>
<path d="M129.695 81.44L130.343 78.1507L136.205 80.1242C136.205 80.1242 134.845 83.1856 132.344 84.5376L131.649 84.1543C131.104 83.8651 130.644 83.4693 130.305 82.9982C129.966 82.5271 129.757 81.9936 129.695 81.44Z" fill="#FFC3BD"/>
<path d="M134.001 76.3169L135.932 77.2338C136.354 77.4334 136.668 77.7703 136.806 78.1711C136.944 78.5719 136.894 79.004 136.669 79.3731L136.211 80.1242L130.348 78.1507L131.744 76.6951C132.014 76.4157 132.385 76.2257 132.796 76.1569C133.207 76.088 133.633 76.1445 134.001 76.3169Z" fill="#FFC3BD"/>
<path d="M109.255 85.1955L110.004 85.8689L110.818 86.5889C111.37 87.0603 111.923 87.542 112.493 87.9979C113.621 88.9251 114.786 89.785 115.956 90.5879C117.06 91.3426 118.232 92.0182 119.46 92.608C120.4 93.0688 121.422 93.3876 122.484 93.5508L120.886 93.8098C120.494 93.9756 120.518 94.0481 120.601 93.9911C120.761 93.8974 120.909 93.7879 121.04 93.6648C121.475 93.2704 121.872 92.846 122.228 92.3957C123.036 91.3959 123.856 90.2615 124.604 89.0856C125.353 87.9098 126.149 86.7028 126.915 85.4596L129.202 81.7715V81.7404C129.47 81.3009 129.909 80.9589 130.44 80.7755C130.97 80.5921 131.559 80.5792 132.099 80.7393C132.64 80.8993 133.097 81.2218 133.39 81.6491C133.683 82.0764 133.793 82.5806 133.699 83.0717C133.425 84.5635 133.051 85.9725 132.635 87.4073C132.22 88.8422 131.774 90.2615 131.18 91.686C130.598 93.1548 129.907 94.5892 129.113 95.9802C128.652 96.7633 128.13 97.5179 127.551 98.2387C127.185 98.6833 126.776 99.0993 126.327 99.4819C125.663 100.06 124.879 100.522 124.016 100.844C123.593 101.001 123.14 101.088 122.68 101.098H122.419C120.071 101.11 117.748 100.684 115.605 99.8497C114.659 99.497 113.735 99.1011 112.837 98.6635C111.978 98.2214 111.148 97.7639 110.348 97.2908C108.794 96.3416 107.314 95.3033 105.917 94.1828C105.234 93.6337 104.557 93.0794 103.909 92.4941C103.589 92.204 103.262 91.9139 102.947 91.6083C102.632 91.3027 102.353 91.023 101.967 90.6345C101.113 89.8102 100.67 88.7239 100.734 87.6145C100.799 86.5051 101.366 85.4635 102.312 84.7189C103.257 83.9743 104.503 83.5876 105.775 83.644C107.047 83.7003 108.241 84.1951 109.095 85.0194L109.255 85.1955Z" fill="#FFC3BD"/>
<path d="M104.646 83.2012C109 83.3151 113.33 87.8632 113.33 87.8632C113.33 87.8632 111.655 93.8979 106.885 96.4982C104.2 94.6749 101.925 93.2141 101.925 93.2141C98.1298 88.3605 99.395 85.1385 104.646 83.2012Z" fill="#263238"/>
<path d="M85.9529 116.364C86.2737 117.985 86.6598 119.259 86.7845 119.648C86.7965 119.689 86.818 119.728 86.8476 119.761C86.8772 119.795 86.9143 119.823 86.9568 119.844C87.5924 120.15 90.4911 121.398 95.8133 121.124C101.753 120.844 110.467 118.016 114.988 115.006C115.054 114.962 115.101 114.9 115.122 114.83C115.144 114.759 115.138 114.685 115.106 114.618C114.757 113.943 114.35 113.292 113.889 112.67C113.844 112.611 113.778 112.565 113.701 112.541C113.623 112.517 113.539 112.515 113.461 112.536C111.513 113.054 99.2466 116.115 86.3271 115.98C86.2723 115.98 86.2181 115.991 86.1684 116.011C86.1186 116.031 86.0745 116.06 86.0389 116.097C86.0034 116.133 85.9773 116.176 85.9624 116.222C85.9476 116.268 85.9443 116.316 85.9529 116.364Z" fill="#584CF4"/>
<path opacity="0.3" d="M85.9529 116.364C86.2737 117.985 86.6598 119.259 86.7845 119.648C86.7965 119.689 86.818 119.728 86.8476 119.761C86.8772 119.795 86.9143 119.823 86.9568 119.844C87.5924 120.15 90.4911 121.398 95.8133 121.124C101.753 120.844 110.467 118.016 114.988 115.006C115.054 114.962 115.101 114.9 115.122 114.83C115.144 114.759 115.138 114.685 115.106 114.618C114.757 113.943 114.35 113.292 113.889 112.67C113.844 112.611 113.778 112.565 113.701 112.541C113.623 112.517 113.539 112.515 113.461 112.536C111.513 113.054 99.2466 116.115 86.3271 115.98C86.2723 115.98 86.2181 115.991 86.1684 116.011C86.1186 116.031 86.0745 116.06 86.0389 116.097C86.0034 116.133 85.9773 116.176 85.9624 116.222C85.9476 116.268 85.9443 116.316 85.9529 116.364Z" fill="white"/>
<path d="M204.996 200.16H126.79C125.344 200.172 123.91 199.923 122.58 199.428C121.249 198.933 120.051 198.203 119.059 197.284C118.068 196.366 117.305 195.278 116.819 194.09C116.333 192.902 116.134 191.639 116.235 190.381L125.739 48.6298C125.956 45.9987 127.297 43.5343 129.496 41.7235C131.696 39.9127 134.594 38.8873 137.619 38.85H215.843C217.289 38.8384 218.723 39.0879 220.053 39.5828C221.384 40.0778 222.583 40.8075 223.574 41.7261C224.565 42.6447 225.328 43.7322 225.814 44.9204C226.3 46.1085 226.499 47.3715 226.398 48.6298L216.865 190.381C216.648 193.01 215.309 195.473 213.112 197.283C210.915 199.094 208.019 200.121 204.996 200.16Z" fill="#584CF4"/>
<path opacity="0.8" d="M204.996 200.16H126.79C125.344 200.172 123.91 199.923 122.58 199.428C121.249 198.933 120.051 198.203 119.059 197.284C118.068 196.366 117.305 195.278 116.819 194.09C116.333 192.902 116.134 191.639 116.235 190.381L125.739 48.6298C125.956 45.9987 127.297 43.5343 129.496 41.7235C131.696 39.9127 134.594 38.8873 137.619 38.85H215.843C217.289 38.8384 218.723 39.0879 220.053 39.5828C221.384 40.0778 222.583 40.8075 223.574 41.7261C224.565 42.6447 225.328 43.7322 225.814 44.9204C226.3 46.1085 226.499 47.3715 226.398 48.6298L216.865 190.381C216.648 193.01 215.309 195.473 213.112 197.283C210.915 199.094 208.019 200.121 204.996 200.16Z" fill="white"/>
<path d="M204.533 197.322H128.501C127.485 197.33 126.477 197.155 125.542 196.808C124.607 196.461 123.765 195.948 123.068 195.303C122.371 194.658 121.835 193.894 121.493 193.059C121.151 192.225 121.011 191.337 121.082 190.453L130.586 49.3188C130.738 47.4747 131.676 45.7469 133.215 44.475C134.754 43.203 136.782 42.4789 138.902 42.4449H214.934C215.951 42.4371 216.958 42.6127 217.893 42.9607C218.828 43.3087 219.67 43.8216 220.367 44.4672C221.064 45.1127 221.6 45.877 221.942 46.7119C222.283 47.5468 222.424 48.4344 222.353 49.3188L212.849 190.453C212.697 192.297 211.759 194.024 210.22 195.295C208.681 196.566 206.652 197.289 204.533 197.322Z" fill="#584CF4"/>
<path d="M203.713 196.565H127.681C126.665 196.573 125.657 196.398 124.722 196.05C123.787 195.702 122.945 195.189 122.248 194.543C121.552 193.898 121.015 193.133 120.674 192.298C120.332 191.464 120.192 190.576 120.262 189.692L129.766 48.5573C129.919 46.7132 130.856 44.9854 132.395 43.7135C133.934 42.4416 135.963 41.7175 138.082 41.6835H214.114C215.131 41.6756 216.138 41.8512 217.073 42.1992C218.008 42.5472 218.851 43.0601 219.547 43.7057C220.244 44.3513 220.78 45.1155 221.122 45.9504C221.464 46.7854 221.604 47.6729 221.533 48.5573L212.029 189.692C211.877 191.536 210.939 193.264 209.401 194.535C207.862 195.807 205.833 196.531 203.713 196.565Z" fill="white"/>
<path opacity="0.1" d="M201.492 191.318H130.586C129.958 191.323 129.335 191.215 128.757 191C128.18 190.784 127.659 190.468 127.228 190.069C126.798 189.67 126.466 189.197 126.255 188.682C126.044 188.166 125.957 187.617 126 187.071L129.992 128.2C130.086 127.057 130.667 125.987 131.622 125.201C132.577 124.414 133.835 123.969 135.148 123.952H206.024C206.652 123.947 207.275 124.056 207.853 124.271C208.431 124.486 208.951 124.803 209.382 125.202C209.813 125.601 210.144 126.073 210.355 126.589C210.567 127.105 210.653 127.653 210.61 128.2L206.648 187.071C206.554 188.213 205.973 189.283 205.018 190.07C204.063 190.856 202.805 191.302 201.492 191.318Z" fill="#584CF4"/>
<path opacity="0.1" d="M185.745 52.1522H165.08C164.855 52.1541 164.632 52.1155 164.426 52.0387C164.219 51.962 164.033 51.8487 163.879 51.7062C163.725 51.5636 163.607 51.3948 163.531 51.2104C163.456 51.0259 163.425 50.8299 163.44 50.6345C163.473 50.2249 163.681 49.8409 164.023 49.5588C164.365 49.2767 164.817 49.1171 165.288 49.1116H185.947C186.174 49.1067 186.4 49.1433 186.61 49.2191C186.819 49.2949 187.009 49.4082 187.165 49.5516C187.322 49.6951 187.443 49.8655 187.519 50.052C187.596 50.2385 187.627 50.4369 187.61 50.6345C187.577 51.0463 187.366 51.4319 187.02 51.7135C186.674 51.9952 186.218 52.1519 185.745 52.1522Z" fill="#584CF4"/>
<path opacity="0.1" d="M193.966 108.971C206.691 98.1945 207.56 80.975 195.907 70.51C184.253 60.045 164.49 60.2975 151.765 71.0739C139.04 81.8503 138.171 99.0698 149.824 109.535C161.478 120 181.241 119.747 193.966 108.971Z" fill="#584CF4"/>
<path d="M151.02 108.039C148.419 105.625 146.419 102.769 145.145 99.6489C143.87 96.5291 143.348 93.2132 143.612 89.9093H144.206C143.949 93.1422 144.46 96.3866 145.707 99.4395C146.954 102.492 148.91 105.288 151.453 107.651L151.02 108.039Z" fill="#584CF4"/>
<path d="M202.115 90.132L201.521 90.1009C201.684 87.8191 201.484 85.5286 200.927 83.2944L201.521 83.1805C202.09 85.4622 202.29 87.802 202.115 90.132Z" fill="#584CF4"/>
<path d="M199.205 78.7878C197.751 75.9751 195.671 73.4421 193.087 71.3356C190.502 69.2291 187.463 67.591 184.147 66.5164L184.355 66.0294C187.747 67.1262 190.855 68.8008 193.497 70.9557C196.139 73.1106 198.263 75.7026 199.745 78.5806L199.205 78.7878Z" fill="#584CF4"/>
<path d="M191.252 106.533C202.341 97.1419 203.099 82.1367 192.945 73.0181C182.791 63.8995 165.569 64.1205 154.48 73.5117C143.39 82.9029 142.632 97.9081 152.786 107.027C162.94 116.145 180.162 115.924 191.252 106.533Z" fill="#584CF4"/>
<path d="M169.843 93.24C171.15 92.9862 171.762 92.0123 172.041 90.9038C172.071 90.7847 172.095 90.6707 172.118 90.5568V90.4531C172.19 89.9911 172.229 89.5258 172.237 89.0597C170.972 88.9505 169.797 88.4394 168.936 87.6236C168.075 86.8079 167.588 85.7445 167.568 84.636C167.503 82.4378 168.062 80.2597 169.196 78.2957C168.904 78.329 168.627 78.4291 168.394 78.5858C168.371 78.6008 168.345 78.6113 168.318 78.6167C168.29 78.622 168.261 78.6221 168.234 78.6169C168.182 78.6091 168.136 78.5851 168.103 78.5495C168.071 78.5106 168.058 78.4626 168.066 78.4154C168.074 78.3682 168.102 78.3253 168.145 78.2957C168.514 78.0522 168.965 77.9212 169.428 77.9227C169.517 77.7984 169.6 77.6689 169.689 77.5498C169.309 77.5498 168.941 77.5498 168.584 77.5498C168.976 75.1566 174.257 73.1468 177.856 74.9598C179.46 75.2395 182.109 77.239 182.109 77.239C182.163 78.5125 182.121 79.7878 181.985 81.0566C181.747 83.2219 181.159 85.7653 179.728 87.1846C180.084 86.4585 180.215 85.6636 180.108 84.8795C179.765 85.1754 179.339 85.3879 178.872 85.4959C178.703 85.8133 178.504 86.1182 178.278 86.4076C177.72 88.6298 177.322 91.5876 178.171 93.2918C178.938 93.3332 179.68 93.3954 180.387 93.4627L180.559 93.4886C181.026 93.2497 181.474 92.985 181.902 92.6961C187.248 89.0701 181.575 84.8121 182.911 80.9116C184.248 77.011 183.119 75.5296 179.466 75.4053C180.981 73.297 171.358 69.93 167.129 76.4723C163.298 82.4034 162.062 85.3664 163.44 90.0025C163.958 91.5177 165.132 92.7977 166.713 93.5715C166.982 93.5073 167.256 93.4588 167.533 93.4265C168.287 93.3643 169.071 93.2918 169.843 93.24Z" fill="#263238"/>
<path d="M161.534 102.357C161.315 102.02 161.117 101.675 160.939 101.321C160.536 102.357 160.138 103.393 159.752 104.429C159.383 105.361 159.033 106.294 158.664 107.185L158.112 108.443L157.874 108.961C157.791 109.101 157.874 109.018 157.874 109.06C157.621 109.317 157.341 109.553 157.037 109.764C156.972 109.821 156.888 109.873 156.817 109.925C158.461 110.892 160.229 111.686 162.086 112.292C162.127 109.925 162.46 107.464 162.817 106.806C160.678 105.511 160.999 104.118 161.534 102.357Z" fill="#FFC3BD"/>
<path d="M163.612 95.369L163.464 95.5517C163.511 95.4891 163.565 95.4316 163.618 95.3742L163.612 95.369Z" fill="#263238"/>
<path d="M162.24 98.8396C162.232 97.6993 162.628 96.5846 163.375 95.6487C162.236 97.211 161.3 98.8789 160.583 100.621C160.583 100.621 160.69 100.896 160.916 101.326C161.093 101.68 161.292 102.026 161.51 102.362C161.933 101.222 162.179 100.037 162.24 98.8396Z" fill="#263238"/>
<path d="M182.947 106.356C182.243 105.453 181.618 104.506 181.076 103.522C180.898 103.605 180.714 103.688 180.524 103.761C178.742 102.119 177.221 100.792 177.221 100.792C174.999 96.752 176.372 94.4521 180.583 93.5145C181.237 93.6318 181.86 93.8512 182.424 94.162C181.869 93.8214 181.231 93.598 180.559 93.5094L180.387 93.4835C179.68 93.4161 178.938 93.3539 178.171 93.3125C178.338 93.6906 174.524 98.4925 172.13 99.254C171.15 97.0991 168.4 96.954 168.4 96.954C168.4 96.954 165.834 96.493 165.038 97.902C165.561 94.9908 168.774 93.4576 169.843 93.24C169.071 93.297 168.287 93.3695 167.533 93.4524C167.256 93.4847 166.982 93.5332 166.713 93.5974C165.491 93.8898 164.407 94.5139 163.618 95.3793C163.565 95.4363 163.511 95.4933 163.464 95.5555L163.375 95.6539C162.628 96.5898 162.232 97.7045 162.24 98.8448C162.186 100.039 161.948 101.222 161.533 102.362C160.999 104.102 160.678 105.517 162.775 106.812C162.418 107.469 162.086 109.92 162.044 112.297C164.996 113.252 168.121 113.736 171.269 113.727C175.3 113.722 179.283 112.96 182.947 111.494C182.845 109.566 182.863 107.635 183.001 105.708C182.983 105.915 182.959 106.143 182.947 106.356Z" fill="#263238"/>
<path d="M168.4 96.9541C168.4 96.9541 171.15 97.0991 172.13 99.254C174.506 98.4666 178.338 93.6907 178.171 93.3125C178.171 93.3125 172.76 95.6021 168.4 96.9541Z" fill="white"/>
<path d="M169.855 93.24C168.786 93.4627 165.573 94.996 165.05 97.902C165.846 96.493 168.412 96.954 168.412 96.954C167.58 94.2294 169.855 93.24 169.855 93.24Z" fill="white"/>
<path d="M178.278 86.4283C177.762 87.0814 177.109 87.6438 176.354 88.0859C176.036 88.2852 175.698 88.4586 175.344 88.6039C174.566 89.693 173.405 90.5341 172.035 91.0022V90.9142C171.756 92.0227 171.144 92.9862 169.838 93.2503C169.838 93.2503 167.563 94.2449 168.382 96.9696C172.748 95.6176 178.154 93.3436 178.154 93.3436C177.322 91.6135 177.72 88.6505 178.278 86.4283Z" fill="#FFC3BD"/>
<path d="M172.053 90.8986C172.083 90.7795 172.107 90.6655 172.13 90.5516C172.107 90.65 172.083 90.7795 172.053 90.8986Z" fill="#263238"/>
<path opacity="0.2" d="M172.053 90.8986C172.083 90.7795 172.107 90.6655 172.13 90.5516C172.107 90.65 172.083 90.7795 172.053 90.8986Z" fill="black"/>
<path d="M172.267 89.0546C172.259 89.5207 172.219 89.986 172.148 90.448C172.222 89.9862 172.261 89.5208 172.267 89.0546Z" fill="#263238"/>
<path opacity="0.2" d="M172.267 89.0546C172.259 89.5207 172.219 89.986 172.148 90.448C172.222 89.9862 172.261 89.5208 172.267 89.0546Z" fill="black"/>
<path d="M175.344 88.578C174.387 88.9777 173.322 89.1391 172.267 89.0442C172.262 89.5104 172.222 89.9759 172.148 90.4376V90.5412C172.148 90.6552 172.101 90.7691 172.071 90.8883V90.9763C173.428 90.5025 174.575 89.662 175.344 88.578Z" fill="#FFC3BD"/>
<path opacity="0.2" d="M175.344 88.578C174.387 88.9777 173.322 89.1391 172.267 89.0442C172.262 89.5104 172.222 89.9759 172.148 90.4376V90.5412C172.148 90.6552 172.101 90.7691 172.071 90.8883V90.9763C173.428 90.5025 174.575 89.662 175.344 88.578Z" fill="black"/>
<path d="M175.344 88.578C175.698 88.4327 176.036 88.2593 176.354 88.06C177.109 87.6179 177.762 87.0555 178.278 86.4024C178.504 86.1131 178.703 85.8082 178.872 85.4907C178.759 85.4907 178.646 85.5425 178.54 85.5529C177.548 85.6306 177.268 84.6567 177.72 83.7865C177.873 83.4922 178.073 83.2184 178.314 82.9732C178.055 82.2337 178.118 81.4367 178.492 80.7355C177.589 79.1193 176.633 77.6275 176.544 76.5449C174.321 77.144 172.015 77.4734 169.689 77.5239C169.6 77.643 169.517 77.7725 169.428 77.8968C169.629 77.8961 169.829 77.9223 170.022 77.9745C170.047 77.9826 170.07 77.9949 170.089 78.0108C170.109 78.0266 170.124 78.0457 170.136 78.0669C170.147 78.0881 170.153 78.111 170.154 78.1342C170.154 78.1575 170.15 78.1807 170.14 78.2025C170.122 78.2467 170.084 78.2828 170.035 78.3031C169.986 78.3234 169.93 78.3263 169.879 78.3112C169.666 78.2547 169.44 78.2406 169.22 78.2698C168.101 80.2355 167.556 82.4116 167.634 84.6049C167.654 85.7135 168.141 86.7768 169.002 87.5926C169.863 88.4083 171.037 88.9195 172.303 89.0287C173.344 89.1226 174.396 88.9667 175.344 88.578ZM174.019 78.4045C174.343 78.4599 174.646 78.5833 174.903 78.7637C175.159 78.9442 175.362 79.1765 175.492 79.4405C175.515 79.4839 175.518 79.5335 175.501 79.5788C175.483 79.6241 175.446 79.6618 175.397 79.6839C175.348 79.7018 175.292 79.7018 175.243 79.6839C175.216 79.6775 175.191 79.6658 175.171 79.6496C175.15 79.6334 175.134 79.6132 175.124 79.5907C175.016 79.3815 174.852 79.1983 174.645 79.0566C174.438 78.915 174.195 78.8192 173.936 78.7774C173.883 78.7698 173.834 78.7446 173.801 78.7071C173.768 78.6696 173.753 78.6225 173.758 78.5754C173.76 78.5489 173.769 78.5232 173.785 78.5C173.8 78.4769 173.82 78.457 173.845 78.4417C173.87 78.4263 173.899 78.416 173.929 78.4114C173.959 78.4067 173.99 78.4079 174.019 78.4148V78.4045ZM173.811 80.9634C173.91 81.0283 173.984 81.1187 174.021 81.2218C174.058 81.3249 174.058 81.4356 174.019 81.5384C173.954 81.8388 173.716 82.0564 173.491 82.0098C173.265 81.9631 173.134 81.699 173.199 81.3985C173.232 81.2462 173.322 81.1078 173.455 81.0048C173.27 80.9194 173.125 80.7801 173.045 80.6112L173.811 80.9634ZM168.941 80.7458C168.972 80.596 169.06 80.4594 169.19 80.3573C169.008 80.2676 168.866 80.1272 168.786 79.9585L169.564 80.3055C169.66 80.3728 169.731 80.4633 169.768 80.5656C169.805 80.6679 169.806 80.7775 169.772 80.8805C169.701 81.181 169.469 81.3985 169.243 81.3571C169.018 81.3156 168.875 81.0566 168.941 80.7562V80.7458ZM170.319 83.2633C170.098 83.2747 169.878 83.2439 169.673 83.1733C169.467 83.1026 169.282 82.9936 169.131 82.8541C169.767 82.3516 170.322 81.7766 170.782 81.1447L170.319 83.2633ZM171.465 84.6516C171.439 84.6454 171.416 84.6308 171.402 84.6105C171.387 84.5903 171.382 84.5661 171.388 84.5428C171.393 84.5202 171.409 84.5005 171.431 84.4879C171.454 84.4753 171.481 84.4708 171.507 84.4754C171.935 84.556 172.38 84.5473 172.804 84.4501C173.228 84.3529 173.62 84.1699 173.948 83.916C173.957 83.9075 173.968 83.9007 173.981 83.896C173.993 83.8912 174.007 83.8887 174.02 83.8884C174.034 83.8882 174.047 83.8903 174.06 83.8945C174.072 83.8988 174.084 83.9052 174.093 83.9134C174.103 83.9216 174.111 83.9313 174.116 83.9421C174.122 83.9529 174.125 83.9645 174.125 83.9763C174.125 83.9881 174.123 83.9998 174.118 84.0108C174.113 84.0218 174.106 84.0318 174.096 84.0403C173.544 84.4837 172.815 84.7216 172.065 84.7034C171.864 84.7018 171.664 84.688 171.465 84.6619V84.6516Z" fill="#FFC3BD"/>
<path d="M179.294 82.362C179.044 81.844 178.759 81.2897 178.468 80.7717C178.094 81.4729 178.031 82.2699 178.29 83.0095C178.553 82.7204 178.9 82.497 179.294 82.362Z" fill="#263238"/>
<path d="M173.443 81.0204C173.31 81.1233 173.221 81.2618 173.188 81.4141C173.122 81.7145 173.253 81.989 173.479 82.0253C173.705 82.0616 173.942 81.8544 174.007 81.5539C174.046 81.4512 174.047 81.3405 174.009 81.2373C173.972 81.1342 173.899 81.0439 173.8 80.9789C173.749 81.0123 173.69 81.0337 173.628 81.0409C173.565 81.0482 173.502 81.0411 173.443 81.0204Z" fill="#263238"/>
<path d="M169.79 80.8961C169.824 80.793 169.823 80.6835 169.786 80.5812C169.749 80.4788 169.678 80.3884 169.582 80.3211C169.531 80.354 169.471 80.3754 169.407 80.3836C169.344 80.3917 169.28 80.3862 169.22 80.3677C169.09 80.4698 169.002 80.6063 168.97 80.7562C168.905 81.0566 169.036 81.3312 169.261 81.3726C169.487 81.4141 169.689 81.1965 169.79 80.8961Z" fill="#263238"/>
<path d="M169.552 80.3211L168.774 79.974C168.854 80.1427 168.996 80.2832 169.178 80.3729C169.24 80.3925 169.307 80.3981 169.373 80.389C169.438 80.3799 169.5 80.3566 169.552 80.3211Z" fill="#263238"/>
<path d="M169.137 82.88C169.289 83.0195 169.474 83.1285 169.679 83.1992C169.884 83.2698 170.104 83.3006 170.325 83.2892L170.794 81.1706C170.332 81.8028 169.775 82.3778 169.137 82.88Z" fill="#ED847E"/>
<path d="M174.085 83.916C174.065 83.8992 174.038 83.8899 174.01 83.8899C173.983 83.8899 173.956 83.8992 173.936 83.916C173.61 84.1683 173.22 84.3504 172.798 84.4476C172.376 84.5447 171.934 84.5543 171.507 84.4754C171.481 84.4708 171.454 84.4753 171.431 84.4879C171.409 84.5005 171.394 84.5202 171.388 84.5428C171.382 84.5661 171.387 84.5903 171.402 84.6106C171.416 84.6308 171.439 84.6454 171.465 84.6516C171.662 84.6808 171.86 84.6982 172.059 84.7034C172.809 84.7216 173.538 84.4837 174.091 84.0403C174.107 84.0226 174.116 84.0001 174.115 83.9772C174.114 83.9542 174.103 83.9325 174.085 83.916Z" fill="#263238"/>
<path d="M179.294 82.362C178.9 82.497 178.553 82.7204 178.29 83.0095C178.049 83.2547 177.849 83.5285 177.696 83.8228C177.245 84.693 177.524 85.6668 178.516 85.5891C178.623 85.5891 178.736 85.5477 178.848 85.527C179.315 85.4189 179.741 85.2064 180.084 84.9106C179.96 84.0328 179.694 83.1748 179.294 82.362Z" fill="#FFC3BD"/>
<path d="M176.657 75.7937C176.692 75.0478 177.179 74.8665 177.845 74.9805C174.245 73.1468 168.964 75.1566 168.572 77.5705C168.929 77.5705 169.297 77.5705 169.677 77.5705C172.003 77.52 174.309 77.1906 176.532 76.5915C176.497 76.3207 176.54 76.0466 176.657 75.7937Z" fill="#263238"/>
<path d="M176.657 75.7938C176.544 76.0403 176.501 76.3068 176.532 76.5708C176.621 77.6689 177.577 79.1608 178.48 80.7614C178.771 81.2794 179.074 81.7974 179.306 82.3516C179.706 83.1644 179.972 84.0225 180.096 84.9002C180.203 85.6843 180.072 86.4792 179.716 87.2053C181.147 85.786 181.735 83.2426 181.973 81.0774C182.109 79.8085 182.151 78.5333 182.098 77.2597C182.098 77.2597 179.449 75.2602 177.845 74.9805C177.179 74.8665 176.692 75.0478 176.657 75.7938Z" fill="#263238"/>
<path d="M173.948 78.7722C174.207 78.814 174.45 78.9098 174.657 79.0514C174.864 79.1931 175.028 79.3763 175.136 79.5855C175.146 79.608 175.162 79.6282 175.183 79.6444C175.203 79.6606 175.228 79.6723 175.255 79.6787C175.304 79.6966 175.36 79.6966 175.409 79.6787C175.458 79.6566 175.495 79.6189 175.513 79.5736C175.53 79.5283 175.527 79.4787 175.504 79.4353C175.374 79.1713 175.171 78.939 174.915 78.7585C174.658 78.5781 174.355 78.4547 174.031 78.3993C173.977 78.3934 173.922 78.4064 173.879 78.4355C173.835 78.4646 173.807 78.5074 173.8 78.5547C173.788 78.6006 173.797 78.6485 173.825 78.6888C173.853 78.7291 173.896 78.7589 173.948 78.7722Z" fill="#263238"/>
<path d="M169.843 78.3371C169.895 78.3522 169.951 78.3493 169.999 78.329C170.048 78.3086 170.086 78.2726 170.105 78.2284C170.114 78.2066 170.119 78.1834 170.118 78.1601C170.117 78.1369 170.111 78.114 170.1 78.0928C170.089 78.0716 170.073 78.0525 170.054 78.0367C170.034 78.0208 170.011 78.0085 169.986 78.0004C169.794 77.9482 169.593 77.922 169.392 77.9227C168.929 77.9212 168.478 78.0522 168.109 78.2957C168.066 78.3253 168.038 78.3682 168.03 78.4154C168.022 78.4626 168.036 78.5106 168.067 78.5495C168.1 78.5851 168.147 78.6091 168.198 78.6169C168.226 78.6221 168.254 78.622 168.282 78.6167C168.31 78.6113 168.336 78.6008 168.358 78.5858C168.592 78.4291 168.868 78.329 169.16 78.2957C169.389 78.2633 169.622 78.2775 169.843 78.3371Z" fill="#263238"/>
<path d="M173.443 81.0204C173.502 81.0411 173.565 81.0482 173.628 81.0409C173.69 81.0337 173.749 81.0123 173.8 80.979L173.021 80.6319C173.105 80.8006 173.255 80.9381 173.443 81.0204Z" fill="#263238"/>
<path d="M182.947 106.356C182.947 106.143 182.983 105.915 182.995 105.698C182.662 105.237 182.323 104.771 181.973 104.31L181.29 103.424L181.076 103.522C181.617 104.506 182.243 105.453 182.947 106.356Z" fill="#263238"/>
<path opacity="0.2" d="M182.947 106.356C182.947 106.143 182.983 105.915 182.995 105.698C182.662 105.237 182.323 104.771 181.973 104.31L181.29 103.424L181.076 103.522C181.617 104.506 182.243 105.453 182.947 106.356Z" fill="black"/>
<path d="M184.711 110.645V110.728C187.08 109.611 189.263 108.217 191.198 106.584C190.873 105.748 190.492 104.93 190.057 104.134C189.481 103.05 188.841 101.994 188.139 100.969C187.545 100.078 186.915 99.2281 186.268 98.3785C185.674 99.4612 183.987 102.067 181.308 103.408L181.991 104.294C182.341 104.755 182.68 105.221 183.012 105.682C183.303 106.086 183.606 106.496 183.85 106.9C184.307 107.599 184.735 108.303 185.038 108.972L184.979 109.324C184.907 109.754 184.818 110.194 184.711 110.645Z" fill="#FFC3BD"/>
<path d="M177.221 100.792C177.221 100.792 178.742 102.119 180.524 103.761C180.714 103.688 180.898 103.605 181.076 103.522L181.29 103.424C183.969 102.082 185.644 99.4767 186.25 98.3941C186.422 98.0885 186.511 97.902 186.511 97.902C186.511 97.902 184.788 95.4156 182.424 94.162C181.86 93.8512 181.236 93.6318 180.583 93.5145C176.371 94.4521 174.999 96.752 177.221 100.792Z" fill="#263238"/>
<path d="M205.703 48.8319H214.073C214.301 48.8285 214.52 48.7506 214.686 48.6135C214.852 48.4764 214.953 48.29 214.97 48.0911C214.977 47.9964 214.962 47.9013 214.925 47.8119C214.888 47.7225 214.831 47.6407 214.756 47.5716C214.681 47.5026 214.591 47.4477 214.491 47.4105C214.391 47.3733 214.283 47.3546 214.174 47.3556H205.798C205.571 47.3588 205.353 47.436 205.187 47.5721C205.021 47.7081 204.919 47.8932 204.901 48.0911C204.893 48.1867 204.908 48.2828 204.945 48.3732C204.981 48.4636 205.039 48.5463 205.115 48.616C205.19 48.6857 205.282 48.7409 205.383 48.7781C205.484 48.8153 205.593 48.8336 205.703 48.8319Z" fill="#584CF4"/>
<path d="M205.531 51.3752H213.901C214.129 51.3719 214.348 51.2939 214.514 51.1568C214.68 51.0197 214.781 50.8334 214.797 50.6345C214.806 50.5393 214.791 50.4437 214.755 50.3537C214.718 50.2637 214.661 50.1812 214.586 50.1116C214.511 50.0419 214.421 49.9866 214.32 49.9491C214.219 49.9116 214.111 49.8928 214.002 49.8938H205.632C205.402 49.8958 205.182 49.9732 205.015 50.1104C204.848 50.2477 204.746 50.4347 204.729 50.6345C204.723 50.7298 204.739 50.8252 204.776 50.9149C204.813 51.0045 204.871 51.0866 204.947 51.156C205.022 51.2254 205.112 51.2806 205.213 51.3183C205.313 51.356 205.422 51.3754 205.531 51.3752Z" fill="#584CF4"/>
<path d="M137.821 51.3752H146.19C146.42 51.372 146.639 51.2942 146.806 51.1572C146.973 51.0202 147.076 50.8338 147.093 50.6345C147.101 50.5391 147.085 50.4433 147.048 50.3533C147.011 50.2633 146.953 50.1809 146.878 50.1113C146.803 50.0418 146.712 49.9866 146.611 49.9491C146.51 49.9117 146.401 49.8928 146.291 49.8938H137.922C137.693 49.8959 137.473 49.9735 137.307 50.1108C137.141 50.2481 137.04 50.4352 137.025 50.6345C137.018 50.7295 137.033 50.8248 137.07 50.9145C137.106 51.0041 137.164 51.0863 137.238 51.1557C137.313 51.2252 137.403 51.2806 137.503 51.3183C137.604 51.3561 137.712 51.3755 137.821 51.3752Z" fill="#584CF4"/>
<path d="M205.359 53.9134H213.746C213.976 53.9114 214.196 53.834 214.363 53.6968C214.53 53.5595 214.632 53.3725 214.649 53.1727C214.655 53.0774 214.639 52.982 214.602 52.8923C214.565 52.8027 214.507 52.7206 214.431 52.6512C214.356 52.5818 214.266 52.5266 214.165 52.4889C214.065 52.4512 213.956 52.4318 213.847 52.432H205.46C205.23 52.4352 205.011 52.513 204.844 52.65C204.677 52.787 204.574 52.9734 204.557 53.1727C204.549 53.2681 204.565 53.3639 204.602 53.4539C204.639 53.5439 204.697 53.6263 204.772 53.6958C204.847 53.7654 204.938 53.8206 205.039 53.8581C205.14 53.8955 205.249 53.9144 205.359 53.9134Z" fill="#584CF4"/>
<path d="M194.358 146.848H143.725C142.78 146.856 141.842 146.693 140.973 146.369C140.103 146.046 139.319 145.569 138.671 144.968C138.022 144.368 137.524 143.657 137.206 142.881C136.888 142.104 136.757 141.278 136.823 140.456C136.965 138.736 137.842 137.126 139.279 135.943C140.716 134.759 142.61 134.089 144.586 134.064H195.219C196.165 134.056 197.102 134.219 197.972 134.542C198.842 134.866 199.625 135.343 200.274 135.943C200.922 136.543 201.421 137.254 201.739 138.031C202.057 138.807 202.187 139.633 202.121 140.456C201.979 142.175 201.103 143.785 199.665 144.969C198.228 146.152 196.334 146.822 194.358 146.848Z" fill="white"/>
<path d="M193.206 164.03H142.567C141.621 164.036 140.685 163.872 139.815 163.548C138.946 163.223 138.162 162.746 137.514 162.145C136.866 161.545 136.368 160.834 136.049 160.057C135.731 159.281 135.6 158.455 135.665 157.633C135.811 155.916 136.69 154.31 138.127 153.129C139.563 151.949 141.455 151.281 143.428 151.256H194.067C195.012 151.248 195.95 151.411 196.819 151.735C197.689 152.058 198.473 152.535 199.121 153.135C199.77 153.736 200.268 154.447 200.586 155.223C200.904 156 201.035 156.825 200.969 157.648C200.822 159.365 199.944 160.972 198.508 162.153C197.071 163.334 195.18 164.004 193.206 164.03Z" fill="white"/>
<path d="M192.047 181.207H141.415C140.469 181.214 139.532 181.051 138.662 180.728C137.792 180.405 137.008 179.928 136.36 179.327C135.712 178.727 135.213 178.016 134.895 177.239C134.577 176.463 134.447 175.637 134.512 174.815C134.655 173.095 135.531 171.484 136.968 170.3C138.405 169.116 140.299 168.444 142.276 168.417H192.909C193.854 168.41 194.792 168.574 195.662 168.898C196.531 169.222 197.315 169.699 197.963 170.3C198.611 170.901 199.11 171.612 199.428 172.389C199.746 173.166 199.876 173.992 199.811 174.815C199.668 176.534 198.792 178.144 197.355 179.328C195.917 180.511 194.024 181.181 192.047 181.207Z" fill="white"/>
<path d="M147.659 142.747C149.2 141.441 149.307 139.356 147.897 138.09C146.487 136.824 144.094 136.856 142.552 138.161C141.011 139.466 140.904 141.551 142.314 142.817C143.725 144.084 146.117 144.052 147.659 142.747Z" fill="#584CF4"/>
<path d="M144.658 154.519L145.157 156.161C145.186 156.252 145.248 156.331 145.334 156.387C145.42 156.444 145.525 156.473 145.632 156.472H147.61C147.722 156.473 147.83 156.506 147.918 156.565C148.006 156.625 148.07 156.708 148.098 156.802C148.127 156.896 148.12 156.996 148.078 157.086C148.036 157.176 147.961 157.251 147.865 157.301L146.196 158.337C146.101 158.392 146.029 158.472 145.988 158.565C145.948 158.657 145.942 158.759 145.971 158.855L146.469 160.497C146.499 160.591 146.495 160.691 146.457 160.783C146.419 160.875 146.35 160.955 146.259 161.012C146.167 161.068 146.058 161.099 145.946 161.099C145.834 161.1 145.724 161.071 145.632 161.015L144.099 159.979C144.012 159.926 143.909 159.897 143.802 159.897C143.696 159.897 143.592 159.926 143.505 159.979L141.836 161.015C141.749 161.076 141.641 161.109 141.529 161.11C141.417 161.11 141.308 161.078 141.22 161.019C141.132 160.959 141.069 160.875 141.042 160.78C141.014 160.686 141.024 160.586 141.07 160.497L141.789 158.855C141.833 158.766 141.842 158.667 141.814 158.573C141.786 158.479 141.723 158.396 141.634 158.337L140.102 157.301C140.017 157.238 139.957 157.153 139.93 157.059C139.903 156.965 139.909 156.866 139.949 156.776C139.989 156.685 140.059 156.607 140.152 156.553C140.244 156.499 140.353 156.47 140.464 156.472H142.442C142.554 156.472 142.664 156.443 142.756 156.387C142.848 156.332 142.919 156.253 142.959 156.161L143.654 154.519C143.686 154.425 143.752 154.341 143.842 154.282C143.933 154.223 144.043 154.191 144.156 154.191C144.269 154.191 144.379 154.223 144.47 154.282C144.56 154.341 144.626 154.425 144.658 154.519Z" fill="#584CF4"/>
<path d="M146.03 173.074L145.715 177.684C145.7 177.878 145.602 178.059 145.44 178.192C145.278 178.324 145.064 178.398 144.842 178.399H140.215C140.112 178.394 140.012 178.371 139.921 178.331C139.829 178.292 139.747 178.237 139.68 178.169C139.613 178.101 139.562 178.023 139.53 177.938C139.499 177.853 139.487 177.763 139.496 177.674L139.882 171.935C139.896 171.741 139.993 171.559 140.153 171.426C140.314 171.292 140.527 171.217 140.749 171.215H144.076L146.03 173.074Z" fill="#584CF4"/>
<path d="M144.046 171.225L146.048 173.074H144.747C144.641 173.075 144.536 173.057 144.439 173.021C144.342 172.985 144.254 172.931 144.181 172.864C144.109 172.797 144.053 172.717 144.018 172.631C143.982 172.544 143.967 172.451 143.975 172.359L144.046 171.225ZM143.517 169.956L143.434 171.194L143.357 172.328C143.347 172.493 143.375 172.659 143.439 172.815C143.503 172.97 143.603 173.113 143.731 173.235C143.862 173.355 144.02 173.451 144.194 173.516C144.369 173.581 144.557 173.614 144.747 173.613H147.468L146.493 172.706L144.498 170.857L143.517 169.956Z" fill="white"/>
<path opacity="0.2" d="M192.659 139.777H154.768C154.614 139.778 154.462 139.752 154.321 139.699C154.18 139.647 154.053 139.569 153.948 139.472C153.843 139.375 153.761 139.26 153.709 139.134C153.657 139.008 153.635 138.875 153.645 138.741C153.67 138.462 153.814 138.201 154.048 138.01C154.282 137.818 154.589 137.709 154.91 137.705H192.796C192.949 137.704 193.101 137.731 193.242 137.783C193.383 137.836 193.51 137.913 193.615 138.01C193.721 138.107 193.802 138.222 193.854 138.348C193.906 138.474 193.928 138.608 193.918 138.741C193.895 139.02 193.752 139.281 193.519 139.472C193.286 139.664 192.979 139.773 192.659 139.777Z" fill="#584CF4"/>
<path opacity="0.2" d="M185.478 143.217H154.542C154.389 143.218 154.236 143.191 154.095 143.139C153.954 143.086 153.826 143.009 153.72 142.912C153.615 142.815 153.533 142.7 153.48 142.574C153.427 142.448 153.405 142.314 153.414 142.181C153.439 141.902 153.582 141.641 153.816 141.449C154.05 141.258 154.358 141.149 154.679 141.145H185.614C185.768 141.143 185.921 141.169 186.062 141.221C186.204 141.273 186.332 141.35 186.438 141.448C186.544 141.545 186.626 141.66 186.678 141.786C186.731 141.913 186.753 142.047 186.743 142.181C186.716 142.459 186.572 142.719 186.339 142.911C186.105 143.102 185.798 143.211 185.478 143.217Z" fill="#584CF4"/>
<path opacity="0.2" d="M191.412 158.311H180.957C180.636 158.314 180.328 158.422 180.093 158.614C179.859 158.806 179.716 159.068 179.692 159.347C179.682 159.481 179.704 159.614 179.756 159.74C179.808 159.866 179.889 159.981 179.995 160.078C180.1 160.175 180.227 160.253 180.368 160.305C180.509 160.358 180.661 160.384 180.815 160.383H191.269C191.59 160.38 191.899 160.272 192.133 160.08C192.367 159.888 192.51 159.627 192.534 159.347C192.544 159.214 192.522 159.08 192.47 158.954C192.418 158.828 192.337 158.713 192.231 158.616C192.126 158.519 191.999 158.442 191.858 158.389C191.717 158.337 191.565 158.31 191.412 158.311Z" fill="#584CF4"/>
<path opacity="0.2" d="M174.845 158.311H153.526C153.205 158.314 152.897 158.422 152.662 158.614C152.428 158.806 152.285 159.068 152.261 159.347C152.25 159.481 152.272 159.615 152.323 159.741C152.375 159.867 152.456 159.983 152.562 160.08C152.667 160.177 152.795 160.254 152.936 160.307C153.078 160.359 153.23 160.385 153.384 160.383H174.708C175.029 160.379 175.337 160.27 175.571 160.079C175.805 159.887 175.948 159.626 175.973 159.347C175.983 159.213 175.961 159.079 175.909 158.953C175.856 158.827 175.775 158.711 175.669 158.614C175.563 158.517 175.435 158.44 175.293 158.388C175.151 158.336 174.999 158.309 174.845 158.311Z" fill="#584CF4"/>
<path opacity="0.2" d="M184.694 154.882H153.752C153.431 154.885 153.122 154.993 152.888 155.185C152.654 155.377 152.511 155.639 152.487 155.918C152.477 156.051 152.499 156.185 152.551 156.311C152.603 156.437 152.684 156.552 152.79 156.649C152.895 156.746 153.022 156.824 153.163 156.876C153.304 156.928 153.456 156.955 153.61 156.954H184.545C184.866 156.95 185.174 156.841 185.408 156.65C185.642 156.458 185.785 156.197 185.81 155.918C185.82 155.785 185.798 155.652 185.747 155.526C185.695 155.401 185.614 155.286 185.51 155.189C185.405 155.092 185.278 155.014 185.138 154.962C184.998 154.909 184.846 154.882 184.694 154.882Z" fill="#584CF4"/>
<path opacity="0.2" d="M190.253 175.488H152.368C152.048 175.493 151.741 175.602 151.507 175.794C151.273 175.985 151.129 176.245 151.103 176.524C151.093 176.658 151.115 176.792 151.167 176.918C151.22 177.044 151.302 177.16 151.408 177.257C151.514 177.354 151.642 177.431 151.783 177.484C151.925 177.536 152.078 177.562 152.231 177.56H190.117C190.437 177.556 190.744 177.447 190.977 177.255C191.21 177.063 191.352 176.803 191.376 176.524C191.386 176.391 191.364 176.257 191.312 176.131C191.26 176.005 191.179 175.89 191.073 175.793C190.968 175.696 190.841 175.619 190.7 175.566C190.559 175.514 190.407 175.487 190.253 175.488Z" fill="#584CF4"/>
<path opacity="0.2" d="M183.535 172.054H152.6C152.279 172.058 151.971 172.167 151.737 172.358C151.503 172.55 151.359 172.811 151.334 173.09C151.325 173.223 151.346 173.357 151.398 173.483C151.451 173.608 151.532 173.724 151.637 173.821C151.742 173.918 151.87 173.995 152.011 174.048C152.152 174.1 152.304 174.127 152.457 174.126H183.398C183.719 174.121 184.026 174.013 184.259 173.821C184.492 173.629 184.634 173.368 184.658 173.09C184.668 172.956 184.646 172.822 184.594 172.697C184.541 172.571 184.46 172.456 184.355 172.359C184.25 172.261 184.122 172.184 183.981 172.132C183.84 172.079 183.688 172.053 183.535 172.054Z" fill="#584CF4"/>
</g>
<defs>
<clipPath id="clip0_7_9583">
<rect width="297" height="259" fill="white" transform="translate(0.5)"/>
</clipPath>
</defs>
</svg>
