<svg width="100" height="100" viewBox="0 0 100 100" fill="none" xmlns="http://www.w3.org/2000/svg">
<path d="M91.25 53.3333C93.125 24.5833 73.0119 8.33334 50 8.33334C26.9881 8.33334 8.33333 26.9881 8.33333 50C8.33333 73.0119 26.9881 91.6667 50 91.6667C64.546 91.6667 77.351 84.213 84.8041 72.9167H52.2917C51.9723 72.9167 51.6667 72.9167 51.3431 72.9167C50.8944 72.9167 50.4509 72.9167 50 72.9167C37.3435 72.9167 27.0833 62.6565 27.0833 50C27.0833 37.3435 37.3435 27.0833 50 27.0833C60.4167 27.0833 68.3333 31.064 71.6667 39.6057L43.9583 58.9583L91.25 53.3333Z" fill="url(#paint0_linear_3_539)"/>
<defs>
<linearGradient id="paint0_linear_3_539" x1="91.3714" y1="91.6667" x2="-7.49068" y2="63.104" gradientUnits="userSpaceOnUse">
<stop stop-color="#584CF4"/>
<stop offset="1" stop-color="#7369F8"/>
</linearGradient>
</defs>
</svg>
