<svg width="330" height="250" viewBox="0 0 330 250" fill="none" xmlns="http://www.w3.org/2000/svg">
<g clip-path="url(#clip0_5_1202)">
<path d="M132.149 51.8442H130.949V19.0059C130.949 16.51 130.457 14.0386 129.501 11.7327C128.544 9.42678 127.142 7.33158 125.375 5.56672C123.608 3.80185 121.511 2.40189 119.202 1.44675C116.893 0.491608 114.418 2.11472e-06 111.919 0H42.2599C37.213 -9.60927e-06 32.3727 2.00238 28.8039 5.56668C25.2352 9.13097 23.2302 13.9652 23.2302 19.0059V199.159C23.2302 201.655 23.7224 204.127 24.6788 206.433C25.6351 208.739 27.0368 210.834 28.8039 212.599C30.5709 214.364 32.6688 215.764 34.9776 216.719C37.2863 217.674 39.7609 218.165 42.2599 218.165H111.919C116.966 218.165 121.807 216.163 125.375 212.599C128.944 209.034 130.949 204.2 130.949 199.16V75.2191H132.149V51.8442Z" fill="#3F3D56"/>
<path d="M154.477 218.196H0.90308C0.796176 218.196 0.693651 218.154 0.618059 218.079C0.542467 218.003 0.5 217.901 0.5 217.794C0.5 217.687 0.542467 217.585 0.618059 217.509C0.693651 217.434 0.796176 217.391 0.90308 217.391H154.477C154.583 217.391 154.686 217.434 154.762 217.509C154.837 217.585 154.88 217.687 154.88 217.794C154.88 217.901 154.837 218.003 154.762 218.079C154.686 218.154 154.583 218.196 154.477 218.196Z" fill="#CBCBCB"/>
<path d="M280.336 221.538C280.75 220.869 281.238 220.249 281.79 219.688C282.017 219.452 282.257 219.23 282.505 219.014C284.01 217.676 285.844 216.763 287.82 216.368C289.796 215.973 291.841 216.111 293.746 216.767C295.65 217.423 297.346 218.574 298.657 220.102C299.969 221.629 300.849 223.478 301.208 225.458C302.871 219.318 298.543 213.27 294.192 208.624C289.839 203.98 284.864 198.885 284.889 192.522C284.901 188.981 286.635 185.822 289.254 183.48C289.335 183.409 289.415 183.338 289.498 183.27C292.663 180.56 296.735 179.143 300.9 179.301C308.639 179.715 315.396 184.91 320.089 191.071C327.642 200.986 330.952 214.902 325.664 226.189C321.013 236.115 311.093 242.009 300.969 246.748C299.556 247.409 298.145 248.051 296.737 248.673C296.727 248.676 296.717 248.682 296.708 248.685C296.64 248.715 296.572 248.744 296.509 248.775C296.218 248.903 295.927 249.031 295.639 249.158L295.773 249.245L296.189 249.514C296.045 249.427 295.902 249.342 295.758 249.255C295.715 249.228 295.669 249.203 295.627 249.177C290.654 246.197 285.613 243.045 282.178 238.393C278.615 233.563 277.183 226.644 280.336 221.538Z" fill="#F1F1F1"/>
<path d="M313.511 210.321C314.612 212.822 315.342 215.471 315.678 218.183C315.942 220.601 315.842 223.045 315.383 225.434C314.396 230.343 312.242 234.944 309.104 238.849C306.736 241.814 304.003 244.468 300.969 246.748C299.556 247.41 298.145 248.051 296.737 248.673C296.727 248.676 296.717 248.682 296.708 248.685C296.64 248.715 296.572 248.744 296.509 248.775C296.218 248.903 295.927 249.031 295.639 249.158L295.773 249.245L296.189 249.514C296.045 249.427 295.902 249.342 295.758 249.255C295.715 249.228 295.669 249.203 295.627 249.177C296.721 245.354 296.882 241.325 296.096 237.427C295.31 233.529 293.6 229.877 291.109 226.775C288.605 223.712 285.412 221.284 281.79 219.688C282.017 219.452 282.257 219.23 282.505 219.014C283.9 219.654 285.236 220.416 286.497 221.291C291.006 224.404 294.392 228.884 296.154 234.068C297.726 238.772 297.923 243.826 296.72 248.637C296.97 248.474 297.22 248.307 297.464 248.14C302.096 245.02 306.365 241.274 309.581 236.679C312.354 232.795 314.129 228.291 314.749 223.561C315.365 218.394 314.071 213.314 311.761 208.704C309.211 203.772 305.997 199.211 302.21 195.149C298.406 190.974 294.104 187.281 289.401 184.15C289.295 184.078 289.221 183.969 289.194 183.844C289.166 183.72 289.188 183.589 289.254 183.48C289.304 183.38 289.392 183.305 289.498 183.27C289.552 183.256 289.608 183.255 289.662 183.266C289.717 183.277 289.768 183.3 289.812 183.333C290.393 183.72 290.968 184.11 291.537 184.512C296.273 187.862 300.574 191.785 304.341 196.193C307.981 200.443 311.294 205.164 313.511 210.321Z" fill="white"/>
<path d="M175.523 250H329.097C329.204 250 329.306 249.958 329.382 249.882C329.458 249.807 329.5 249.704 329.5 249.597C329.5 249.491 329.458 249.388 329.382 249.313C329.306 249.237 329.204 249.195 329.097 249.195H175.523C175.417 249.195 175.314 249.237 175.238 249.313C175.163 249.388 175.12 249.491 175.12 249.597C175.12 249.704 175.163 249.807 175.238 249.882C175.314 249.958 175.417 250 175.523 250Z" fill="#CBCBCB"/>
<path d="M212.459 217.879L205.012 217.762L205.908 243.111H212.457L212.459 217.879Z" fill="#FFB7B7"/>
<path d="M214.128 240.975L201.229 240.975H201.229C199.049 240.975 196.958 241.84 195.416 243.379C193.875 244.919 193.009 247.007 193.009 249.184V249.451L214.128 249.452L214.128 240.975Z" fill="#2F2E41"/>
<path d="M261.762 211.156L253.628 216.372L269.899 235.923L275.411 232.388L261.762 211.156Z" fill="#FFB7B7"/>
<path d="M275.661 229.69L264.807 236.65L264.806 236.65C262.972 237.826 261.681 239.683 261.216 241.81C260.752 243.937 261.153 246.162 262.33 247.994L262.475 248.219L280.247 236.823L275.661 229.69Z" fill="#2F2E41"/>
<path d="M196.146 150.452C194.753 150.839 193.266 150.701 191.968 150.066C190.669 149.431 189.649 148.342 189.1 147.006C188.552 145.67 188.513 144.18 188.992 142.817C189.47 141.454 190.432 140.314 191.696 139.613L204.232 125.408L214.835 127.696L199.922 142.285C200.289 143.06 200.481 143.907 200.484 144.765C200.488 145.622 200.303 146.47 199.943 147.249C199.583 148.028 199.056 148.718 198.4 149.271C197.744 149.825 196.975 150.228 196.146 150.452H196.146Z" fill="#FFB7B7"/>
<path d="M173.035 124.481C175.469 124.481 177.442 122.51 177.442 120.079C177.442 117.648 175.469 115.677 173.035 115.677C170.601 115.677 168.628 117.648 168.628 120.079C168.628 122.51 170.601 124.481 173.035 124.481Z" fill="#F1F1F1"/>
<path d="M302.021 112.404C304.455 112.404 306.428 110.433 306.428 108.002C306.428 105.571 304.455 103.6 302.021 103.6C299.587 103.6 297.613 105.571 297.613 108.002C297.613 110.433 299.587 112.404 302.021 112.404Z" fill="#F1F1F1"/>
<path d="M112.687 4.94469H103.594C104.013 5.96859 104.172 7.07949 104.059 8.17953C103.946 9.27956 103.564 10.335 102.947 11.2528C102.329 12.1706 101.495 12.9226 100.518 13.4426C99.5406 13.9626 98.4504 14.2346 97.3433 14.2347H57.4363C56.3291 14.2346 55.2389 13.9626 54.2618 13.4426C53.2847 12.9226 52.4506 12.1706 51.833 11.2528C51.2154 10.335 50.8333 9.27956 50.7203 8.17953C50.6073 7.0795 50.767 5.96859 51.1851 4.94469H42.6924C40.8261 4.94469 38.9782 5.31181 37.254 6.02509C35.5298 6.73838 33.9632 7.78386 32.6436 9.10183C31.3239 10.4198 30.2771 11.9845 29.563 13.7065C28.8488 15.4285 28.4812 17.2742 28.4812 19.1381V199.027C28.4812 200.891 28.8488 202.737 29.563 204.459C30.2771 206.181 31.3239 207.746 32.6435 209.064C33.9632 210.382 35.5298 211.427 37.254 212.14C38.9782 212.854 40.8261 213.221 42.6924 213.221H112.687C114.553 213.221 116.401 212.854 118.126 212.14C119.85 211.427 121.416 210.382 122.736 209.064C124.056 207.746 125.102 206.181 125.817 204.459C126.531 202.737 126.898 200.891 126.898 199.027V19.1381C126.898 17.2742 126.531 15.4285 125.817 13.7065C125.102 11.9845 124.056 10.4198 122.736 9.10183C121.416 7.78386 119.85 6.73838 118.126 6.02509C116.401 5.31181 114.553 4.94468 112.687 4.94469Z" fill="white"/>
<path d="M77.6898 139.163C96.4888 139.163 111.728 123.942 111.728 105.167C111.728 86.391 96.4888 71.1704 77.6898 71.1704C58.8908 71.1704 43.6512 86.391 43.6512 105.167C43.6512 123.942 58.8908 139.163 77.6898 139.163Z" fill="url(#paint0_linear_5_1202)"/>
<path d="M74.3167 118.135C73.5509 118.136 72.8055 117.889 72.1929 117.43L72.1549 117.402L64.1553 111.29C63.7848 111.006 63.4739 110.652 63.2403 110.249C63.0067 109.845 62.8551 109.399 62.7939 108.937C62.7328 108.475 62.7634 108.005 62.884 107.555C63.0047 107.104 63.213 106.682 63.497 106.312C63.781 105.942 64.1353 105.631 64.5394 105.398C64.9436 105.165 65.3899 105.013 65.8527 104.952C66.3155 104.891 66.7859 104.922 67.2368 105.042C67.6878 105.163 68.1106 105.371 68.4811 105.654L73.6626 109.623L85.9066 93.6691C86.1905 93.2992 86.5446 92.9888 86.9486 92.7556C87.3527 92.5224 87.7987 92.3709 88.2613 92.3099C88.724 92.2489 89.1941 92.2795 89.6449 92.3999C90.0957 92.5203 90.5183 92.7283 90.8887 93.0118L90.8897 93.0126L90.8137 93.118L90.8918 93.0126C91.6389 93.5861 92.1277 94.4322 92.2509 95.3653C92.3742 96.2983 92.1217 97.2421 91.549 97.9895L77.1474 116.746C76.8142 117.178 76.3858 117.528 75.8955 117.768C75.4051 118.008 74.866 118.132 74.3198 118.131L74.3167 118.135Z" fill="white"/>
<path d="M237.389 99.5994L206.145 138.77L196.621 134.403L233.345 77.2995L237.389 99.5994Z" fill="#3F3D56"/>
<path d="M312.149 38.903C312.351 37.4731 312.02 36.019 311.22 34.8162C310.42 33.6134 309.206 32.7455 307.808 32.377C306.41 32.0085 304.925 32.165 303.635 32.8167C302.345 33.4685 301.339 34.5703 300.808 35.9134L288.346 50.1824L292.002 60.3824L304.535 43.7096C305.353 43.9712 306.218 44.0506 307.07 43.9421C307.922 43.8336 308.74 43.5399 309.466 43.0816C310.192 42.6234 310.808 42.0117 311.272 41.2897C311.735 40.5678 312.035 39.753 312.149 38.903Z" fill="#FFB7B7"/>
<path d="M260.492 94.4239L301.859 50.3301L296.28 41.4702L244.394 85.2963L260.492 94.4239Z" fill="#3F3D56"/>
<path d="M251.259 67.6328C259.273 67.6328 265.77 61.1442 265.77 53.1401C265.77 45.136 259.273 38.6473 251.259 38.6473C243.245 38.6473 236.748 45.136 236.748 53.1401C236.748 61.1442 243.245 67.6328 251.259 67.6328Z" fill="#2F2E41"/>
<path d="M252.426 44.953C255.548 41.7905 259.327 39.3501 263.495 37.8035C266.171 36.8134 269.084 36.2017 271.881 36.764C274.679 37.3263 277.325 39.2592 278.105 42.0006C278.743 44.2423 278.084 46.6559 277.094 48.7661C276.104 50.8763 274.781 52.8331 273.98 55.0221C273.163 57.2556 272.917 59.6576 273.265 62.01C273.613 64.3625 274.544 66.5909 275.973 68.4929C277.402 70.3949 279.284 71.9104 281.448 72.9017C283.612 73.8931 285.99 74.3289 288.366 74.1696C285.617 74.5377 283.083 75.8278 280.397 76.5145C277.71 77.2012 274.539 77.1547 272.542 75.2322C270.43 73.1982 270.387 69.8912 270.489 66.9623C270.641 62.6085 270.793 58.2546 270.945 53.9007C271.022 51.6803 271.089 49.3888 270.287 47.3164C269.485 45.244 267.58 43.4292 265.355 43.4481C263.669 43.4624 262.177 44.4824 260.825 45.4883C259.473 46.4943 258.042 47.5676 256.363 47.7172C254.684 47.8668 252.766 46.6256 252.892 44.9464L252.426 44.953Z" fill="#2F2E41"/>
<path d="M264.66 133.752C264.66 133.752 246.586 73.7974 240.778 72.9872C234.969 72.177 225.611 88.3709 225.611 88.3709C213.477 103.833 200.965 153.919 200.965 153.919C200.965 153.919 221.823 155.222 237.07 163.324C252.317 171.426 270.311 162.914 270.311 162.914L264.66 133.752Z" fill="#3F3D56"/>
<path opacity="0.1" d="M264.66 133.752C264.66 133.752 246.586 73.7974 240.778 72.9872C234.969 72.177 227.988 88.5352 227.988 88.5352C221.942 113.495 200.965 153.919 200.965 153.919C200.965 153.919 221.823 155.222 237.07 163.324C252.317 171.426 270.311 162.914 270.311 162.914L264.66 133.752Z" fill="black"/>
<path d="M249.832 115.814V145.941L253.382 189.582L271.117 222.593L262.653 228.632L238.468 197.231L228.902 166.052L213.88 235.073L202.594 234.268L210.432 138.571L225.306 111.634L249.832 115.814Z" fill="#2F2E41"/>
<path d="M231.609 86.6746C225.966 92.3107 231.206 98.3493 231.206 98.3493L224.757 112.842L250.151 119.686L259.025 80.0811L252.979 73.6399C240.886 73.2373 240.88 72.987 240.88 72.987C238.761 75.0578 231.609 86.6746 231.609 86.6746Z" fill="url(#paint1_linear_5_1202)"/>
<path d="M260.048 75.9781C258.894 75.1278 257.583 74.5145 256.191 74.1738C254.799 73.833 253.352 73.7715 251.936 73.993C250.52 74.2144 249.162 74.7142 247.94 75.4636C246.719 76.213 245.658 77.1969 244.82 78.3585C238.436 87.2363 232.533 101.572 240.667 119.45C253.726 148.158 265.091 162.854 269.711 162.852C269.912 162.854 270.113 162.822 270.304 162.759C273.148 161.795 277.26 156.989 278.004 152.754C278.271 151.238 278.207 149.126 276.392 147.677C271.178 143.511 261.818 130.542 258.898 113.472C257.284 104.04 260.413 95.448 263.323 89.9014C264.552 87.6063 264.911 84.9458 264.335 82.4075C263.76 79.8693 262.287 77.6233 260.188 76.0813L260.048 75.9781Z" fill="#3F3D56"/>
<path d="M252.006 66.2091C257.182 63.383 259.084 56.9009 256.255 51.731C253.425 46.5611 246.935 44.6611 241.758 47.4872C236.582 50.3133 234.68 56.7954 237.509 61.9653C240.339 67.1353 246.829 69.0353 252.006 66.2091Z" fill="#FFB7B7"/>
<path d="M231.86 56.0415H247.284L247.442 53.8298L248.233 56.0415H250.608L250.921 51.658L252.489 56.0415H257.084V55.8243C257.081 52.7726 255.865 49.8469 253.705 47.689C251.544 45.5311 248.615 44.3172 245.559 44.3138H243.385C240.329 44.3172 237.4 45.5311 235.239 47.689C233.078 49.8468 231.863 52.7726 231.86 55.8243V56.0415Z" fill="#2F2E41"/>
<path d="M254.754 63.9913L261.336 61.8581V45.8937H248.903L249.211 46.2007C253.494 50.4724 258.257 65.6278 254.754 63.9913Z" fill="#2F2E41"/>
<path d="M212.134 15.7852C216.126 15.7852 219.363 12.5528 219.363 8.5654C219.363 4.57799 216.126 1.34557 212.134 1.34557C208.141 1.34557 204.905 4.57799 204.905 8.5654C204.905 12.5528 208.141 15.7852 212.134 15.7852Z" fill="#F1F1F1"/>
</g>
<defs>
<linearGradient id="paint0_linear_5_1202" x1="111.728" y1="139.163" x2="30.7384" y2="115.651" gradientUnits="userSpaceOnUse">
<stop stop-color="#584CF4"/>
<stop offset="1" stop-color="#7369F8"/>
</linearGradient>
<linearGradient id="paint1_linear_5_1202" x1="259.025" y1="119.686" x2="216.735" y2="110.688" gradientUnits="userSpaceOnUse">
<stop stop-color="#584CF4"/>
<stop offset="1" stop-color="#7369F8"/>
</linearGradient>
<clipPath id="clip0_5_1202">
<rect width="329" height="250" fill="white" transform="translate(0.5)"/>
</clipPath>
</defs>
</svg>
