<svg width="276" height="250" viewBox="0 0 276 250" fill="none" xmlns="http://www.w3.org/2000/svg">
<g clip-path="url(#clip0_4_507)">
<path d="M190.727 249.37H112.413C100.667 249.37 91.1107 239.824 91.1107 228.09V21.2801C91.1107 9.54629 100.667 0 112.413 0H190.727C202.473 0 212.029 9.54629 212.029 21.2801C213.487 104.329 215.973 197.33 212.029 228.09C212.029 239.824 202.473 249.37 190.727 249.37L190.727 249.37Z" fill="#3F3D56"/>
<path d="M213.121 76.0715C212.624 76.0715 212.22 76.4752 212.22 76.9717V105.78C212.22 106.276 212.624 106.68 213.121 106.68C213.618 106.68 214.022 106.276 214.022 105.78V76.9717C214.022 76.4752 213.618 76.0715 213.121 76.0715Z" fill="#3F3D56"/>
<path d="M210.002 21.2803V228.086C210.002 238.3 202.044 246.654 191.982 247.302H191.978C191.829 247.311 191.68 247.32 191.527 247.325C191.261 247.338 190.995 247.343 190.725 247.343C190.725 247.343 189.734 247.271 187.922 247.136C186.093 247.001 183.43 246.798 180.109 246.533C179.113 246.456 178.063 246.371 176.955 246.281C174.747 246.101 172.323 245.902 169.723 245.677C168.686 245.592 167.614 245.497 166.519 245.403C160.923 244.921 154.655 244.359 148.045 243.719C146.927 243.616 145.801 243.508 144.665 243.395C144.368 243.364 93.1385 230.499 93.1385 228.086V21.2803C93.1385 10.6438 101.767 2.02388 112.415 2.02388H123.923C125.762 2.02388 127.24 3.45528 127.397 5.2873C127.411 5.40884 127.424 5.53036 127.447 5.6519C127.78 7.49293 129.47 8.77578 131.345 8.77578H171.796C173.67 8.77578 175.36 7.49293 175.693 5.6519C175.716 5.53036 175.729 5.40885 175.743 5.2873C175.9 3.45528 177.378 2.02388 179.217 2.02388H190.725C201.373 2.02388 210.002 10.6438 210.002 21.2803H210.002Z" fill="white"/>
<path d="M90.6601 54.4654C90.1631 54.4654 89.7589 54.8691 89.7589 55.3657V62.5677C89.7589 63.0642 90.1631 63.4679 90.6601 63.4679C91.1571 63.4679 91.5613 63.0642 91.5613 62.5677V55.3657C91.5613 54.8692 91.1571 54.4654 90.6601 54.4654Z" fill="#3F3D56"/>
<path d="M90.6601 76.0715C90.1631 76.0715 89.7589 76.4752 89.7589 76.9717V90.9257C89.7589 91.4222 90.1631 91.8259 90.6601 91.8259C91.1571 91.8259 91.5613 91.4222 91.5613 90.9257V76.9717C91.5613 76.4752 91.1571 76.0715 90.6601 76.0715V76.0715Z" fill="#3F3D56"/>
<path d="M90.6601 95.877C90.1631 95.877 89.7589 96.2808 89.7589 96.7773V110.731C89.7589 111.228 90.1631 111.631 90.6601 111.631C91.1571 111.631 91.5613 111.228 91.5613 110.731V96.7773C91.5613 96.2808 91.1571 95.877 90.6601 95.877Z" fill="#3F3D56"/>
<path d="M123.627 5.17653H106.357C106.274 5.17653 106.206 5.2443 106.206 5.32791V7.27578C106.206 7.35938 106.274 7.42716 106.357 7.42716H123.627C123.711 7.42716 123.779 7.35938 123.779 7.27578V5.32791C123.779 5.2443 123.711 5.17653 123.627 5.17653Z" fill="#E6E6E6"/>
<path d="M182.065 7.42717C183.06 7.42717 183.867 6.62105 183.867 5.62666C183.867 4.63227 183.06 3.82616 182.065 3.82616C181.069 3.82616 180.262 4.63227 180.262 5.62666C180.262 6.62105 181.069 7.42717 182.065 7.42717Z" fill="#E6E6E6"/>
<path d="M187.021 7.42717C188.017 7.42717 188.823 6.62105 188.823 5.62666C188.823 4.63227 188.017 3.82616 187.021 3.82616C186.026 3.82616 185.219 4.63227 185.219 5.62666C185.219 6.62105 186.026 7.42717 187.021 7.42717Z" fill="#E6E6E6"/>
<path d="M191.978 7.42717C192.973 7.42717 193.78 6.62105 193.78 5.62666C193.78 4.63227 192.973 3.82616 191.978 3.82616C190.982 3.82616 190.175 4.63227 190.175 5.62666C190.175 6.62105 190.982 7.42717 191.978 7.42717Z" fill="#E6E6E6"/>
<path d="M6.99268 249.419C6.99268 249.741 7.2516 250 7.57403 250H275.419C275.741 250 276 249.741 276 249.419C276 249.097 275.741 248.839 275.419 248.839H7.57403C7.2516 248.839 6.99268 249.097 6.99268 249.419Z" fill="#CCCCCC"/>
<path d="M92.3934 245.605L86.9007 245.605L84.2878 224.44L92.3945 224.441L92.3934 245.605Z" fill="#FFB6B6"/>
<path d="M73.5748 245.481C73.4038 245.768 73.3135 246.697 73.3135 247.032C73.3135 248.06 74.1482 248.894 75.1778 248.894H92.1879C92.8903 248.894 93.4597 248.325 93.4597 247.624V246.916C93.4597 246.916 94.3012 244.79 92.5687 242.169C92.5687 242.169 90.4155 244.221 87.1981 241.007L86.2493 239.29L79.3813 244.308L75.5745 244.776C74.7417 244.878 74.0033 244.76 73.5749 245.481H73.5748V245.481H73.5748Z" fill="#2F2E41"/>
<path d="M62.0181 216.209L56.5254 216.191L53.9798 195.019L62.0864 195.045L62.0181 216.209Z" fill="#FFB6B6"/>
<path d="M43.2 216.025C43.028 216.312 42.9348 217.24 42.9338 217.575C42.9305 218.604 43.7625 219.44 44.7921 219.443L61.8022 219.497C62.5045 219.499 63.0757 218.932 63.078 218.231L63.0802 217.523C63.0802 217.523 63.9285 215.4 62.2044 212.774C62.2044 212.774 60.0446 214.819 56.8374 211.594L55.8941 209.874L49.0102 214.87L45.2019 215.326C44.3688 215.426 43.6307 215.305 43.2 216.025H43.2V216.025Z" fill="#2F2E41"/>
<path d="M84.3824 117.12L77.5432 117.608C77.5432 117.608 54.3901 130.758 52.436 133.686C50.482 136.614 47.7952 140.762 50.2377 145.154C52.6803 149.546 50.8213 202.725 50.8213 202.725L62.4931 200.087L69.9713 144.448L85.6036 142.252C85.6036 142.252 90.9772 153.833 89.0232 163.414C87.0692 172.996 86.0921 178.852 86.0921 178.852L83.6496 235.459L93.1755 235.215L101.724 182.756L116.38 141.276L97.3278 118.828L84.3824 117.12Z" fill="#2F2E41"/>
<path d="M52.847 112.413C50.0657 113.929 48.5941 116.591 49.5601 118.359C50.526 120.127 53.5637 120.331 56.345 118.815C57.5624 118.151 58.5289 117.268 59.1498 116.336L70.8541 109.763L67.6495 104.342L56.4515 111.397C55.331 111.415 54.0644 111.749 52.847 112.413H52.847Z" fill="#FFB6B6"/>
<path d="M118.09 57.0959L103.923 58.5599L102.457 63.4399L88.779 70.7598L93.1756 101.504L89.756 106.872L91.2215 112.24C91.2215 112.24 87.3134 112.728 87.802 115.656L79.0088 117.12C79.0088 117.12 90.6715 119.498 93.1448 131.241C95.6181 142.984 116.135 144.448 116.135 144.448L132.256 94.1838L133.722 64.4159L122.486 61.4879L118.09 57.0959Z" fill="#E6E6E6"/>
<path d="M92.3176 70.9876C92.3176 70.9876 87.7295 69.2425 86.1487 71.3431C84.5679 73.4437 74.1251 98.9321 74.1251 98.9321L58.8035 106.926L63.1121 114.421L82.8417 107.859L95.8588 84.077L92.3176 70.9876Z" fill="#E6E6E6"/>
<path d="M237 154.695V206.422C237 210.997 233.275 214.718 228.695 214.718H100.706C96.1265 214.718 92.4012 210.997 92.4012 206.422V154.695C92.4012 150.12 96.1265 146.399 100.706 146.399H228.695C233.275 146.399 237 150.12 237 154.695Z" fill="white"/>
<path d="M237 154.695V206.422C237 210.997 233.275 214.718 228.695 214.718H100.706C96.1265 214.718 92.4012 210.997 92.4012 206.422V154.695C92.4012 150.12 96.1265 146.399 100.706 146.399H228.695C233.275 146.399 237 150.12 237 154.695ZM228.695 213.742C232.742 213.742 236.023 210.465 236.023 206.422V180.343C236.023 162.135 221.247 147.375 203.02 147.375H100.706C96.6589 147.375 93.3782 150.652 93.3782 154.695V206.422C93.3782 210.465 96.6589 213.742 100.706 213.742H228.695Z" fill="#3F3D56"/>
<path d="M149.855 177.651H133.138C132.716 177.651 132.374 177.993 132.374 178.414C132.374 178.835 132.716 179.178 133.138 179.178H149.855C150.276 179.178 150.619 178.835 150.619 178.414C150.619 177.993 150.276 177.651 149.855 177.651Z" fill="url(#paint0_linear_4_507)"/>
<path d="M175.257 177.651H158.54C158.119 177.651 157.776 177.993 157.776 178.414C157.776 178.835 158.119 179.178 158.54 179.178H175.257C175.679 179.178 176.022 178.835 176.022 178.414C176.022 177.993 175.679 177.651 175.257 177.651Z" fill="url(#paint1_linear_4_507)"/>
<path d="M149.855 185.999H133.138C132.716 185.999 132.374 186.341 132.374 186.762C132.374 187.183 132.716 187.526 133.138 187.526H149.855C150.276 187.526 150.619 187.183 150.619 186.762C150.619 186.341 150.276 185.999 149.855 185.999Z" fill="url(#paint2_linear_4_507)"/>
<path d="M175.257 185.999H158.54C158.119 185.999 157.776 186.341 157.776 186.762C157.776 187.183 158.119 187.526 158.54 187.526H175.257C175.679 187.526 176.022 187.183 176.022 186.762C176.022 186.341 175.679 185.999 175.257 185.999Z" fill="url(#paint3_linear_4_507)"/>
<path d="M201.424 186.762C201.424 186.341 201.081 185.999 200.66 185.999H183.943C183.521 185.999 183.178 186.341 183.178 186.762C183.178 187.183 183.521 187.526 183.943 187.526H200.66C201.081 187.526 201.424 187.183 201.424 186.762Z" fill="url(#paint4_linear_4_507)"/>
<path d="M140.085 170.985C140.506 170.985 140.849 170.643 140.849 170.222C140.849 169.801 140.506 169.458 140.085 169.458H123.368C122.946 169.458 122.603 169.801 122.603 170.222C122.603 170.643 122.946 170.985 123.368 170.985H140.085Z" fill="url(#paint5_linear_4_507)"/>
<path d="M189.316 170.675H206.034C206.455 170.675 206.798 170.332 206.798 169.911C206.798 169.49 206.455 169.148 206.034 169.148H189.316C188.895 169.148 188.552 169.49 188.552 169.911C188.552 170.332 188.895 170.675 189.316 170.675Z" fill="url(#paint6_linear_4_507)"/>
<path d="M147.127 170.835H181.785C182.207 170.835 182.55 170.493 182.55 170.072C182.55 169.651 182.207 169.308 181.785 169.308H147.127C146.706 169.308 146.363 169.651 146.363 170.072C146.363 170.493 146.706 170.835 147.127 170.835Z" fill="url(#paint7_linear_4_507)"/>
<path d="M160.764 193.583H144.046C143.625 193.583 143.282 193.925 143.282 194.346C143.282 194.767 143.625 195.11 144.046 195.11H160.764C161.185 195.11 161.528 194.767 161.528 194.346C161.528 193.925 161.185 193.583 160.764 193.583Z" fill="url(#paint8_linear_4_507)"/>
<path d="M214.754 154.305V206.033C214.754 210.607 211.029 214.328 206.449 214.328H154.668C150.088 214.328 146.363 210.607 146.363 206.033V154.305C146.363 149.73 150.088 146.009 154.668 146.009H206.449C211.029 146.009 214.754 149.73 214.754 154.305Z" fill="white"/>
<path d="M214.754 154.305V206.033C214.754 210.607 211.029 214.328 206.449 214.328H154.668C150.088 214.328 146.363 210.607 146.363 206.033V154.305C146.363 149.73 150.088 146.009 154.668 146.009H206.449C211.029 146.009 214.754 149.73 214.754 154.305ZM203.237 213.352C209.058 213.352 213.777 208.638 213.777 202.824V179.953C213.777 161.745 199.001 146.985 180.774 146.985H154.668C150.621 146.985 147.34 150.262 147.34 154.305V198.815C147.34 206.844 153.855 213.352 161.892 213.352H203.237V213.352H203.237Z" fill="#3F3D56"/>
<path d="M187.452 167.135H170.735C170.313 167.135 169.97 166.793 169.97 166.372C169.97 165.951 170.313 165.608 170.735 165.608H187.452C187.873 165.608 188.216 165.951 188.216 166.372C188.216 166.793 187.873 167.135 187.452 167.135V167.135Z" fill="url(#paint9_linear_4_507)"/>
<path d="M187.452 183.417H170.735C170.313 183.417 169.97 183.074 169.97 182.653C169.97 182.232 170.313 181.89 170.735 181.89H187.452C187.873 181.89 188.216 182.232 188.216 182.653C188.216 183.074 187.873 183.417 187.452 183.417V183.417Z" fill="url(#paint10_linear_4_507)"/>
<path d="M179.147 205.865H162.43C162.008 205.865 161.665 205.522 161.665 205.101C161.665 204.68 162.008 204.338 162.43 204.338H179.147C179.568 204.338 179.911 204.68 179.911 205.101C179.911 205.522 179.568 205.865 179.147 205.865V205.865Z" fill="url(#paint11_linear_4_507)"/>
<path d="M196.422 175.281H161.764C161.342 175.281 161 174.939 161 174.518C161 174.097 161.343 173.754 161.764 173.754H196.422C196.844 173.754 197.186 174.097 197.186 174.518C197.186 174.939 196.844 175.281 196.422 175.281V175.281Z" fill="url(#paint12_linear_4_507)"/>
<path d="M205.011 125.641C205.011 109.504 191.358 100.627 175.762 96.4228C155.767 91.0324 141.123 101.94 146.514 125.641C147.735 131.013 150.657 137.286 154.274 142.653H182.976C192.564 136.417 205.011 138.166 205.011 125.641H205.011Z" fill="url(#paint13_linear_4_507)"/>
<path d="M175.333 156.146C176.966 153.037 179.035 150.793 181.316 149.086H154.433C161.352 158.959 170.528 165.296 175.333 156.146Z" fill="url(#paint14_linear_4_507)"/>
<path d="M172.231 108.366C173.957 108.366 175.356 109.764 175.356 111.488V117.731H169.106V111.488C169.106 109.764 170.505 108.366 172.231 108.366ZM176.918 117.731V111.488C176.918 108.902 174.82 106.805 172.231 106.805C169.642 106.805 167.543 108.902 167.543 111.488V117.731C165.818 117.731 164.419 119.129 164.419 120.853V128.657C164.419 130.381 165.818 131.778 167.543 131.778H176.918C178.644 131.778 180.043 130.381 180.043 128.657V120.853C180.043 119.129 178.644 117.731 176.918 117.731H176.918ZM167.543 119.292H176.918C177.781 119.292 178.481 119.991 178.481 120.853V128.657C178.481 129.519 177.781 130.217 176.918 130.217H167.543C166.681 130.217 165.981 129.519 165.981 128.657V120.853C165.981 119.991 166.681 119.292 167.543 119.292Z" fill="white"/>
<path d="M127.574 144.713C127.198 147.856 128.515 150.597 130.517 150.837C132.519 151.076 134.448 148.723 134.824 145.58C134.989 144.204 134.829 142.906 134.43 141.86L135.859 128.523L129.58 127.986L128.837 141.191C128.202 142.113 127.739 143.337 127.574 144.713Z" fill="#FFB6B6"/>
<path d="M28.5778 158.765C44.3608 158.765 57.1556 145.984 57.1556 130.217C57.1556 114.451 44.3608 101.67 28.5778 101.67C12.7947 101.67 0 114.451 0 130.217C0 145.984 12.7947 158.765 28.5778 158.765Z" fill="url(#paint15_linear_4_507)"/>
<path d="M28.5778 117.437C30.5965 117.437 32.2331 119.072 32.2331 121.089V128.392H24.9225V121.089C24.9225 119.072 26.559 117.437 28.5778 117.437ZM34.0607 128.392V121.089C34.0607 118.064 31.6059 115.612 28.5778 115.612C25.5496 115.612 23.0948 118.064 23.0948 121.089V128.392C21.076 128.392 19.4395 130.027 19.4395 132.043V141.172C19.4395 143.189 21.0761 144.823 23.0948 144.823H34.0607C36.0795 144.823 37.716 143.189 37.716 141.172V132.043C37.716 130.027 36.0795 128.392 34.0607 128.392H34.0607ZM23.0948 130.217H34.0607C35.0701 130.217 35.8884 131.035 35.8884 132.043V141.172C35.8884 142.18 35.0701 142.998 34.0607 142.998H23.0948C22.0854 142.998 21.2672 142.18 21.2672 141.172V132.043C21.2672 131.035 22.0854 130.217 23.0948 130.217Z" fill="white"/>
<path d="M129.081 65.1479C129.081 65.1479 135.92 63.1959 137.386 66.1239C138.851 69.0518 142.271 107.604 142.271 107.604L135.676 138.377L128.104 136.396L132.012 105.164L126.638 81.7398L129.081 65.1479Z" fill="#E6E6E6"/>
<path d="M110.623 55.2441C116.706 55.2441 121.636 50.3186 121.636 44.2427C121.636 38.1668 116.706 33.2412 110.623 33.2412C104.541 33.2412 99.6104 38.1668 99.6104 44.2427C99.6104 50.3186 104.541 55.2441 110.623 55.2441Z" fill="#FFB6B6"/>
<path d="M104.9 54.1679C104.9 54.1679 95.1296 53.6799 96.1066 45.8719C93.6884 37.5572 95.8288 32.1586 103.434 30.2559C103.434 30.2559 105.388 29.7679 105.877 29.7679C112.302 29.7679 115.647 31.7199 115.647 31.7199C115.647 31.7199 115.158 29.7871 115.647 30.2655C116.135 30.7439 116.624 31.7199 116.624 31.7199C116.624 31.7199 121.509 34.1599 121.509 39.0399C121.509 43.9199 121.509 41.9679 121.509 41.9679C121.509 41.9679 120.532 41.9679 119.555 39.0399C118.578 36.1119 112.252 38.0639 112.252 38.0639L112.716 39.0399L111.25 38.5519L109.785 40.0159L108.808 39.5279C108.808 39.5279 104.9 39.5279 105.388 39.5279C105.877 39.5279 105.536 42.8443 105.536 42.8443L101.969 46.8479L105.877 54.1679H104.9Z" fill="#2F2E41"/>
</g>
<defs>
<linearGradient id="paint0_linear_4_507" x1="150.619" y1="179.178" x2="148.809" y2="172.907" gradientUnits="userSpaceOnUse">
<stop stop-color="#584CF4"/>
<stop offset="1" stop-color="#7369F8"/>
</linearGradient>
<linearGradient id="paint1_linear_4_507" x1="176.022" y1="179.178" x2="174.211" y2="172.907" gradientUnits="userSpaceOnUse">
<stop stop-color="#584CF4"/>
<stop offset="1" stop-color="#7369F8"/>
</linearGradient>
<linearGradient id="paint2_linear_4_507" x1="150.619" y1="187.526" x2="148.809" y2="181.254" gradientUnits="userSpaceOnUse">
<stop stop-color="#584CF4"/>
<stop offset="1" stop-color="#7369F8"/>
</linearGradient>
<linearGradient id="paint3_linear_4_507" x1="176.022" y1="187.526" x2="174.211" y2="181.254" gradientUnits="userSpaceOnUse">
<stop stop-color="#584CF4"/>
<stop offset="1" stop-color="#7369F8"/>
</linearGradient>
<linearGradient id="paint4_linear_4_507" x1="201.424" y1="187.526" x2="199.614" y2="181.254" gradientUnits="userSpaceOnUse">
<stop stop-color="#584CF4"/>
<stop offset="1" stop-color="#7369F8"/>
</linearGradient>
<linearGradient id="paint5_linear_4_507" x1="140.849" y1="170.985" x2="139.039" y2="164.714" gradientUnits="userSpaceOnUse">
<stop stop-color="#584CF4"/>
<stop offset="1" stop-color="#7369F8"/>
</linearGradient>
<linearGradient id="paint6_linear_4_507" x1="206.798" y1="170.675" x2="204.988" y2="164.404" gradientUnits="userSpaceOnUse">
<stop stop-color="#584CF4"/>
<stop offset="1" stop-color="#7369F8"/>
</linearGradient>
<linearGradient id="paint7_linear_4_507" x1="182.55" y1="170.835" x2="181.581" y2="164.183" gradientUnits="userSpaceOnUse">
<stop stop-color="#584CF4"/>
<stop offset="1" stop-color="#7369F8"/>
</linearGradient>
<linearGradient id="paint8_linear_4_507" x1="161.528" y1="195.11" x2="159.718" y2="188.839" gradientUnits="userSpaceOnUse">
<stop stop-color="#584CF4"/>
<stop offset="1" stop-color="#7369F8"/>
</linearGradient>
<linearGradient id="paint9_linear_4_507" x1="188.216" y1="167.135" x2="186.406" y2="160.864" gradientUnits="userSpaceOnUse">
<stop stop-color="#584CF4"/>
<stop offset="1" stop-color="#7369F8"/>
</linearGradient>
<linearGradient id="paint10_linear_4_507" x1="188.216" y1="183.417" x2="186.406" y2="177.146" gradientUnits="userSpaceOnUse">
<stop stop-color="#584CF4"/>
<stop offset="1" stop-color="#7369F8"/>
</linearGradient>
<linearGradient id="paint11_linear_4_507" x1="179.911" y1="205.865" x2="178.101" y2="199.593" gradientUnits="userSpaceOnUse">
<stop stop-color="#584CF4"/>
<stop offset="1" stop-color="#7369F8"/>
</linearGradient>
<linearGradient id="paint12_linear_4_507" x1="197.186" y1="175.281" x2="196.218" y2="168.629" gradientUnits="userSpaceOnUse">
<stop stop-color="#584CF4"/>
<stop offset="1" stop-color="#7369F8"/>
</linearGradient>
<linearGradient id="paint13_linear_4_507" x1="205.011" y1="142.653" x2="137.068" y2="117.968" gradientUnits="userSpaceOnUse">
<stop stop-color="#584CF4"/>
<stop offset="1" stop-color="#7369F8"/>
</linearGradient>
<linearGradient id="paint14_linear_4_507" x1="181.316" y1="160.578" x2="157.566" y2="144.468" gradientUnits="userSpaceOnUse">
<stop stop-color="#584CF4"/>
<stop offset="1" stop-color="#7369F8"/>
</linearGradient>
<linearGradient id="paint15_linear_4_507" x1="57.1556" y1="158.765" x2="-10.8434" y2="139.029" gradientUnits="userSpaceOnUse">
<stop stop-color="#584CF4"/>
<stop offset="1" stop-color="#7369F8"/>
</linearGradient>
<clipPath id="clip0_4_507">
<rect width="276" height="250" fill="white"/>
</clipPath>
</defs>
</svg>
