<svg width="186" height="180" viewBox="0 0 186 180" fill="none" xmlns="http://www.w3.org/2000/svg">
<circle cx="95.4668" cy="90.5" r="70.5" fill="url(#paint0_linear_2069_9555)"/>
<circle cx="178.434" cy="27.5" r="7.5" fill="url(#paint1_linear_2069_9555)"/>
<circle cx="20" cy="10" r="10" fill="url(#paint2_linear_2069_9555)"/>
<circle cx="10" cy="133" r="5" fill="url(#paint3_linear_2069_9555)"/>
<circle cx="165.5" cy="160.5" r="2.5" fill="url(#paint4_linear_2069_9555)"/>
<path fill-rule="evenodd" clip-rule="evenodd" d="M84.8216 65.9165H106.135C114.469 65.9165 120.049 71.7673 120.049 80.4698V100.557C120.049 109.232 114.469 115.083 106.135 115.083H84.8216C76.4878 115.083 70.8828 109.232 70.8828 100.557V80.4698C70.8828 71.7673 76.4878 65.9165 84.8216 65.9165ZM94.0648 97.8502L105.742 86.1731C106.578 85.3373 106.578 83.9852 105.742 83.1248C104.906 82.2889 103.529 82.2889 102.694 83.1248L92.5406 93.2777L88.2385 88.9756C87.4027 88.1398 86.026 88.1398 85.1902 88.9756C84.3543 89.8114 84.3543 91.1635 85.1902 92.0239L91.041 97.8502C91.4589 98.2681 91.9998 98.4648 92.5406 98.4648C93.106 98.4648 93.6468 98.2681 94.0648 97.8502Z" fill="white"/>
<circle cx="106.5" cy="4.5" r="2.5" fill="url(#paint5_linear_2069_9555)"/>
<circle cx="62.5" cy="176.5" r="3.5" fill="url(#paint6_linear_2069_9555)"/>
<circle cx="122" cy="171" r="1" fill="url(#paint7_linear_2069_9555)"/>
<circle cx="170.5" cy="110.5" r="2.5" fill="url(#paint8_linear_2069_9555)"/>
<circle cx="1" cy="75" r="1" fill="url(#paint9_linear_2069_9555)"/>
<defs>
<linearGradient id="paint0_linear_2069_9555" x1="165.967" y1="161" x2="-1.81054" y2="112.355" gradientUnits="userSpaceOnUse">
<stop stop-color="#22BB9C"/>
<stop offset="1" stop-color="#35DEBC"/>
</linearGradient>
<linearGradient id="paint1_linear_2069_9555" x1="185.934" y1="35" x2="168.085" y2="29.8249" gradientUnits="userSpaceOnUse">
<stop stop-color="#22BB9C"/>
<stop offset="1" stop-color="#35DEBC"/>
</linearGradient>
<linearGradient id="paint2_linear_2069_9555" x1="30" y1="20" x2="6.2018" y2="13.0999" gradientUnits="userSpaceOnUse">
<stop stop-color="#22BB9C"/>
<stop offset="1" stop-color="#35DEBC"/>
</linearGradient>
<linearGradient id="paint3_linear_2069_9555" x1="15" y1="138" x2="3.1009" y2="134.55" gradientUnits="userSpaceOnUse">
<stop stop-color="#22BB9C"/>
<stop offset="1" stop-color="#35DEBC"/>
</linearGradient>
<linearGradient id="paint4_linear_2069_9555" x1="168" y1="163" x2="162.05" y2="161.275" gradientUnits="userSpaceOnUse">
<stop stop-color="#22BB9C"/>
<stop offset="1" stop-color="#35DEBC"/>
</linearGradient>
<linearGradient id="paint5_linear_2069_9555" x1="109" y1="7" x2="103.05" y2="5.27498" gradientUnits="userSpaceOnUse">
<stop stop-color="#22BB9C"/>
<stop offset="1" stop-color="#35DEBC"/>
</linearGradient>
<linearGradient id="paint6_linear_2069_9555" x1="66" y1="180" x2="57.6706" y2="177.585" gradientUnits="userSpaceOnUse">
<stop stop-color="#22BB9C"/>
<stop offset="1" stop-color="#35DEBC"/>
</linearGradient>
<linearGradient id="paint7_linear_2069_9555" x1="123" y1="172" x2="120.62" y2="171.31" gradientUnits="userSpaceOnUse">
<stop stop-color="#22BB9C"/>
<stop offset="1" stop-color="#35DEBC"/>
</linearGradient>
<linearGradient id="paint8_linear_2069_9555" x1="173" y1="113" x2="167.05" y2="111.275" gradientUnits="userSpaceOnUse">
<stop stop-color="#22BB9C"/>
<stop offset="1" stop-color="#35DEBC"/>
</linearGradient>
<linearGradient id="paint9_linear_2069_9555" x1="2" y1="76" x2="-0.37982" y2="75.31" gradientUnits="userSpaceOnUse">
<stop stop-color="#22BB9C"/>
<stop offset="1" stop-color="#35DEBC"/>
</linearGradient>
</defs>
</svg>
